<mxfile host="Electron" modified="2024-03-30T02:44:59.062Z" agent="Mozilla/5.0 (Windows NT 10.0; Win64; x64) AppleWebKit/537.36 (KHTML, like Gecko) draw.io/22.0.2 Chrome/114.0.5735.289 Electron/25.8.4 Safari/537.36" etag="1ItbIUAjP-nyJrlCXZsG" version="22.0.2" type="device">
  <diagram name="第 1 页" id="5-jicgyhGpg1YFUgSiXh">
    <mxGraphModel dx="2231" dy="1310" grid="1" gridSize="10" guides="1" tooltips="1" connect="1" arrows="1" fold="1" page="1" pageScale="1" pageWidth="827" pageHeight="1169" math="0" shadow="0">
      <root>
        <mxCell id="0" />
        <mxCell id="1" parent="0" />
        <mxCell id="ElX6lnOLOb3OckqddCdb-10" value="" style="group" vertex="1" connectable="0" parent="1">
          <mxGeometry x="120" y="240" width="1357" height="712" as="geometry" />
        </mxCell>
        <mxCell id="ElX6lnOLOb3OckqddCdb-1" value="" style="shape=image;verticalLabelPosition=bottom;labelBackgroundColor=default;verticalAlign=top;aspect=fixed;imageAspect=0;image=data:image/png,iVBORw0KGgoAAAANSUhEUgAABOkAAALICAYAAAAqgaTbAAAAAXNSR0IArs4c6QAAAARnQU1BAACxjwv8YQUAAAAJcEhZcwAAIdUAACHVAQSctJ0AAP+lSURBVHhe7J0HmBNV24Z/Kyo2VOyNYlesWFA+rIhdwd67AooFK1hQkaIURUEUUSyIDRAQEJCiICpI7ygWRBQFlQ4Knn/vsznZk2GSTbLZTXb3ua/ruRZ2JpPJzCQwd973nP8zQgghhBBCCCGEEEKIrPFfHpJ0QgghhBBCCCGEEEJkEUk6IYQQQgghhBBCCCGyjCSdEEIIIYQQQgghhBBZRpJOCCGEEEIIIYQQQogsI0knhBBCCJEl1q1bZ9auXWvWr1/Pf8oivy05eN5///3X/kwF9vuff/5J+XFCCCGEECI+knRCCCGEEFlg8eLFpmvXrqZ58+bmjTfeMD/++GNkSckxZcoU0759e/PKK6+Y0aNHm7///juyJD4rVqww7777rmnRooV5//33zYIFCyJLhBBCCCFEUZCkE0IIIUSpZ/Xq1eavv/4qNH/++adZtWpV5FH5j+N36WTZsmW2oixdunXrZrbffnuz2WabmUMOOcSMGDEisqTkePXVV02lSpXMFltsYU4//XQzbdq0yJL4zJ4925x55plm8803NwcddJAZPHhwZIkQQgghhCgKknRCCCGEKNXk/V/GtGrVyuy+++5ml112MbvttpvZddddY8LvWL7DDjuYBx54wKxZs8Y+tnXr1mbHHXe0v0dWJRPWJWeccYaZNGmS3U6qzJgxw5x66qnm//7v/2yuueYa89tvv9kW0lRCqyztqhyDdHj66aej+3DFFVeYpUuXRpbE5+OPPzZ77LGHfczJJ59spZ0QQgghhCg6knRCCCFElkCsUNVFRdby5csLDW2GrI+YSVXKUPG1cuXK6HPx04mqVEAMucfzk30JwjhlwecKW68wkE+8Zh6PPIq3DY7F/fffH5VNheXSSy81f/zxh30sraZh6yST/fbbz4wcOdJuJxU47g8++KDZeOON7XY22WQTU7duXfPkk0/aFtLHH3886bD/tKvOnDkzsvXkoYqwSZMmdh822mgj+/zJ8Mwzz9j1edztt99uz3W6cO7YD3etJBOej2Oo8fDy4T3J+4NKUY4jf/fx3/sk+L73zwHhMybVzxchhBBCZIa8f4Ml6YQQQohs8Pvvv5u7777bHH300eakk05KmBNPPNGcdtppttqpadOm5q233rLjiSUzhhiMHTvWXHbZZebYY4+12zvmmGOsoPnhhx8iayRH7969rVA67rjj7D4xllrwhn7OnDnm1ltvtc/hngsptXDhwsgayTFq1ChTv359+1yHH364bQ8Ng+d/6KGHovKsevXqdt94HKlVq5apWrWqlWEs5zhw7OGxxx6LCqe9997b7q97XDBsBzFHmyfr06L62Wef2e0kC8KkS5cuZqeddoruL2Ef2D/EXaKwzqabbmpbZF1omY13bBLx/fffm7POOss+/z777GMGDBgQWRIfJM71119vH8N+UIlYFDgPzZo1S/o9cMopp5iLL77YXruMozdu3LiocC2vDB061Bx66KGmcuXK9hodNGhQZEk+VG3ecMMN9r3PcX7uueciS/Khdfupp56y79OjjjrKfiaV92MqhBBCZAtJOiGEECJLzJ8/37YL+rKmsCBzkCMVK1a0YuXGG280EydOLLSq6KOPPrLr+9vacsstTadOnVKqmunYsaMdv8xt44knnthgXDbECTf7/nMhk3hsKtVPTEpAq6rbBiIuDF/SsW9IMCqLfv75ZxskxMsvvxzd1uWXXx4q6ahKQ0K5xwWzZMkS07NnTyv8WB9xOGbMGLudZOA49ejRw8pAHs/zclyQfqkIOh7rh9eMsEqVvn372jZgtnHRRReZX375JbIkPsOHDzf777+/fczOO+9sevXqFVmSHkyWce6558a8nmTCceD65ZwichFVVF6WRz744IPodcE54Rr1QdAjlN2xu/nmmyNL8kGeI//dcj6Tfvrpp8hSIYQQQpQkknRCCCFElgiTdIgbhAw//fjr+GFdqruQP0FZ5oOQCUo6csIJJ5hvvvkmslbhINqQI+7xyUo6gihIpT30vffei0okkoyk22qrrcyHH34YWVJA//79o3IsnqRr166d/V0ikEFU6rE+1XXJHjtadZmkoUqVKvaxBDl3/vnn2/H0aF1lX+KF5bSjUqHon0fOP5Jr8uTJkWeKD62iVFWNHz/ejiN32223RbfDmHicN7YzYcIE+7oYb88dJ8fzzz9vKlSoYB/D+UQIUTlJVWeiIJJ//fXXyFYKiCfpwt4D7jwFw+/33HNPWyFG22Z5g+vdnRPGXXznnXciS/IpTNIhZ2kBd8upWszGTMNCCCGEkKQTQgghsgaSjvY9d3OM/Dr77LPNHXfcYcf68nPttdfa1sRq1arZKrqgsKCi6M0334wr6qik23fffWMeQ5AhDRs2tFViyYAIQYS5xyOOwiQdbXX+87jceeedSU1OAFTSIR3cYx9++OHIkliCkg65F4TXX5ikY6y1wqBqyVXkIVinT58eWRIfxgpjggYmqOBxLjzvJZdcYrfBOGJUGbrJIFz83zPz6lVXXRWtmuLc8VoQbslUKH799dd2VlYmfeA62nrrraP7st1229nrA4lIOFaInbfffjvy6HzJ54s9rlfWO+CAA6woDgtVd4QJPVq2bBnZUgHIoPPOOy9mm8wyy3XiX/9co7RsXnDBBebAAw+0+87rd48jTObBOSxvFXVIOlfdGk/S0Q7rjtMtt9wSWZIP8pRjy3uH8DnDZ1NZAnnLWHuJvsgQQgghcgFJOiGEECJLBCUdrWpUfHFDGQw3mEgS5BJjhzEu1zbbbBN9LEG8DB48OLL1WOJJOrLtttvaSrxkKKqkYyw2xA9irTDSlXQ8Lki/fv0yIukY+83JLSrAEo3pxwD9iDGqlNw4doTz5qQKv0f2ffrpp3FFG8eXNlPGJHTbQVCxXSrjkoUx/g466KDofhQWqrNoHXaMGDEipccH07hx48iWCghKOs4R0inee4CJRGhfpiKTsfGC4pPHc/6Tub7KCkWVdFynVE8ioMkXX3yxweQSpRWE7bBhw2wFKoKbatZkvyQQQgghsoEknRBCCJElgpKOaiNuKJOBCSMQZv6YbYRWtmCLIiSSdATh9O2330bWjk9RJR1hAgCkQGHkoqRjHSfKaBGlSi4MhButoXvttVdM1WPt2rVtiyiVYr64o12TmV1pPXSCiW1wTu69996Ytl/GsWMswlRbEpnkwskaqs5o1+X6q1Onjg2ykIkHkMWsQ1XbSy+9ZB+L7Ljnnnuir4VqTl4bxzReWO6LZF5zkKCk4xodOHBgZGlimLEUacpzuccTXlMq8rK0U1RJV5Zx1zzjOXLt8hnbtWvXyFIhhBAi95CkE0IIIbJEmKT75JNPIksLB3GCuHLjUZFKlSrZGViDBCUdLY2+4OMmFmFVWDtYOpKO6jmkkPs7N8uPPvqobedMRDqSDvHF+G2MqcYNOqGajVZLJ5+SkXQIMgTcb7/9ZtcljKvGBAtuf+67776oUAuDiSjcukgUWjW//PJL+xiqIv19Iuw71XIIReQVM+cy46Y/WQTHA5mXzuybvqS78MILzXfffWf3g8kyXJhE4Morr7TrcJ6dpEMeuwkjeC2Mo8fxKSzsK9cWj0tG0jHeHtWkycK1xz76rbscx2SEK1AxxrmdN2+eHVuPY4Io5bikA23JtI4z8cKsWbOsLHTbpIIrmbbkIFQRso9MXsJnBu2pnCsH7/eiSjqOI/tOwj4D+KyhkhExyjHzr3uqGxcsWGCPH6+ZWYO5PtNpO2ZbXIMcM3c+Fi1aZI9BOjAEgP/5SGjZFkIIIXKVvH9jJemEEEKIbFBUSQdz5841//vf/2JuQhm/K9jSFZR0CJMHHnggptIJQfLxxx9HHhFOOpKOtsybbrrJVl+53zFDamGvNR1JRxA2TgwS/szvnIxLRtIhQqhg43VwfBlMH0nlqt+oZuvevXtk7XBohWXMOc4rY9Ih/HwQIhyDU089NUYkUDXHeHB+KycShrHCEG08Lh18Scc5CRuHEBnC+GSsw3mmPRCx5FfRUXGHjEkGJuMoTkkHvA63zy6c40TjLCKQmBgD0cr5PeKII8xhhx1mf1JhSKUirePJyjreA4i5tm3b2vNZs2ZNew5pDz7yyCPtNhGjiFcEli+54sF5RuoyRiUVjscff7zdDj+ZjZX3NMKMn24yl3QkHa+RcRw5x3fffbc9574EBI4F7aLMpMt7BunI/iFvr7vuOnPssceaGjVq2Ofh9Z5xxhn23CPvkgEByKQsHHdeH9tge5wPqk95LyLeCxP7QZgwJ/gFAZ97QgghRK4iSSeEEEJkiUxIOnjqqaeiIoQgB7gx9wlKuqZNm9oJBxjbzv2OMEFFUCb5pCPp2Cb7ww2++x2hKo2qm3ikK+mIE0phSUbSIQOQD8HHEoQa1WZImcJgsgfkQjyxhixiRlW/Qi8stNZSVVQUfEnHeQ87z8gZ97qRqq+99poVt66llNf+4osvJiWZoHXr1tEJHu66667IbwvIhKQDxJIvgQ8//HAzZsyYyNJYkHdUAtKO61cp+mGfEbucZ85Pogo4qr9eeOEFO1FGsGorGGQa1ZG8xkTb5PqkCpFqV/+97YfXi7ziPekqCdORdAhpri+OBUGw8dnkYD+fffbZ6PsEAUn1HtWwVO667QbDsWD24kSTq3Ad8UUD4xUyeUlwMhAX9gt5/eCDD9qKwmShKg/5yLmmapXPoKlTp0aWCiGEELmHJJ0QQgiRJTIl6bgJp+rEbWf77bffYIbToKSjOgdBxEDxzPbpfk+FGBImnkBIR9IhxWh9pOqmevXq0d9zE9+xY8e4wicdSYdIQDKwX6xPEHHcnLuqwXiSDhHhQ9UTx5VqKMQn1ULILY4PcildOLaIHVoh27RpYyvk/HMQDPtHezLViMgdKrFSrSiCVCUdlXzI3AYNGkT3hcdRRZUsJSXpqDij+spth8lQGK8uCJVdzBYblGlIIKoVg7/n2B911FF2spYwuPa5hv33BOF9hERDniHmgvKJfaVyLAwmxqDCzx+z0IX99LfF9rl2eD7+no6kQ2TxnnDLGZ/QF9Bcr1QIuuWVK1e27wvXYkvYL/bBvZdc+DsVePGqGvmsYDbfoIhkW2zfvS7/97yX+YIhWfjsYQzMr776KiXBJ4QQQmQDSTohhBAiS2RK0iFbzj777Oh2uLn3Z+WEMElHixmirkmTJjE3/lQhjR49OvLIWNKRdJdddpmVYtzsIx/8G3na98aPHx95ZCzpSDqECLPHUrmGyHJhcH2qaVgnWUnHsUFa0TpM+DPHLJ7ADIN13ZhiTAKBTHr55ZetmKMNLyghOLYHHHCArVbitfvygv1E/CANadnjWkFWuDHKeJ3xhCekKunYP57n6quvtn9HBnEcU4E2X3d8aaUMkilJt3jx4uh+ugTbGmkN9cfIIxxPWpmbNWtmrxsmFWA77lpxqVevnh0jLQgCjJZMtx7vPdpnuZaYsZfzTdUZ7zHef/61T2tn8HzxXqIqz78ueAzt4ZwzqteoDKP9FRHp1nFJV9K5cQgJn0lBSUeVqVvuvwZayTk27Bcij7Zj2sL9dfhc49gGQfYGq1XZHtcD23r33Xft85555pkxrd9sm9eQ7riBQgghRC4jSSeEEEJkiUxJOgZzv/7666PbQbi1b98+sjSfMEnnbnIZX4xxtNwygggIuwlOV9IhAmDKlCl2jCm3jH1lIPewSpt0JB37FiaSED+uZTOepOPGn0kmqPgjI0aMsGLLz6hRo+zvWc6fg6ILoeEG0md9jheVRMxoi/ykZS+sWgtZxDmgbXPmzJnRx1P1xWOoVPIfw3FDXFDhh7BhUgqOAYKGCS4YbB+h6MP2nKxhrLywySf8a4l9Ytw9zif7z/FHBCJw2BZysDB8Scc1FSRTkg4QbW47hGPnM2jQIDuLrltOqybSjtfhBCfXMseNGWYRyG5djvcTTzyxgVRD6vkVbwg+xiJE8PogCKnGY9w7ty4Va8EWZlp0/XU47xwfWqY5N+ynm+yCa8uf9ZeUhKRzob23R48etlKN/eI1c+x4X3BNuvU4/8h5H7ZJBaJ/XR944IF235m5mm1xrPnJ9jt37mw/H926XCeMNyeEEEKUNfL+/ZOkE0IIIbJBpiQdVWOM6eS2Q5Aj3Ag7Ekk6oPLOH1+K8ZuQZEEpka6kcy2SbO+tt96KmVmWlr2wSRjSlXTBVl/g9Rcm6ZAttMSyPwgqthUWlhOET3AmXaRdo0aN7PharBPWskiolHKS7eabbzYjR460Yo3xuZjQAEnHcaUKjzG92E/kJhVeQcnnQoUYlYRUWFEF16FDh8he5eNLOiovkXkIKq5DgqxBELr2Vl7rK6+8Yh/L7KfsH9s44YQT7HFifLDCZt3k+nD7R+tskExKOr8lk1DV5a5fKiGRU24ZxwppiFyKB9efL4aYMMOvpmPbtPO65Zwb2sfjgVyjos6tf/DBB5vhw4dHluZvD7nurkdyzjnnxB23EYFFu7RfGVhSko73EtVx/meMD9Wifjss1ziv30H7Ke3jbjmykfEP422PzzjG3nQVvxwjxrp051cIIYQoK+T92yZJJ4QQQmSDTEk6bmwRDm47JCjPCpN0VH9RQeVugglSIjjIelElHfC8VDm55QRphKDyyWQlHVVMCCDWiSfpUg0ir1evXnY7Do4FVUPBdZ1A4xwjXpAxtENSSUWFFCAuEFYIUqoLXfUhIJOQZLQGU22HoKhWrZoVgcGWWULbYFAY+ZIOicdYa27GUDdrKOeNx7IOx/Kll16KPDofpJB7DsY+7NSpU1xRwu+pPnPr33///ZElBWRS0nFtuu0QJkNwFW1DhgyJnn9y2mmn2fbjRFDRRUuqewznzhdgvO84/+x/3bp1rbTkPR0PRBMtuG57tDWzXw4Er9+yy7kNVsQGocLOl10lJen4rOAzIx6Mt+cLTl6X/3lDBZ7/OcL1nGh7wGeR/1qp7kw08YwQQghRGpGkE0IIIbJEpiQdIuLOO++MbgfpFBxfrTBJBwggv8WP7VC94s9MmglJB59//rlt/3TrILEQZv620pF0iDAq9ajaocrLhW0VNiYd0oSxv/gzz0tLKEKDCRvIrbfeas4991wruFiH6h+OaxBaZpE2VBshFZA4CByq7pAKyAgnj3xY7sQG1WxIuTCQJrQVMg4bY54hcpAgXEvMHMrzUrHFch9f0iWTMElHpR2vxx0zxsdj9tewCih+9/jjj0e3FxwjDjIp6YIiCdHpCFZ2Ue3IdcH1Fi/sP1LSvVYqGIPvK+Qp55PwGAePZRnniYkgqFhEFCOW3D5wvfmTR3Dd+JNfMLZd2Dh4PjwP17B7TElIOo5Dy5YtI0vD4TlpX3WPYTw9jgNw7fsVllSbcp3wPg6eAz+0vfK55R5Hu+3gwYPtNoUQQoiygiSdEEIIkSUyJemQDUgktx1uooNyJRlJx00yUs5v0eRG2G/Jy5Sk48afAfJpC3XrIZf69esXWSM9SYdQYawvJAwtdoSqPSqn3H7Hk3RUejnZiSxiX5B9iBbCceZ3TuQxi2yw+g+QmsgVxt9DzlApx+stDCrkXCsrrZquwi4ZeE4kBtKL56VdNogv6XgeWo455shLwp+5Bt35D5N0gExisgXWIUxyETbRSFAgcY6CZFLSMXmB2w7xK/datWoVs4zrgSpA2ryZrTcYxkBjGbLUVZc6kRwPzgHvaSokkYK8Xq59ngv5zbXsV6oGJR2Sluo5t/yKK65I6rqhJdk9piQkHe9Zjk8iqAr1PwN8ScdPv5KWStALL7zQXv9h54JwHfLZwyQS7nFUfLp2bCGEEKKsIEknhBBCZIlMSTpuerkJdtuhDZN2Mp9kJB1ww16/fv2ouCKIBtfG9/zzz2dE0gGVXkyq4NYjtCgitiBZSYdEQMj420mUeJKOijTEIX9HpjARQRDEDtV6rM8YawjCeCD1mJyB18lPnpOWxrBwLvyJD5j1kgkIeFzY+i5U27EO4fkS4Uu6888/34pExJ4fzjPHh3XiSTro2bNnzCQMtIW6Y+rgumjevHl0nbDzlylJh9Ckcs5th1AFB8izRx55JGYZwg0ZWVj88d5ImGikio5jS8sm4wwi2pCgwccGE5R0jMnmLw9OfBEP2rtdlWBJSDrasYOfL0GQdFR1usf4ko7PAgSkW0Y4VhyzsHPgx5ecvA+DlY1CCCFEaUeSTgghhMgSmZJ0kydPjhmrCVHQp0+fyNJ8kpV0QOUcExq4dbkZppoF+JkpSQe0SlKt59alqgYRiPxCPiQj6ZAwd999t10HwcY22GfEBeHP/rht8SQd1UFUQbmWU14DLcAOJJiboINtvvHGG5El4TCBBe2NhEkfEoXrgEo2t49UuTFDJi2PYesHQ5skEyckmgjBl3SXXnppVJr4UDnoxmFLJOloWWzXrp09DqyLQEGY+NcC63DO3GtClAXJlKRjvDKOg9sO7wHanoHXlIrETRRadn0xSyUlcpDWZ18guXBtcWwQd1zn/rUelHS8t/zH3nXXXZEliWEmWjeOYElIOl4rkjYRiSQdLd9IYrcs3XDtORGbCD4feD2cq8LGvRNCCCGyjSSdEEIIkSUyJem6detmpYTbDhM+MCOoTyqSzlVA+WIL0cRA+zxXJiUdj2U8Kr/qiLHquMlnDK9kJB0SxskzZqil7XHYsGG2NZXw53vvvdfOSMo68SQd7XSIJSoJ+TtyBTnhpAxtpIgzljHJArOjJgJpxbolFarv4p1T8CUd0oRKvCDLli2z22GdRJIOqBD026yRTpwzd7yQI4zF55bTSh0kU5IOMcVEFm47XK9u0hPEpWuHJpxvxtK76KKLbJtlYWG9Cy64wLa++nKKY8016V+7m266qalSpYqdAZfXhWjjGNIijAzz9yMo6bp27RpdRrimkwEZzPPymNIg6di2m0GYcJ3RDsz7Luz4B8P54NgyDmNhY9Ix+QfXHZ+PXB/IaSpUhRBCiFxFkk4IIYTIEpmQdNyE+q2uBPHEjbVPKpIOEHKMpeXWd+2fzNbpjyNXVEkH3LT7lTVIFEQbY1T5+xxP0tHqyKQOrEOl0ogRIyJLCujbt2+hE0e41jnGuXJCj9fx1VdfWfHEPjkhQ7UZxz4Rb775ppUmHK9EQR64segIwmXbbbcNXTcY/3EIM4RlPDIt6WDUqFHmiCOOiO4DYwAuXbrULkOO+TPdhlU9ZULSBWUg4XpwY/pxfbZo0SK6jONLVR/L3aQPYWG5G4/QhedyUHGKkHPb5VwgwCZNmmRbtnl/cT7894c/bl5Q0r399tvRa5HQ+p0MvtwrDZKOFm1mh3XLKleubN9z6ZyPsAlYfJDGVKW65+L48gWEEEIIkatI0gkhhBBZIhOSjgHqXasbYbwo2t+CpCrpwJ8Rleyxxx7mqKOOiqlYyoSkA4SWfzPN5AxUzfgSJJ6kYyw1N44aYsBvUXUgflw7aTxJh4gApIWrpmMZUoNB/V1LMWP+MalAYSBoqDbjueKFfZ89e3ZMZRFCg/HilixZEvoYwhh0LEf6uCoqJstAJsajOCQdAgdJhDDkWmF9dz3QHuzakEnHjh3t730yIemQsjVq1IhugxbnDh06RJbmw9/9dlTkYTIglKiCQ9Qinjj2Drbptsd1wviKTlCGgWTifeceE5R0vPcRYG45FbG0hiYCaUgLrntMaZB0HAdf3nK+aNVOBj4zORfMajxjxgwr6hLB54pfEUwYD08IIYTIVSTphBBCiCwRJumGDBkSWVo4n3/+ecxYdATBEiZf0pF0SBbWcxKLnwghX3ZkStIhG2gNDA4M71eKxZN0HMezzjrLrnPqqafam/cgvP5kJR1QxUfrLL+nqg1BSfsrf2eGSSRapmDsNOQq26aC7/XXX48sKZzWrVtHj1lhY5j5ku6SSy6JEU4OKpZclVMykg4Qhhxftu9X8iFjXBsyoiRMbIZJOqqfkoVrjXPuziGh1ZVqNh/EFSLRrcPMvPPmzYssDQfhhkziOkCE0yJLaylwzfuiiWvVjdsYD1rQEW/uMUFJh6w9/fTTo8t5XgRoIr744gvjjx9ZGiQd0FrunzOuucKE26xZs2zFLa2rvE/OPffcQiUmY0z6op8vGBjzUgghhMhVJOmEEEKILBEm6fyb9jCQA9zsMuEC4zj5N7qIJGRJGOlIOqCKqGbNmtHHBZMpSQczZ860wsXfvp94ko6x4RgjjnUYcwrpECRVScexQTC5KjUXxBUCL1HFWiowwQfyx20fCYG4Sgb2wZ+1tLA2vuKopEsEx9C1ISNVmL00SDqSjusNgTZy5Eh7vPz3AGKLcROD52fatGkxgsxNOhC8dh08/t1337XvSfcY3gdM0uLgenTLOFbM/BsPhKVf9UgOPPBAK5EcrMOMwW45iXc9AxKd9nN/TLzSIumo9mVf3XKORaLx5ZD4vFb/XFMRF+/8OXgcx6NOnTr2M4K2Z6pXhRBCiFwl7/8gknRCCCFENghKOgQDFSZU3CC6/FAxM2jQINsySAUJ4zi5xxFu/pEA8Wb3TFfSISuQHsHnc8mkpAOqkfyKJz/xJB2vzbXlItaQHUFSlXTAuHz16tWLPj9BKHHeigryANHKrKxu21T5cKyThao1v500uP9BfEnHxAZU7CHEGK+P8GeEhrsmiyrpEGmuKo9KQaRXkKCk4zqj9THsPYBsQmJTkYe8QvL4lZf8GSkYJmEQTby3fKGF1KZSDdnFcuB65+9UzCGO3LpUArZq1Sq6HrAfbjnXEBWW7Le/Du9HXiMtqczw6tYnVHgxsYkPz+sqOAnPy1iDbMONv8Y+8t5t3759TOs5KS2Sjvcf++GWc/yQaMg7jhmvEXhuHkdrsas2JdWqVUu64pLPJ6o9GSeQcyuEEELkMnn/BkrSCSGEENkgKOm4UUWMIKlosfRDJRI3+X77pwtVQbTehbUvOtKVdIBsueGGG2Ke0yXTks6JHb9ixiWepGvZsmV0fWaKDauuSUfScX6QC+75Ca2FH3zwQaEVPIlAFrDPSCK3XWQMVXGFtfz5MHGFq3rjGiisTdaXdMgqxgLjcX74nRNZRZV0jOdGWy3b4toLkypBSce5YD8SvQfYR7e+C5Ia0UTLaDwWLFhgJ2PwH4cU5Np+4403rARHcCGP/PERCVVbnDcf2s1pWXXrcNyo1uM8UOWHhKW6kUpJd0x9qUj7NOePajonxbj+EXq+TOTPtPDS2szYiIyzxnuK8+Ovw8/SIumAseUY49KtQ6pXr25fP7ISYceEEoxN6X/u8Wc+CxDdQgghRFlDkk4IIYTIEtwI165dO+YmNZUgJrgp5waam/tEUCm15557Rh/bsGHDpCUdDBs2zAoq//kJ7WNBYUWL7OGHHx5dhxv0ZCUd8Hj/Bt+Fm/cgVBc5UYX0iDcuWKqSjrGu2G6YFOWYM65VWMVeIlif/ahbt64VUW57SKeHHnqo0HMYhLH3aONjG1QWFTbpiC/pkklRJR3n0UmYww47zD5/kB9++MGcffbZGzx3skFOUU12zz33hLbvBmFSEcZ982WZE4MIQH6664GwHhVeY8aMiWyhACq+nn766Q1aotkGQpEJRvzn4VhQAbjDDjtEf8dyxrvzjzOfC1x7vqgjXN+cE19S8jwIPCcLqTZjllgfqnD9qkBmJvZB0iH93HI+k5CnDiQdrcFuOWKTcRQT8c0338TM+nvRRRdtIOmolmNyGiaJcesRjifHLkzIsgzxm8y5FkIIIUojknRCCCFElvj555/thAfceHNTWlioJqLCZ7/99rM3wEirqVOnRtvgEkFVysEHH2y3w/Pde++9dpKAZOFGnTZEhIi/T1T3BCUdVTTc6Lt1EA6p3FRz844wY4B4tw32mSq5IMgAN2YeFT7IyDBotXTtcvEkHS11PDfHlMoiJ0mQI0gmvxIRgdCkSRM7gQTHJh6IHAQlbY2Mn8ZrcdsgjMGG8IvXphwP2vY4Rm57TIRAe24ifEnHWGs8BnlCpRLhz1yPSEjWQTYlM4str59rgGPn/s61RbWTO4aMNRhW5Ua1IuLKnefCgpRi3xE7vAeQzcz06U9YkQj2EblJ9RyyLCjCXKhs5Hq6+uqrrWx0ry0I+8+EHYiroKwjXFu0ryKWeF/MnTvXzhzMNeUEHtd2UC5zrG6++Wb7HgjbRx7LMt4TvLeRtWyHz4YPP/wwspV83LiSHD/WufPOOyNL8uG9ibhzy5GmfDY5eO202btzQLUbci0RjN33v//9L/oYZr6l8jMI1w0tzOw/59YXpH64FhHR999/f8y+CSGEEGWNvH93JemEEEKIbEBrIy1f/fv3t612icKNODezVMVMmTLFyoFUxlei9XDUqFG2BY/nQ1Sk2rK5ePFiK3poW3T79d1330WWFsDNOC12rEe4YU9VQiEORowYYfeX50FyBWdURR4wzhgSgBt5KqScCKIVDlFE9Ro/qfhDvLAeAs5V9fiSjoHpkQ/ITCdQECSIGgQYM+8yWQe/d8uoGOzRo0dMmyrPzQQMyCPakJmBF6HiHkeQDsgpzn+YZEU6cY7YBuOcUdmHnOD1UY2HVPHHCURWFVbZx/l31ZAXXHCB3SbHxg/HHaHi9rGwSjrGf+N6Yj1aIBFEtCjSHuqPl4ZwCqvc5BpGXvnXVLzwHqBakDZTJgtx+58OnH/aTJmogapNjiX7i/xDXnK9cG6SmWSA18W1QTUfYgq5h3w97bTTTLNmzczw4cPt+8+BqGvXrp09h9dee60dS5KJLYLw3Lze22+/3VbKsX+IZlrJeS7eH+688X7jPPC7YFsu78fRo0dH3/tcTz5ca7xHOQcsR+oFpSfHmnPAOmHPEYSqUPaJ5yScr0TtqbQi897jmFD1x2vlnCCVkceIbN4PqbSDCyGEEKURSTohhBBClEoQCQgMJ4KoLHRVbcgGRBRVS7SX+pKMyie3HpLO/Z52WH+cOFpdb7vtNitEHYw1xgQBTvgRKrIY08yB/DnppJNsZVCwCor9QN4gtBIJJoQkFU1U7LEdxmhz47Qhz/xtMmlG2KQMQZBbrpKOyi6kaxgIEVozmTQjOLFBkFmzZtnjy/HgeNGeSJWYv39IK//45BJcQwglJhYgiDGkWzrjnbEt5CwC0G0nnpxGzCKcCOsgnOOByES0uX1kf4MSrSzAMeB4uNfK9cmfeZ8kUy0shBBClAUk6YQQQghRKuGmnoon2gypMKLKx4G0oi3Sl0WE8b969eoVWcvYyRrcslq1akUnvKCiivbXMJFF1Q+Pc9tnzDLGOnMEx35j/3heqsvYR6qqEkkZQNzEm6zDBSFGGy4TCSRTqUg1YKNGjey+Ub0VHCPMQUUe7cBLliwptHKJ56WKL7hvVCci7ZjBtHPnzkntnxBCCCFEeUeSTgghhBClFqqVaCmlos6fnIJKNGbyZByrGjVq2LZUJBxjf/ltoYg41qEarlOnTraKjLHjqIZLVL2DdKL9j2q3bt26xYxLx+MYy43WUlpdEYmMc1dYO2qQPn362Co1Ku8Y042ZQwl/p02StlLajZNtW2YfXaUSPwsThcmClGS2YGYNRUTSxou4Q84lO2aiEEIIIYSQpBNCCCFEKYfWQqrTfFnFn5m1kjHcGAMMmcU4WsE2RsQeY6IxDpdrJeRnMiC5qDgLa1tlOzNnzrStsum0TgJyCwmJVKPqjao+1wKIZEt1TMHiAvlHSyb7hIgk/D1X9k8IIYQQorQgSSeEEEIIIYQQQgghRJaRpBNCCCGEEEIIIYQQIstI0gkhhBBCCCGEEEIIkWUk6YQQQgghhBBCCCGEyDKSdEIIIYQQQgghhBBCZBlJOiGEEEIIIYQQQgghsowknRBCCCGEEEIIIYQQWUaSTgghhBBCCCGEEEKILCNJJ4QQQgghhBBCCCFElpGkE0IIIYQQQgghhBAiy0jSCSGEEEIIIYQQQgiRZSTphBBCCCGEEEIIIYTIMpJ0QgghRCkk799v888//5g1a9aYtWvX2p/r16+PLBWZgmPqji8/kwnnReei5Fi5cqX5+eefzfTp0824cePMmDFjzBdffGH/PGPGDLNw4UKzevXqyNqiqPDZ8++//6b0nmB9HieEEEKIxEjSCSGEEKWQadOmmZYtW5q77rrL3HfffeaOO+4wAwYMMOvWrYuskRtwY87NPCJl+fLlNggTRFZpuGkfO3asadasmbnnnnvscU6Upk2bmgceeMA8/fTT5vXXXzeTJk0yK1asiGwpuyANOe7sz7Jly+xPzgvypLTCtTRkyBBz0003mWOOOcYceOCBZu+99za77bab2X333e2fDzroIHP88cebxo0b23PJay5puM4zkVzhr7/+Mm+88YZp0qRJ6PvAD+8J3j8dOnQw7733nv3c4rMgm68neFzTiRBCCFFc5P07I0knhBBClDYQQVtttZXZdNNNbTbZZBNTt25dM2vWrMga2QX5M3fuXNOrVy9z7733mgsvvNCceOKJ5pRTTjE33HCDeeKJJ8zbb79tK52otMlVXnzxRbPNNttEj7M71vHC8s0339xsueWWZttttzVnnnmm6du3rxVK2QAZN3nyZNOtWzdz2223mbPOOstKK/arYcOGpnXr1qZfv362Eq20VP8hor/++mtz5ZVXmq233tpsvPHG5v/+7/8ShnOz4447WrH0/fffl5ho4T3w/vvv2/fBu+++m1Z69uxpZeTixYsjW80uP/74o6lfv37MeyLR+4JlFSpUsJ9XlStXNueff7555513zO+//x7ZYsnA9T116lR7PMOOc7Jh3z///HNVZwohhCgWJOmEEEKIUsbSpUvN5ZdfvoGI2H777W21SrZB0HXt2tXUqFHDShRu0oP7utlmm9mb9v3339+0aNHCSqJc5Pnnn7fSLbj/qWSHHXYwTz31VIlX1SF1nnzySbPvvvtaaRiUWfyd17bddttZgdq9e/esycRk4dqiSrFq1apmo402ink9xAkhXleYvEManXbaaeazzz6LbLF46dy5sz2+XOtFSc2aNW0bby7www8/mPPOO2+DY5tKENiIe2RXSYFUe+yxx0KPb6pBNC5atCiyZSGEECJzSNIJIYQQpYxRo0aZQw45JPTml5vQbFamIVE6duxoq5aC++Yqa4K/R6hcc801tkIn1+jUqZMVXG5fqQQ68sgjbXvl0UcfHc1RRx1lDj/8cNteufPOO28giKjGe+WVV0qsggtBd8stt4QKRkRWmMDidT788MO2HTEX4dhREbjrrrvG7DfCF2mHOGrevLl56aWXzLPPPmtfP5Wbe+yxxwav94ILLjDffvttZMvFR/v27WOeN90ccMABZsSIEZGtZhckHcfP7RvvadqLDzvsMHPwwQfHhBZkJDGimvPkvyYka506dcyXX35ZIu8LJB0tuP4+pJtTTz3V/Prrr5EtCyGEEJlDkk4IIYQoZTz44IOhkoWcccYZZvbs2ZE1S54PP/zQ3pT7+4SgohWXsamQQFShILL8dXg92RaMYQQl3c0332yP7/z5823bpMu8efNsayOTF1AdxHpbbLFFzGvkxn7mzJmRLRcfCA/GAKPixz03xxdZdfHFF9vjfP/995uTTjppg31Err711luRLeUWw4cPt+LH39+ddtrJjgNIG+Pff/9trx/aYZHFSJklS5ZYqX3FFVfECGKOB62vxX29UUlH1RjXUDLhnFWsWNFWA/qvEwHMZBi5QFDSIU253vg917cf3g8TJ040Q4cOtdcdXy4EP7tOPvlkM2HChMjWiw9XSRd23OPFnY+gYKRtvKTbdYUQQpQPJOmEEEKIUgTVP//73/+iN4vcIFeqVCn6dyqnGOstG6xatcrcfvvt0X2hUgYRxHhatFEiRAhtn9y0U+XkixMETEm1ISZLUNIhhJKZnINjwbh73OC7xyJr3nzzzcgaxQfCsF69etHn5RhfddVV0UH7OQdMoEDb9GuvvWb222+/6LqEVmrkVi7hxkHz95MJIpBgyUwG8dNPP5nrr78+5nrjvcNYccXJd999Zz744AM7lhmt6IWld+/edlIG//whiBDzuVLhGJR0TNDBuIuFwXU3ZcoUc911121Q4cnEN8U9qQdj0vEeYEy6sGMflo8++siOS0nlrNtXqmmfe+45zeAshBCiWJCkE0IIIUoRXbp0sWPPuRvGhx56yFZt+eNz0ebHDIwlDRUzTErg9uPQQw+1gi4e48aNsxLPrY/QYryxXCIo6ahAY2baZEBmUHHjHouY4Oa+uEEEIgTd8yJU2JcwEA1IC0SLW59qp1yTpS+//HJMZSDjvNFKSsVcslABefbZZ0e3Qe6+++6kz2e6UNmYTIDzgaijfZT9o+qMKsBcqtoKk3R9+vSJLC2chQsXxsh8QjvvsGHDImsUL2HHPixA9V2bNm2iUpHrrlWrVsVegSmEEKL8kvdvkCSdEEIIURrgxpAZOt2NLfKICh1ubv1qqOrVq5uRI0dGHlU4jK1EWxoSg5/pziJJBZA/Fh1VZ4mqTVjGzK9ufSqGXnjhhcjS3CBM0iV7g041nX++qOJ65plnIktjobqQtlnXJogI4fHpwD6656TVuDDxiQC69NJLo4+hUojrKlegqu/GG2+M7h+hMjCdaj/Ent9uyTh2YRMAILnnzJljZ0tmBuIFCxYkVUFZVMaOHWtOOOGE6P7RCkr1WS4RJukQi6lASzjj1blt8CVD48aNo3LMh+P+22+/2fPA+eBz6o8//ogsLV6otOT94Pbz6quvzsoXIEIIIcoPknRCCCFEKQGBVqtWregNI5MVTJo0ybaS+jfNqcquRx991Oy111628m2fffax7V3pQMWJ2wcmJ6BCqzAYI8pJE/ab2VRziaJIumXLltkJMdxj2Q6VkGGMHj3aVt0x2y3C9aKLLjLffPNNZGnyIPZuuOGG6HMed9xxZvLkyZGl4SAIqb50j6FSM5fGpUPo+BOlUHGZrszlONNmzfVOuyvShVbYIIytSIsjLdiMsXjnnXeaP//8M7K0eECWUhXrXiftvIjvXCMTkg5Bz4zHbhuEaxVBHYTPt6efftpUq1bNng/G5yuJzwneN+yT2z+uh5IYO08IIUT5RpJOCCGEKCXQKrn11ltHbxr91svgZBI33XRT0pVGjBHlHkceeeSRyJLUoEqMCSGQC7S9IkQSEVYZ+Oqrr0aW5gZhY9Il2x751Vdfxdzkc1zijd318ccfW0Hq1mWW2FSqIR2IJMb3oqKRcB3QXpgIxnvz20CpcMqVmUSBWXH9a/vEE0+0Y4ulA1VZyFOOE0EAhVXI0V7rj5t27rnnFmvLKfuAwHXPyetlYotU2nlLikxIOuD63nPPPaPbQZqGjdnIhCANGzaMrkfVHRPQFCd8dvI+csMIsG+M3yiEEEIUN5J0QgghRCmAFiv/xhgB079//8jS/LYsN44VoRor2XHFrr322ujjCLOwpgMtgYgpgkRBgMQj7/8ftkLKH5AdiTVgwIDIGrlBmKQrTJywfPz48Vbs+BMVIEPjVWPxun1hQUVdOpKO52ayAtomCRONJNpfliGkdthhh+hzI+wQd7kA1wnH3O0boVKwuFtPu3btaqtB/WNSnJKOc42Ydc9Hy2uutbk6MiXpqGCkYtRth0raFi1aRJYWgKQLjmHHlxLFCZ+n/nvikksuybnJVIQQQpRNJOmEEEKIUgDtd7TouZvGiy++2Pz888+RpfmDsdetWze6nAoQBjhHchQG1WyIKAbm5ydtaJmE1jYGYKetEnGH7OCmvmbNmtEKKX7eddddtsoplwhKOgbxR34iIr/44ouYjBo1ygwcONAe9yOPPDL62pA9VNQhJePBBBu0dHIOCPKysErEVEHI0Q7LeWBmV6Rqu3btYuQur5WKrmSum5KA/fTbd0nz5s0jS4sPqqYQ4e58IGmKaxw0XiMTWLjXt8UWW5iWLVtGluYemZJ0XIdNmzaNbof3y3333RdZWgDH55577omeCyZFefzxxyNLM8/cuXNjKkv32GMP884770SWCiGEEMWLJJ0QQghRCuBm1kkf0rZt2w0mZeDG1V/ntNNOswOtFwazsr733nv2RpufyTwmFebNm2dvvs8880xzzjnn2HH1aB9z+0mL3+WXX24H6s81gpKO8dCo+ENs8dPPTjvtZNuR/TZJgoz89NNPI1sMh8kLhg4daj744AMb1k93Ao940MKKZKTC74wzzjBHH310zEzBvE7OE5VLuQLyGUHm9hGB1blz58jS4gMR1a9fPyvH33//ffPll1+aNWvWRJZmFs53pUqVoq/x1FNPtdWQuUqmJB3SODguHS2+wc812ssZH47zwPmgZTxs7LpMwJcJ7JOrgOXzlCq+RNWoQgghRCaRpBNCCCFyHCrm/Co5hFBYWyiVXP4A+wiYZGfpdJVT7mcmYQIEhJDbr2BOOukkW51WHM9dVIKSLp3UqFHDTsSQzMQDHIPiOg6M9xcUiH4aNGhg5s+fH1k7N0DwInbdPtKCGDZuWXFSnNclM/peeOGF0dfHmI49evSILM1NMiXpkHGMY+m2QxIJsZL4fKDtmAkq3P7wuaXJIoQQQpQkef/eSdIJIYQQuQytVn5LIlVnv/76a2RpAbSKUinl1iPMnprsRAfFBZKOajJ/v/xQHcVEE0yeUNxjjaVKUNIhubbZZpu4oZKO9f2x6PgzLXqMSccYcdmie/fu9li7/QqG/Wd8wlwaC42x8c4///zoPu6yyy52vLCyAuKU4+5e31VXXZXzY58Vp6QLq6QrKWgFpxrZ7QvvWypLS0IOCiGEEA5JOiGEECKH4YYVceJmGSTc2LpxxWhNJPyZ33FT6QsiKvAYYymbMEA8A8JTEUWbJbNzMpMpA8W7/STMKsqYbrlEUNIhURiPDpFFhY0LLcPjxo2zLaVvv/22ady4sTn88MNNhQoVoo+ldQ4JwKy22WDMmDHmxhtvtOfhlFNOMccee6wdb8u/XtjHs846K+Mtz+nCOHAcc7d/2223nXn99dcjS0s3VMhSveheGy3gPXv2jCzNXTIl6fjygM8Ftx2uw4ceeiiytORhXEl/8g6+WCiutlohhBAiHpJ0QgghRA7DZAMHH3xwzI0s8oeBzRFefpArzArqj0vHpAXZvvFHNDKeFxIRofjbb79ZscUNuj+jKaHdLZm20JIiKOmYabSwaj8qbxjbilbNRo0axcwSesABB1iRlw3YbzdxBMcYSYS4Y2IGXyZyjT399NM5UUG0cuVKO7GJ2zdkdfv27SNL04PrEVGKJCLZqtx64403Yq4Nxt7j3OQ6mZJ0nNt77703uh2k/RNPPBFZWrJw3BGEbl94P4TNNCuEEEIUN5J0QgghRA7DjWKiccSSCZLjr7/+imwxd0CQMIslLaJuX5FYjE+XK4RJulTahxEa/kyRhBlVcwmk6c033xxTrck4aUzakAtwzP3jd8cdd0SWpA5iCKHUrFkz88gjj5gOHTpkpWqQdnW/NZ2x6JB2pYFMSbpgKzNtvx07dowsLVmooqOS1+0LVXS51PYthBCi/CBJJ4QQQuQoiLWLL744euOYbhgIvbirtxjsnSotJAhJVmQxcD6z0Lp9RUjmUstfUNLdf//9KbertmnTJkaA3XPPPcVWpcZxd+eBn8nOSolk8cc9POGEE8ykSZMiS7NL165dY6pD69Wrl/YEF7Ql025N1RahSpVZdUuajz76KGaGY1qQf/nll8jS3CZTkm748OEx1xznYvTo0ZGlJQfvxS5dusS0fd9yyy0pyXghhBAiU0jSCSGEEDnKp59+GlPdwaD5derUsW2tZ555ZmgQGKeffnrMzS8y4sUXX4xstXigEoVWVSqwqI5h3DBaXJOBcdLcvpLnn38+siT7ZELSMTmAvw3GGGQMweKgX79+tkLroosushOMIIOSgaohZtl1+8h1x/WXC1BZ6b8PqDpLV+Qyy65fuclrLulxx5A/TOji9gEB+fDDD0eW5j6ZkHS0GD/55JPRbRDafZOVypkEOepXNTKDMGJYCCGEyAaSdEIIIUQOQnXHXXfdFVNBxN8XL15sli9fnjCM+8ZYaO5xhMqQ4hzrbdCgQXY8PPd8zGTKviYDcs/f186dO0eWZJ9MSLpWrVrFVNJxbopLRiA43f7ynM2bN0+qam/OnDlW7rp9pKopW2PnBUGiBCtKmZiDcf9SgepC3kP+dhDEJT0O3HfffWdFu9sHJu94//33I0tzn0xIOirm/EkamP34hRdeiCwtWZDRO+64Y3RfatWqZV+jEEIIkQ0k6YQQQogcZPbs2bYtz904Ml5T3759I0sL55VXXjGVKlWKPh6BxiQUxcX06dNti6R7Pm50p06dGlkaH2bv9Mel2mKLLUyvXr0iS7NPUSXdggULYl4fYRy+4oJxzRAe7rmuv/56s2zZssjS+AwZMsRUr149+jgqzHJlTC4kIzMa+5Ms7LvvvlZsJSMgHbx/qlSpEt1GxYoVzXPPPRdZWnKwH1Rruf1A2DFGXWmhqJKOMRAbNmwYfTw5/vjjzbRp0yJrlBxcP61bt47uB2L7zjvvjCwVQgghSh5JOiGEECIHoapku+22i9480kbKQOvJQmVU7dq1Y24+27ZtGyo13DhmVCalMo6ZD+2b9evXjz4f4zshuAqbOZNWUNoX3eOOPvpoM27cuMjS7BOUdA8++GDSs4EuWbLEzhjpP36vvfYyAwYMiKxRANukPZjjT/hzOrOOjhw5MqZC6ZBDDim0bZVZXx999NGYqk3a/5KthCwJuCaOPfbY6P6Rww47zLb3JnOcaJllMgD/8cyITFVbGBwT934giNlUhGA82FeqG90+8L7kmipNhEm6ZNqqee18hjVp0sS24LvHI1+ZyCPR8XWfUYTzkqlK1G+//dYOE+D2hffnhx9+GFkqhBBClDySdEIIIUSOwU0os226G0dCyyTiIFm44eVm2G+zrFu3rpV3QRg/7tJLL7VVV/xMdhyzIO3bt48RUkxYwRhgvJ7gDTith8gjfxw0QoUN7bq5QlDS0Zr7008/md9//91WP/lhNlQEBhWEw4YNs2PCBWfm5fWFjUdHJSKy5qqrrrJBms2dOzeyNHnYNq3N7rwj3k499VTz5ZdfblABiDThWHfr1s1UrVo1uo885umnn86IlMoU7CviukKFCtH9JIceeqjp3r27PfZcZ6zHfvMTsUOLNyLPF9Zkt912M++8805k6xuC1Lv11lvNNddcY88jz00reVFhJlnOh9uP0tbqCkFJx/iXVO5yLQXfE7QqI+Z43W+++aY9D35FJGH2Y95T8eC8MgYh4pjzcdNNN5k+ffpElhaNwYMH27E+3b5QAYy4E0IIIbJF3v9jJOmEEEKIXGLy5MnmuOOOi944Ml5SOjelyDbaAv3thAkBbnqROsgZfjKofTr8/PPP5rzzzos+H0FCILZoYWVmTQRW//79rayiasWv3uJmP9eqWIKSjn2krRe5SDtyMFQC7rfffvZY+4KUIJRoKw2DMf2QmjyGUCWGKEoHqumooHPPy/aOOOIIW8H18ccfWyHIuaA1lrHe/IpNwmubMGFCZGu5A5KMykR/Fk6y/fbb2+N+2223WeHItcZr4zpm5mBfwhDEKcci0eydbId2WPeeoJIVMVtUqKJEELp94VjPmDEjsrR0EJR0VMXRTv+///1vg/cD0uuYY46xy/02bBfWGTNmTGTL4SD/7rjjDnseOB/u/GWC1157LUb88iVFMu3hQgghRHEhSSeEEELkEFQBtWnTJubGEfH1/fffR9ZIHqqL/AHqCRVawYoqZhv11ynKDTDtq0EpglTZaqut7E06Qgj5ERQtLKcSLxuzOyaCiRiC1Vuphsqho446ygqaeNWQyDOkpXvMAQccYGVbOiCfHn/88Q2OMTKFY8854Fz48tEFuYdE5TrMRajMYtIIXkdw3xE4vCauJX76LZUuCD2u78Kq4pjd03/8OeeckxFJR8WZfz1RpffXX39FlpYOkHTBcRZTDWNPMhN1YYIOkHTBMeyQtUWFz8GnnnoqZrsaj04IIUS2kaQTQgghcgjGAaP9y900Ih4Y3D4dacJjmjZtGnMTyo1xsI3yhhtuiFkHkZcujKVG9RnCicoXf7thQSTts88+tp2QtrZcg9eCUAjb93jhdSPmkEV77rmnnWxi5syZCc/hwIEDYyY1QJaNGjUqsjR1GJwfmRUm4sJCdRJVT5988oltFc1lkDZcL4jMMBEXFl4fopS2SVqtCwOZ5p93pFRRJR3HlUlD/P269957c/54BwlW0iUTVwGHXKVKGAma7BibnG+uZbctPjMYw66ocD6pInbb5f3KJBJCCCFENpGkE0IIIXIIxoxr1KiRqVOnjm3Vo8qN9td0YdZFKvFOP/10uz1uSoOzKHbo0MEKGgZQp/3u7bffjixJD6rhGG/uyiuvtCKFyrqtt97a3qDzk0ouJN6RRx5px82jtTKV8fZKEqrKEBJMMsDxSRTG/KPi6uqrr7bjy9FajIhAXBYG7aecm1NOOcWGyqGitkEyyH6PHj3suacFd6eddrLHHxnBT2YYRQzSvos8mj9/floyOBtwvTDpwxNPPGGvXWam9V8f19iuu+5qr7+TTz7ZPPvss7YdO1khhqx05502zieffDJ0LMFUoMKR9krGpOOccK0kGhcvV0FuUYHGcQ17H/jh+PH5g2Rr166dHauRLyJSeb8jVbt06WLPA9vjuHFdF5VFixbZ8+rec4x3V5wzYAshhBDJIEknhBBC5BAILm5KGReJljxES1EqbRADK1assNsi/DnYUopEcs/Hz2A7bLpQATN79mwzevRoO0A77Z5UjA0dOtR8/fXXtiKH/cllgsevsLBuOrOBIi047247bCMT4pJrB6nCWIC0z9JWy1iFnIfhw4dbOUgLaabOeUnDfjNBASKb18frQqxyjXHdIaR5/am2UbO+O++8J8ImP0kH3mv+tZJoXLxchePA8XCfGYWF18n6qZ4DB8/nf0aRTFyvvDd4n7lt8v7L1S8LhBBClB/y/t2TpBNCCCGEEEIIIYQQIptI0gkhhBBCCCGEEEIIkWUk6YQQQgghhBBCCCGEyDKSdEIIIYQQQgghhBBCZBlJOiGEEEIIIYQQQgghsowknRBCCCGEEEIIIYQQWUaSTgghhBBCCCGEEEKILCNJJ4QQQgghhBBCCCFElpGkE0IIIYQQQgghhBAiy0jSCSGEEEIIIYQQQgiRZSTphBBCCCGEEEIIIYTIMpJ0QgghhBBCCCGEEEJkGUk6IYQQQgghhBBCCCGyjCSdEEIIIYQQQgghhBBZRpJOCCGEEEIIIYQQQogsI0knhBBCCCGEEEIIIUSWkaQTQgghhBBCCCGEECLLSNIJIYQQQgghhBBCCJFlJOmEEEIIIYQQQgghhMgyknRCCCGEEEIIIYQQQmQZSTohhBBCCCGEEEIIIbKMJJ0QQgghhBBCCCGEEFlGkk4IIYQQQgghhBBCiCwjSSeEEEIIIYQQQgghRJaRpBNCCCGEEEIIIYQQIstI0gkhhBBCCCGEEEIIkWUk6YQQQgghhBBCCCGEyDKSdEIIIYQQQgghhBBCZBlJOiGEEKKMsnr1avP333+bxYsX25/8/d9//40sFULkCnn/Hzfr1q1LK+vXr7ePF0IIIUTpR5JOCCGEKGMg5AYMGGBuu+02c8YZZ5iTTz7Z/rzhhhtM+/btzfTp080///wTWVsIkU0QbOPHjzddunQxL730kunatWvS4TGvvvqqmTJlSmRrQgghhCjNSNIJIYQQZYgJEyaY8847z1SsWNFstNFG5v/+7/9isvnmm5u99trLPPbYY2bhwoWRRwkhsgXVrU8++aSpUKFC0tliiy2i2W677Uy7du0iWxNCCCFEaUaSTgghhCgjUE1DxZwv5TbZZBN7I7/lllvG/H6zzTYzjRo1MosWLYo8WgiRDZB0zZs3j3l/phJkfKtWrSJbE0IIIURpRpJOCCGEKAMwNtXNN98crZ5Dwh1//PHmkUceMb179zb9+vUzDRs2NLvvvnv05n6rrbYy3bp1i2xBCJENkHS8D4899lhzwgknmFq1asVN7dq17fu6cuXK0ffxHnvsYXr27BnZmhBCCCFKM5J0QgghRBlg2LBhZv/997c37Yi6a6+91sydO9esXbs2skb+RBLvvvuu2W+//aI3+Pfcc49ZtWpVZA0hRDZYtmyZ+eWXX2wLeqIsXbrU9O3b1xx00EH2/bvDDjuYDh06xLzPhRBCCFF6kaQTQgghygBPP/20HW+OG/cqVapYaRcGM0E2btw4Kukuv/xye/MvhMh9fv75Z/uepY0dGU/L+vLlyyNLhRBCCFHakaQTQgghygD3339/VLxdeeWVCceaa9Omjb3JZ9169erZijshRG5DtVyLFi2i7906deqYmTNnRpYKIYQQoiwgSSeEEEKUcqiOa9u2rTnssMPMvvvua9vfGOcqDNa95ZZbokLvqquu0uQRQuQ4ef9fNwMGDLDvb963e++9t3n//fcjS4UQQghRVpCkE0IIIcoAv//+u5kzZ46trFm8eHHkt7Eg7j744ANTrVq1qKR79NFHzT///BNZQwiRi8yePdtWvbr37Y033qg2VyGEEKIMIkknhBBClFGYEGLWrFnmq6++Mp9//rlp166dOeCAA+xYVsz+esQRR5jhw4dH1hZC5CJUvz7zzDP2PYugq1q1qp2tWQghhBBlD0k6IYQQoowyY8YMc95555kdd9zRxk0sQY4//ngzdOhQ20YnhMhdJkyYYI499lj7vmU8OsafjNfOLoQQQojSjSSdEEIIUUaZNGlS9OY+mJ133tm2uv7666+RtYUQuQYy7uGHHzYbb7yxfd/Wrl3bTJ8+PbJUCCGEEGUNSTohhBCijLJw4UI7icTVV19tzjnnHDvo/BZbbBEVdRUqVDBNmjSJO4adECK7UO1KeyvvV9pdH3/88cgSIYQQQpRFJOmEEEKIMkrev/Fm7dq1dmy6FStWWGn30ksvmQMPPNCOS8eN//bbb28+/PDDyCOEELkCE7q0aNEiKtVr1qxpW1+FEEIIUXaRpBNCCCHKEevWrTO9e/c2++23X/Tmv2nTpmb16tWRNYQQuQAzNZ9yyin2PUq76wMPPGDFuxBCCCHKLpJ0QgghRCnn77//NuPGjbOtcWPHjjV//vlnZEk4f/31l7nkkkuiko4/L1iwILJUCJFtkHFdu3a1E0XwHq1Ro4adoVkIIYQQZRtJOiGEEKKUQwscFTdbb7212WeffczAgQMjS8Khje62226LSrr69eub+fPnR5YKIbIN78cGDRpE36NXXnmllfFCCCGEKNtI0gkhhBClnHnz5pmTTjopekPfsWPHyJJwuNm/7LLLouszeQTj1gkhcoOPP/7Y7Lbbbvb9yYQRTzzxRGSJEEIIIcoyknRCCCFEKYf2Vb/qhsq4H3/8MbJ0Q/r162eqV68eXZ8ZYIUQuUOnTp3Mpptuat+fVMf26dMnskQIIYQQZRlJOiGEEKKUk/dvuZ0FcvPNN7c39fy87777bMscE0L8+++/tsV12bJlZsSIEaZWrVrR2V2RdSNHjoxsSQiRbZYvX27uvPPOqEQ/7bTTzE8//RRZKoQQQoiyjCSdEEIIUQaYMWOG+d///he9sd9qq61MzZo1zS233GKeeeYZ2y53wQUXmD333DO6Dm10rVu3NmvXro1sRQiRbebOnWvq1asXfZ/edNNNVsQLIYQQouwjSSeEEEKUEd566y1TpUqV6M29C21zbpZIl2233dbceOONdjw7IUTuMGTIELPrrrva9ynv2/bt20eWCCGEEKKsI0knhBBClBFoaR08eLA59dRT7UyvVMo5KUd7K22w/P6EE04wPXv2tGPZCSFyi/fff9/ssMMOplKlSuboo482w4cPjywRQgghRFlHkk4IIYQoYyDfGGeuZcuW5uabb7btcg899JB55ZVXzGeffWYWLVpk1q9fH1lbCJFLrFmzxixevNgsWbLELF261I4pKYQQQojygSSdEEIIUUahsm7VqlU2jDu3bt26yBIhhBBCCCFEriFJJ4QQQgghhBBCCCFElpGkE0IIIYQQQgghhBAiy0jSCSGEEEIIIYQQQgiRZSTphBBCCCGEEEIIIYTIMpJ0QgghhBBCCCGEEEJkGUk6IYQQQgghhBBCCCGyjCSdEEIIIYQQQgghhBBZRpJOCCGEEEIIIYQQQogsI0knhBBCCCGEEEIIIUSWkaQTQgghhBBCCCGEECLLSNIJIYQQQgghhBBCCJFlJOmEEEIIIYQQQgghhMgyknRCCCGEEEIIIYQQQmQZSTohhBBCCCGEEEIIIbKMJJ0QQgghhBBCCCGEEFlGkk4IIYQQQgghhBBCiCwjSSeEEEIIIYQQQgghRJaRpBNCCCGEEEIIIYQQIstI0gkhhBBCCCGEEEIIkWUk6YQQQgghhBBCCCGEyDKSdEIIIYQQQgghhBBCZBlJOiGEEEIIIYQQQgghsowknRAiJ1m/fr1ZtWqVWb58uVmxYkU0K1euTCo8NpmsXr06paxZsyaprF27Nun8888/Sefff/9NKuvWrUs6HOtkk/dvRlIRQgghhBBCCJEaefdSknRCiNxj/vz5pmHDhubUU08155xzjjn33HNtzjvvPHP++efbXHjhheaiiy4y9evXNw0aNLC5+OKLzSWXXGIuvfRSc9lll5nLL7/cXHHFFeaqq66K5uqrrzbXXHONufbaa831119vc8MNN9jceOON5qabbjK33HKLza233mpuu+02m9tvv900atTIpnHjxubOO+80TZo0sbnrrrts7r77bnPvvfeapk2bmvvuu8/m/vvvNw888IB58MEHzUMPPWQefvhh06xZM9O8eXObRx55xDz66KPmscceM48//rhp0aKFeeKJJ2yefPJJ07JlS5unn37atGrVyrRu3dqmbdu25plnnjHPPvusadeunU379u1Nhw4dTMeOHc1zzz1nnn/+edOpUyfzwgsvmBdffNGmc+fOpkuXLuall14yXbt2NS+//LJ55ZVXbLp162ZeffVV0717d/Paa6+Z119/3fTo0cO88cYbNm+++aZ56623zNtvv23eeecd06tXr2jeffdd895775kPPvjAfPjhh6Z3796mT58+0Xz00UemX79+pn///mbAgAHm448/thk4cKAZNGiQGTx4sPnkk0/MkCFDzNChQ22GDRtmPv30UzN8+HAzYsQIM3LkSDNq1Cjz2Wefmc8//9xm9OjRZsyYMeaLL74wY8eONV9++aX56quvzNdff23GjRtnM378eDNhwgQzceJEm0mTJpnJkyebKVOmmKlTp5pp06aZ6dOn28yYMcPMnDnTzJo1y8yePdvMmTPHzJ071+bbb7813333nZk3b575/vvvzQ8//GB+/PFH89NPP9lw3f78889mwYIF5pdffjELFy40v/76q82iRYui+eOPP8zixYvNkiVLzJ9//hnNX3/9lVT+/vvvpLN06dKks2zZsqSCPE82vmQvLGHCPVHCxHswYbI9XsKEe6KESfdgwmR7ooRJ93gJk+7xEibdw+LL9sIihBBCCCEyS97/sSTphBC5B5Lk0EMPNf/3f/+XUjbaaKNCs/HGGxeaTTbZJOlsuummSWWzzTZLKptvvnlSqVChQlLZYostksqWW26ZdLbaaqtCU7FixaSy9dZbJ51tttmm0Gy77bZJZbvttks622+/fVKpVKlSUtlhhx1Cs9NOO9lUrlzZ7LLLLtHstttuZvfddzd77LGH2XPPPc1ee+1l9t57b7PPPvvY7LvvvqZKlSqmatWqplq1aqZ69eo2++23nznggAPMgQceaHPQQQeZgw8+2BxyyCH2/XXYYYeZGjVq2Bx++OHmiCOOMEceeaQ56qijzNFHH22OOeYYm5o1a5pjjz3WHHfcceaEE04wtWrVsjnxxBNtTjrpJPO///3P1KlTx5x88snmlFNOiea0004zp59+ujnjjDNM3bp1zZlnnmlTr149c9ZZZ5mzzz7binjiS/gLLrjAinjiRLyT8C5hIt5JeF/EByX8zTffvIGEJ3wx4ET8HXfcYUW8k/FOwt9zzz02yHhfxDsJHxTxQQnvi3gk/FNPPRUj4p2Eb9OmzQYi3kl4FyfiSZiID5PxTsQj4V18Ee8kPOnZs2dUxiPhfRHvZHxQxDsZj4gPynhEvAtC3gUx7+IEvZP0Lsh6F6S9C/LeCXw/yHwXpL6Lk/t+EP0uCH8XxL8LXwC48EWAC18IuC8F/PhfEPj55ptvbPjSwMV9eeC+QHDhiwQXvlBw4YsFF75gcHFfNLgvG1z499SFLx9c+BIiGL6U8ON/QeHCFxUufGHhwhcXLnyB4cIXGS7uCw33pYYLX2648CWHC192uPClh4v78uO3336Lifsi5Pfff48JX4y48AWJC1+UBBPvi5N4X37E+wIj3S8hwr5siJewLxviJeyLhngJ+8IhLGFfNMRL2BcN8RL2RUNYwr5oiBf/C4bCIoQQ2STvc0iSTgiRe3AzgUgIE3GKoiiZyEaJslFBNo4bpH9BNomXTRD/sdk0XjZF/Odns7jZND+bFWTzRNl8s2gqxA3iPz9bJAzivyBbxsuWiP/YbBVIxa22jGbriltFs83WFQuyDXJ+a7Pttgj4/GxHtkO0b2u23x6Jnp9KlRDl+dlhB2R4fnbccYdodtppx2gqV0aI52fnypXzs3Nls8vOO+dnl53NrpHstusuXnY1u++Wnz123y0me+6xu81ee+4Rzd577RnNPnvvFc2+++wdTZV994mmapV9o6lWtUpBqlU11atXM/vvny/ffQHvi3gn48PCv6tO0vtB2Ls4ce/kvQsS3wWZ74LUd0HuuzjJ70S/C8LfBfFPjj/++JjwZYD/hUDYFwMutWvXjoYvC1z40sCFLw9c/C8RqNYPhi8WXPiCwYUvGvzwpYOL/+WDi/8FhN8J4H8B4XcDhHUCkCuvvDK0E+C6665L+ksIOgHclxDBLyDclxDuy4dgN0BYJ0C8LyH8TgDivoQIdgKEfQlB3BcQyXQDuC8fgt0ArhMg2A3gOgGI+wIi+CXE+++/H/0Cwv8Som/fvht0A7gvIYLdACSZbgD3pQFfDvhfBvhfAPiy38l9X+b70t4X9U7IO/meqBuAhHUDkKAQdwLcyW7kNVJVCJFZJOmEEDkJ/7ngRmLzzTY2W22xad5Nn6KUt2xSkArpZYtA+B2iZtPNKqScTdLNpsFsnrFsnG42CWazImejomTjYDbNaP4v3WzkZ5McTXA/Iwl7PUnGP27+cUw/Yec4L2HXQoJwndnX/H/h0lkp3Qmr/A9m45DK/7CEVf3HS1jlfzBhVf9hCav6j5ewyv+whFX+hyWs6j9ewqr/wxJW/R9MWNV/vIRV/4clrPo/LGGV/2EJq/wPS1jlf1hc9T+SHlEohMgsknRCiJxkxoyZpvp+B5rbL6tm3mx7iun6RG1FUYqY7k8dbx66/xpz4a1Pm3Nufsacd0sbRVGSyc2ZybkxaZ1SLmr0nDm23vVm8y0qhkoeRVGUkgzDb1DdJ4TILJJ0QoicgrF8aBt46aWuZudd9jBdWxxvFnx2lZk56FIzc+DFZsbABoqipJnvBp9n3n37CXP3c0NNo/afm8btR5qG7UYoipLDaZQX3qtNXxpvzr2ljdl8y21Cb5gVRVFKMoyDy5iZQojMIkknhMgpGNOFlgDaDDbaaGNbRbfg86vM7E8uN3OHXmPmDrsuL9cqipJGfhx+hfng3dbmnuc/tZLunk6jzX2dxyiKkuO5+/nPzb1dxpsLG7YzO1TebYP2vbD2v3gJaymMl7A2xbCEtT7GS1g7ZbyEtWeGZeOQls94CWsjjZcwMaEoSn6YwIqx8YQQmUWSTgiRUzAwtP8fgDfanmzmj7rCfDfiNrNqQT+zbulXZt2fYxRFSSPrV4wxI774zNzbaaS5sdVQ8+7IH823v/1rps5foyhKDmb6grVm4vcrzUv9Zpqb2owwj7w42Lz2xjvm7bfetAPhEwbGZ4B8N1g+A+czgy+D6DOYPgPrM8g+YbZfBt1n8H0G4WdAfgbmd7MEM1g/A/czkzBhMH8G9icM9M+A/wz8zyQAhAkBmBiACQKYrZiJA1yYTIAwsQATDDDRABMOMPmAmwmZCQmYmIAZkpmkgAkLmLjAzaLMjMpMasDkBkx0wKQHjRs3tmESBCZDYGIEJkkgTJhAmDyBiRSYUIHJFZhkgTDhAhMvMAEDEzEwKQOzQxMmaWDCBiZuYAIHJnJgQgcmdmCCB8JkD0z8wAQQTATBhBBucggmimDGaiaNcBNJEH+CCX/iCX9SCn+yCn8SCzfBhT/xBfEnxfAny/An0XDxJ9lwE28QNxkHcRN1EH8CDzexB/En/HCTgPiTgxA3aYg/mYg/yYg/+Yg/KYk/WYk/iYk/uYmb9IS4iVDcRCku/iQqbnIVP/vvv380zH7u4mZEJ8yQ7kKlmAszqLswo7qLm2WdIK0IM7D7oS2UMEO7H2ZtJ8zg7rLrrrtG48/yvvPOO0fDDPAublZ4suOOO8bEnz2eBMeWc2PRBcewc2Pe+ePk+WPrufH4OBdMWiGEyCySdEKInIL/ZIZKupG3m7WLhhmzeroxKyYpipJO/plsPvvqKyvpbnh6qOk7ZoFZuMyYeb//pyhKDuaHxcbMXviv6TZwjrnmyU9M5z5TzNLla8x/69eb9Ulk3bp1SYdZGgvLP//8k3TWrl2bVNasWZNUVq9enVRWrVqVVFauXJlUVqxYkVSWL18ek2XLlkWzdOnSaP7+++9omB2T/Pnnn6FZsmSJDTNp+mF2TRdm23Rh9k0XZuN0cTN0EmbsdPnll19s3GyeLszwSZjt04+bBfTHH3+Mxs0QSpgx1IUZRF2YUdSFGUZd3KyjZM6cOdG4WUmZRMwPs5aSGTNmhMbNbspMp37cDKiEiQ5caNV0cTOmEmZQdWHMNRdmWCXMturHzcLKkC1+mKGVuBlbCTO4urhZXcmYMWOiYcZXF2aAdXGzwhJmiXVh1ljCDLJ+mFXWDzPN+mH2WeJmo3UZMmRING7GWsIMti7MbMtzc00LITKLJJ0QIqdIJOnW/PaJMSunGLPsG0VR0smaCWbUl2Ojkq736Lwbsb+MmfvbOkVRcjDf/b7ezFiw1rzy8Wwr6br0nWpWrPo38i+mEEIIIcoaknRCiJxCkk5RijGSdIpSqhKUdFTSLVuxNvIvphBCCCHKGpJ0QoicQpJOUYoxknSKUqoiSSeEEEKULyTphBA5hSSdohRjJOkUpVRFkk4IIYQoX0jSCSFyCkk6RSnGSNIpSqmKJJ0QQghRvpCkE0LkFJJ0ilKMkaRTlFIVSTohhBCifCFJJ4TIKSTpFKUYI0mnKKUqknRCCCFE+UKSTgiRU0jSKUoxRpJOUUpVJOmEEEKI8oUknRAip5CkU5RijCSdopSqSNIJIYQQ5QtJujTIO2Zm0qRJ5qOPPrKZPXu2Wb9+fWRp4axevdp8/vnnpm/fvmbIkCH276JswLlcsmSJWbx4sVm2bFlK10Um+eeff8zSpUvNX3/9ZVasWJG1/UgHSTpFKcZI0ilKqYoknRBCCFG+kKRLA4TH7bffbipWrGjTtm1b8++//0aWFs7cuXNNzZo17WMPPPBA89tvv0WWJM+aNWusCPr999/NH3/8UaxxzxHvNXI8EEFIoWSzatUqKzvXrl1rZVbYOqmGbfmw/SlTppjPPvvM/P3335HfFsDydevW2dfFz0RhHVKY7HrvvfdMtWrVzA477GBuvvlme9yywcCBA+01tvPOO5vLLrvMzJ8/P7Ik95GkU5RijCSdopSqSNIJIYQQ5QtJukJA5CBmXPg7Mujqq6+OSoQWLVpEpZO/brxMmzbN7L///vaxu+22m/n5559DH8vv4jFy5Ehz7rnnmhNPPNGcfPLJxZratWubU045xUyfPj3y7LEg6B555BFzxhlnmNNPP93+TBTWeeihh8yff/5pPv30U1O/fn27/bB1kw3bfP3112OqEseOHWtq1apldtppJ/P0009bkefz008/mVdeecW0b9/edOzYMWE6dOhgM3r06A1koM8bb7xhttlmG3tuL7nkErNo0aLIkgKSvU5IomsgEb169TI77rij3Y8DDjjAzJgxI7Ik95GkU5RijCSdopSqSNIJIYQQ5Yv/8si4pKPd77vvvjPff/+9lVfFAfKCCjSeB9mSSiVbstAq2KdPH9OjR49o3nzzTdO9e3crf5xEaNCggXn11VfNW2+9FbNuMAgc0rJlS7PLLrvYxyJSnnvuOdOzZ88N1v/iiy9s22IY7777rq3Ec/tQEkF6hYH8OvPMM0MfEy+HHnqolZMcs0y9jhtuuMGKP8e1114bXbb55pubpk2b2ud0jBgxwlSpUsVUqFDBbLbZZmaTTTYJzaabbmrXIcjI5cuX28ezLaoif/nlF1ttB7weJ8euuOIKW4UYhPPKdeRfE8G4a2DOnDlpiToq+nbddVe7H1RrStIpimIjSacopSqSdEIIIUT5IuOSbuXKleaOO+4wNWrUMHXr1o1bfVVUkHJUQB111FG22uvLL7+MLMkc48ePt62LSBokjp+NN944KhH4c3B5orA9X0KEbZ80bNjQtoKG0b9/f7PHHnuYrbbaKukgmfzn3WKLLULXCwsi7euvv448eyxU0lE1xjrxHkt12UYbbRR9bs4bcuvDDz80u+++u9lyyy1j4h6LXPP3mdfA74PrE1qQEauOb775xlbouXPFY2lBde3FVPHRDsoy9o1jzvP554C/++frgQcesNc4XHPNNVaAXXzxxWbevHn2d8lIukaNGtljwj4Hn4+wn+41vfzyy2kJaF/SHXTQQZJ0iqLkR5JOUUpVJOmEEEKI8kVGJR3teVQIucqos88+O63x1pJl6NChMUKEMdoyyYQJE8whhxxiX892220XE2SKkwj8edttt91gnXjZeuuto+IIOYTA8pe7vyOEEGBhIIpoeR00aJD55JNPCg0TVLzwwgtRKUUlH0KJarKw9f0MHjzY/vQFmA+VXt9++61tBR0zZoytuOPPjAVH+B0VibT28txUp7Vp08a2pvI6Ro0aFfo62OfHH3/cHgset+eee1pphVwLrss+0kYcrDxkLDZkmhOUPDfyE0HI8XP7dN1119nj8f7770dDtSKyq3Xr1rZllvVo03WS7phjjrG/q169upk6dar9XTKSjoo/lhPOPxLQxb+uSKdOndKSdOy/L+lmzZoVWZL7SNIpSjFGkk5RSlUk6YQQQojyRUYlHaLm2GOPtTfWVAF9/PHHabXqJQutjYzLxvMhYTp37pzRtleq2BBOw4cPtzKLIJ2QRH57J9Jl2LBhVkY5MRUWZnRFXtHOuO+++9rHVq5c2XzwwQf2se453PP98MMPVnxmCqTjPvvsY5+3atWqZsGCBZElmYPj7ySWD7KNCjieG7mVrDTiWDEJA487+uijzY8//hhZkjyMC0f1GpWDbIdrhbHoEHuIP36HDGOsOa5XXgOyz40Jx0y+HC/W8yUdEzPwu/322y8lSXfTTTdFqwqp/uM18jgE99tvv22rEp1UfPHFF1VJJ0mnKJmLJJ2ilKpI0gkhhBDli4xJOkQCg/O7SiBEgxu7qzihAqtSpUr2ORnnjGqq4obxx66//vqoREh14ghagKnQ47F77723WbhwYWTLxUtxSzpaPt0EElTBORCUtIXyvFQJUuXFsUqGZs2aRYXVLbfckvYYh4ybR6sr8pjrhHHhEKG02rJtBC/nhmpMxhxs165dtFWbn2GSzglpJgFJVdKxnKo+xiL0rw2OC5V7rhqV/WKf2FeqET/66KOE6devnxkwYIC57777zPbbb2+3gYhEQvJeYR1apf2x+XINSTpFKcZI0ilKqYoknRBCCFG+yJikY7wyhBM31VQ+IQpKAoTJ5Zdfbp+XFtL777+/2CarcCDpqJ5z1VDMfsr4eF26dLEtpYlCZVTz5s2jVU4lKekYo82XdJkWNY899lhULiGuEEtUzDEDLb8j99xzzwazrCKmELpURvpBcDEph3vsk08+adung+vRhhtvgg0fpCRttlQ0IsSoWHTngfPC7yZOnGiPDWLwqaeeMmvWrLFVaMUl6WipDdK2bdvocXzppZesXGWMRyoBkw1j3bnrk5+8Hn85IpLXm4tI0ilKMUaSTlFKVSTphBBCiPJFRiTd33//ba688sroTXWdOnVKTDwBFUJuzDAqtZAvxQlVg1TSIVnca0YQphL3OCQd46OVBMUt6ag4O/3006OvjedALrmJF5jgY+bMmZG1C/jjjz/MhRdeaOUuoTKSUAnmT9pAuyy/c8sJ61MNR3VYMvgyj7bloKRjshA3Th1VfIybV5yS7p133on8tgBEoi/pOG88B3/PVNium5E215CkU5RijCSdopSqSNIJIYQQ5YuMSDrGU2OmUW6oqeBBAKQyjhaygPHAECJULrnxwJLl119/tdVs7qb+oosusuKnuAhKOlp8aaN0M5IWFiqZnKgrS5IOEFrM6uvOhQvtvbSYhsHkDk54pROOJWOwBeF6mjNnTtzJN8IkHcfIjVNH6262JR3VmRwf2m/vvfde8+CDDyYM+/fwww+bWrVqRQUnIpPnRDoyGQnVpsyGrEo6RSmHkaRTlFIVSTohhBCifFFkSYdcu/POO6PCqkqVKkmNdYaIY2KEgQMH2jZQxAHi64477rBj273++utWJCA5CpMJSDNaE93YZUiWeEIoEzhJ5yRC48aNrdxB5iBr4oXx8qg2Y1ywatWq2ceWNUkHtLj6FXXIImRT3rUWWSMWJBRSiXWRvEwsQTUm4hVhw58Jf+Z3LsxQy2OQnky+4UNLLS3Ie+21lxVTTB4RpDRIOvaL9wpBYPN+SyZMQuGOD+MBTp482f6ebZBcraIDSTpFKcZI0ilKqYoknRBCCFG+KLKkQ7A4qYGMoZoHGZAIxEXLli2t5KB9EbnmKsvcdqhMozqPFknG7fLbFMNAkriWVx7/zDPPFLof6RKUdE888YQVN0ge5Ee8sJwg65hxk8eWRUkHjO3GbKzuvNIOHSbKgGvohBNOsOvRusr4hrRQM/4cVZIcH8Kf+R3bITfeeKPdPpWMQUnXo0ePqIDjWqIKLVhdmQuSLmxMOq5dX9Jx7aTKhx9+GG3bPfjgg83s2bMjS3IfSTpFKcZI0ilKqYoknRBCCFG+KJKkozKK2SmpZOJmGrFAlVgimKmyYcOGVpz4N+IMbo9ccxV5fhBLzAiKRIkHk0UghdxjqORiQoHiwEk6NzD/SSedZJo2bWrbDIPth34QPOSqq66KSpiSlHRTpkwx++67r31eKvniSbNUoXJu1KhRZuTIkfYns7kyOQOz3jJuHM/Hub3rrrvMsGHD7DLWRcbRioosdJV0VL4h7RwIzTfeeMO88sordv99OOZsN0zSUc158cUXR68n1mnSpIkVfY5ckHSsz/XkB4FNWzTrsF/8LlVo/3WvDSHMaygtSNIpSjFGkk5RSlUk6YQQQojyRZEkHWLsuuuui8oqZBqSIx7Iho4dO0YFBKG9EdnBrJ8sQ1BcdtllZuedd46uQ/bbb78YeROEaiOqpZAxrE+FHq2lxQGvwx+TjtdPRRd/52dhcceLpCrpaONEdKaSJUuW2CClnIBC1iGWmB017DGJwkysCFoH54vjTdzkD1Q1Iqt86cqfkXZuGW2t7APizJd033//fWTL+VVlbA8RTFsxFXYOrpl4kg6Qf5wnrjG2zTZoi162bJldnk1J564B1mG8uQ4dOtj2XH5yXNzyoKTjuSdNmmTPZyIk6RRFCY0knaKUqkjSCSGEEOWLIkk6pNlxxx0XvZlGLvz444+RpRtCq6J/A7711lvbCjN+zzhZyAjaWhERo0ePNkceeWRUViBiCpvBk2o7ZndlfeRNqhNYJIuTdAg3ngsZcvjhh9v9PeKIIwoN0sSNn5eKpKN999prr7XSyp/hNNlwbDaO7DM/t9tuu9D1CkuDBg2iVXjIulNOOcVuM144hwg6X04SXjvCKZGkQ9o6yYYQRio6CpN0wPq33HJLdBus27lzZ3sOqebLhqS7+eabY84Dr8EPv3dhv1y7K/vBdUdLcGGzs0rSKYoSGkk6RSlVkaQTQgghyhdFknTjx4+PjnFGzjnnnJhKpyAzZ840BxxwQHT9evXqmYULF0aWbgiiAZHEukgexn5D5sUDweLvzwUXXFBsLa833HBD9Hlou/z222/ta0FcxguVXbRhjhgxwlYG8lhEVbJtp0i6c889N/q82QpCktfjeP75520Lc6NGjezEH1S81axZM1pFh5i89dZbbbsp58S1OvN7hByvP56ka9WqVbTykjHoUpV0gARFLLINcs0119iKQNpu3bht2ZJ0BHkZjFvm9guefPLJ6LHjOZkMIh6SdIqihEaSTlFKVSTphBBCiPJFkSQdsomqLm6kETIIGqRGPBAZ3IAjQZBUzPjpBEQY48aNs5NHsH2kBu2stNjGY86cOeawww6L3twjUYoyOQLCEYHkh8kHkD6XXnpp9HmYPRT5xvrB1lA/tCgimcaOHRuVlbT1MtZavOfyJ8zgzxxjjh1jyvEzlSAEXaUWIoiWV2RP2LphqV69un3eiy66KEauIg85734Qqk4oITF53QjWbt26RcUrFW60nlJJ6SaOKA5JB999950dpxAxjLDiuhs+fHhWKun8dtfzzjvPNGvWzD4XefTRR+1Mtu48+ZV0SHEmgeD3BNnHdRKGJJ2iKKGRpFOUUhVJOiGEEKJ8USRJN2DAANuyyo00ouTxxx9POKMqcoOJAJANtDnGq7pDSiDjXn31VbPtttva7SMBkT2JJB1yh5Zbd3NPpRZyJh1oh0Q0IUyYGAJxQPh77dq1Y8bMQ+qwDsvceonCPjrxhHykZZhZbP112B4yzMkfyDtX5ocffrAVVKkECUjeeeedaOUYPz/55BNb3Rj2mESZO3duoTPntm7dOirpmFDDyUZEmxNUb7/9tv0d0rO4JR1w7JCpjlyYOOLNN9+0x9LP008/HTO7q2vZZv+QeO54IDvjvW5JOkVRQiNJpyilKpJ0QgghRPkibUmHMEJIOGHAmF+0PaYyBhwChCoqpM/EiRPtrKD9+vWz421RZcUEA07oJCPpkD0nnnhi9Ob+wAMPTHvyCKQSs4O6bWUjlStXtmPzZQqOsWsHRjolOxZeOiCanKRj3EHOG1WNtMHyOwSTOzf8viQkXZAwSUeVo6veRIgVt6R79913I78tgMkywiQdUDl36qmn2mXktNNOizleDkk6RVFCI0mnKKUqknRCCCFE+SJtSUe123PPPWdnzORGmp9UBSE6CoNqoS+++MLKCqRajRo1bBslUgqxg3Txb9JJMpKO9lB/EgPECpVR6YCkY/+YsRSh5MLfmTzBTURAqIaj4i+4jpvgIbgNJ68IEpLHsq6/DqESkIrDTDFhwoQYSedXlWUaX9I5sdWrV6/oxB4cW1dJyfh28SQdraBukg3aO4si6bg+aNPlGkIyh0k6JDHXIb/jNXCtFqeko7oxSJs2beJKOvj4449t6zLLufaYHTY4VqMknaIooZGkU5RSFUk6IYQQonyRtqRDYtHe6mQVQqZ3796RpfGhvRLRQbulP3h+MEg/WkoRGfw9GUmH9DnzzDOj26BtkcqodFm+fLkdR86FSSjIl19+adtR3fNcddVVtq3WrYeYQQ4igQgz3vrb+fDDD6MtlQi6rl272opC9h8J5dbj74lm8EwV9smXdEUZr68wfElHu+uKFStMixYtrMDiNffp0yeyZnxJh0hjNlt+Tzj/jGHnSFXSMaYhr59JLjgnjKno2n+Z8RVJRxWna7GmMpTfUfGXS5KO52emW1dlyniBCFgfSTpFUUIjSacopSqSdEIIIYD70kSTaBYG9+MMXYXLIBQD8btMwL5xf809Z7whzcLg9XCvPXv2bFtAhGtxw2SVZ4ok6ZAuTtIh1RhjjBMUD2ZAZfD+YKUcMofKMdpTGUgfqUPVVffu3aOiAaFXmKRDbLF9t92iVNLFAxnDDKvuddN6yIQVPuzjbbfdZuXNoYceasfg86E6i5k6nYihipDx9/h9cZItSUe7Kx8ACKvBgwdb+fXTTz9F1owv6ZBRjMvH7wnj3NF+6khF0tHai6xiO1xTtFaPHDnS7L777vZ3TtIxDp07tz169LCPZRzFXJJ0wP67c0l4jP/ekKRTFCU0knSKUqoiSSeEECULhSIUynAPVhJJpiiHe2BcC11mYfeXycA9LWPrc//LfSLj4iPtMsHSpUvN9ddfb30OQ4ZRvEXxEccyEUwUii9hckSGxcKzjBo1KrK0/JK2pONi6tChQ7TdlZbETp062QstDH7PRYVUcTfftHhec801tsWQQf2xrsgcZBUnlJOGtGHdZCQd43UxeYPbPnIi3THpgtAqiTg85JBDottH0oRJQF4HY4WxDtVOzCIahDcalV20w7Iex7FRo0Z23LiiGPJEZFPSUZXo4Frw37DxJB3H3Jeur7/+eowETkXSvfzyy9EKOT4AqHz8/PPPoyILScd+0VLrnm/o0KH2sQi4KlWq2N/xWopb0rVt27ZQScdx4Hpx7yeu9VmzZkWWStIpXpZP2DBh6+Va2M+VE41ZNSnvAzPvPxB++B3LSstryaVI0hVLvl20Pq3MJSHbK8mE7VcyCduWkvlI0gkhRMmyePFie9/Zvn176zuKK2yfcB9bWLcg94QMG8V97yWXXLJBkVAyUDnn7mkJsi5YTJQu3Au7Ya3wH0wueuutt8YU2ATB+VBo4vaHMCcBE16Wd9KWdEiC1157LTqoPxcMlXXxqsEoXXSVTASBgxhJVA7JpAluFtVkJJ0/AQE5/PDD057d1cHz0RZ54YUX2rHl3LarV69uXnnlFSs/aOFFBhJEyZgxY8zxxx8f3W9aKP31+DNvLF7fHXfcEZVHrIt9fvDBB+1kGsg6X2YVlVyRdEGCkg5hC/PmzYvO1subnbJcn2QlHeeQDzO2Qx577DH7gYGld9cXH3zYfle5xzbdBwTfMBSXpAubOCIZSQe0uCKN2Vf2m+PokKRTolkxIS8TIz8jf85lucX+rZxk9/Hfv742q3//wqz4bbRZvvBzsywvy38dbVbl/e7fP7+OiLy8dXlM2LaUDSNJVyxBWn33+3/m2yTDumTeH8Z8v9jYP4dttySSyr77+z0vb7/5KWFXvJGkE0KIkoV7djwCRUglkbPPPtuKwTBwK/5wTIT7YgqTvv467//CKUAxEA7DbYf7boqiigrOgo43t11CZ5rrVIsHBTn16tWLeRz3gZlqwS3NpC3pgAHs3QWDcEA4xbOliA5aWt0JOProo217aiJoN8TCuu0XJumQOmzXPQcSJV0RxfPw+q688spotRtBnlCGefXVV1sJwmvCGrtwPNhnv2IQWeWW+eux3csuu8w8++yzMfvNa+VNc/fdd9vjlujiToVclXS0vjoZt8suu0Qr6agyc5M4HHDAATEtstCkSRO7jCCl4oEQ5YOW9fggZNIS4IPt5JNPth9WyDI+kI866ii7Huu750N+MTYe4pWKPFfp6GaqZUy4dCQdUpbJV3i99PAjJ3muu+66K1qhmkjS8aHdvHlzKx15vH+dSNIpNisnme+n9TdffPpaXl63GT/qTfPXzyNzT9SxP6smmfV/jzMLZg82o4e8ajq0vtfceO35pt7ptUytYw8zxx5zqDm1Tk1zzeVnm3Yt7zbD+nUxP88caB9jq+tyWT7mSiTpMhoE1cwFa8yQL2aZXv0+M+8PHJNERpsPP/nS9B8x0YwY952Z+O2fedtab6VXSVbWuX0f9uXspPf9w8FjTb/hE83QsbPMV9MXmpk/rzbf5f0zh6wLew6l6JGkE0KIkoWiGl9mFXeY+DKepGOIsW7dukXvL/3gDyj6cTDGPZ1ggwYNskNMuXzyySf299xXuvHYCffZDEM1ZMgQu47/GDJw4EBb1FKYi2AsOb9QilBIQpdjIrg/pUDJPQZ30KpVq8jS8k2RJB2Sw80ySerXrx9XxrCub4DPOuushMLt119/tQLFDY6PuLrvvvsSPoYT7VfrYZjT7dlmDDP6o922CJM9cCEjt6gaZJ/85emE48A+MlgiExr41XqIPp4vXnViquSqpOONXbduXSstOeb8nQ8DWl3d+b/zzjvthxfVdFQZAm9ipB4yig+ReCB7aa1mO3xTwQcYYOkZJ5HqRyakeP/996NSkOej+hMhx75Q8cl58s1+USQdgo51qNDjA9YFWUmZL8tIIkkH9P+HiXFJOgVhtX75N+aGq88zlbbfxuy+W2Wz2647mWpV9zQfvvVMfvVZrlSg2Yq4ibZC7o2XW5hTah9jdq5cyVSosHn0veJn47zPhQqbb2522mF7c9wxh5hXX3zELFv4mTGrJkvUFRZJuozmhyV5/7+Z8Zu5+MobzTbbbmd22W2PJLK72X3Pvc2+VfczBx5yuDnznPqm8+u9zYyfV5VoZRr7/s2cxeaqGxslve+77bGX2afKfmb/gw41J5x0imly/+NmwMjJZs7Cf62sU1Vd5iNJJ4QQJUvQKRR3uOeNJ+mA+8+ePXtGhwHz40Qd96vcy+ISKBgKC/fm/v+ruc/md2HruiDRCnMRFMC4cd4J22zZsmXCjkCWcb/quscIHW7IRF5LYUm07bJAkSQdraSuQolQaRRP/CxcuNAKFbfuvvvuG1qiiS1GWDHwoC/BuKCoLEskLBj7zW+PLUzqJYLnYXIHqt6QLghI3gDu+XmjMMkFbypmlHWhZJPJJJyo4eJHvPB7fz2kFGGiAid++Nm/f39bqcfjEaCMm5apizBXJR1vNGSTm9EWOA5OmNFSTTsrlXW0ljKwJN8QcLxYnzbVeLPA8HvOkzsXL7zwQtx1b7jhBrsOYcZdvlHgmuMchIFU5VsDxlWkihOSkXSMexcmHsJSmKSLhySdYtZMsdVo+1cv+CLF5b47r7Hto3Z8t7DHlmQiFXTzpn5krr3ynLzPjQob7G9h2XKLCqbhLZeY+bMG5r8mibr4kaTLaH7405ixUxeYU+ueG3ptJhP7n+StKpprbrrDjJ32i5VnYc+V6fA842b9bs6+4NLQ/Uomm222udmn6n6m2RPtzVczfrPVgBJ1mY0knRBClCx4Cwo2uM8/44wzovftfri3pwLOr0wj+A6W+/f78cK2CffK3Asngvtl7n8PO+ywmOcjTADB2HIUpgSXFTW8nkSSjvtUxtfzuwipQixsQgoKZOgo9J+Le38KoRhSjTCJaFioLERIso2ySpEkHXKEC8wdWMQPvc5hIMv8dflPKYLjo48+snKGqiVKS5966ilrhMMkBpV1tCQifILiigsXAePGyKMPmtLNokDrYbt27aysCbbmUmHFfnBx+OF3tEmyr+wHFyzCid+Hrc9xCb4W+rMRjohAjkumyFVJF4T2Tz6weCzhg2fs2LH2g9D9jgo0hFhhDBs2LPrhyYcMM7qGMWDAgOg3ABwjrsMjjzzSXof8ZFzCIAhCvvXgHLlZeVKVdFyvfOPhh+PG+4PlknSSdGkFSbV6sml+3w22Gs0/nuTwQ/czk8e+k/fBOTP88SWZNVPMzPEfmAvOqZP3vsi/7l0232wzs0Olbc1JJxxhrr3iXHNZ/TPM0UceZHbacXu7zF+XL3Vuv6mBWfhd3uf+P1PDn0uRpMtwnKQ7vd4F0WuRz+/NK1Sw4m3LLbeKyRZ5qbDFlmbTwPVLuIavveVOM37O7+b7EhB1TtKde9HlMfux6aab2X2sUGGLmPCa2G/375OfzTevYC658kbz2cQf7DEJez4lvUjSCSFEycK9OWOQI87ihXtbhhsKiqYLLrggujz4mHih8ASXkQyfffaZvTf1n5OOMQQd96E4EO4zwxL273fYen4orEok6eg+DO4P98AcP14T9/W8xuAMtnTH+UOhEZ6PIZ+4Fy4sVBWW5QkmiiTpONjMSMLA9RxYqs4QUvHo27dvtNLNhRJHfkdoh3UWlpNEG6E/Hhz/geVkMq0vJ9uH6qirrroqevEhcbDgRSUdQYJ4w56zH7weJpJIh2TfrMnCRAMlJeloReUNxHMlK+n4QEQmMcmDq6JkG3zgcB4YI9Cv3KQtlHZgZGcYXBOuOo71mXEX8RqEyk0nVQnXEaW2vhQ84ogjzKeffhp5RHyYGrswSedPHMHkIwhgP48++mjeDVF+NRHiOZ1rkG8XJOnKcVZONIt/HG7OrVc75li68J545YXm5j+qzrLZ8rp6ilk0b5i5osGZMf9x2GSTjc0hB1U1rVo0NnMm9jHLfhttVi36wqz8bYxZuvBz8+OMAablY43NQQfsm/e4gte16aabmBbNbjVrFo/NH6Mu7DnLeyTpMpowSbfTzruaex560rzdZ7jp9s7HXgaYLj36mHZd3rLL65x2ltl+h/x/L1y2r7SDeeaFN8z8vP/iFHdFWpikq5D3n2Nadzu+/LZp/Xz3aNrk5clnu5h7Hn7KXHTpNeawI2qaSoF93zjv37T6l11nvpxectWA5SGSdEIIkZtQsMH9nv9vIdKuuKEIBU/C83GvzDjtFI589dVX5rbbbrMFIfwM5vzzz48WNBE8DJNjsoyZWIPr33jjjXb883j3orgK5KC7bydUw1FsBLiHGjVqmNq1a9vJL5BqFDrhcXg+95h0QmELBUhllSJJOqCyzY335WZ4jddOiKhp1qzZBtY0GC4e2l0xrExG4YSFy0knnbRBhRlyo1q1anY5N3u0Iqbb6hoEe4wNTjaMqeYED5KOKq2w9eIl0VTFRYE3tGs55ljlkqTjGwQmb6A12N2s803Aww8/HG2BReIhPKmsYznhWuKac+v4MN4ccs2tS9ls0OIzqQRC1T0nsphvKFiPsmF/EEw+ZOK1vjrefPPN6PshnqTj2nbbpOItCCXDfPBw7XTp0iUtSUe7rtsPSbpymH+mmaEfvWiqVSkYu2KzzTa1X364v190/inmp5kf23VDt1HcWf6NWb9mqnn6sUZ5nxUFn/Hs4zVXnGMmffGO+eevcfntq6vzzjnjzZE1eX/O+90/f35lpn71rjnt5GNjXtdee+5iBvfulPfBPVVtr2GRpMtowiRd1eoHmrd6f2oWrsw7roi2aPIfM+fXf82sBWvNxO/+NK06djN775M/e7jL9bfeZWbMX5k/kUTg+TKZMEm39TbbmjbPdTe/LP/PzF74TyBr7UQTU35YZsZMmm+ee/kdc/hRx8W8/6i4a9q8td1+NmesLUuRpBNCiNyEMfQpAnH/BvLvIfd5xQ33xL169bL380g0uhuB+1c8Au4iLEg850sI4+0znlzYugSh5iZMDIOCKFqC3faQdRTIsB/cv1J44u6xqZCj4g4fwf00z+0el04o1kECllWKLOm4EJgB1R2wWrVqJRz4kPURE4zbRjUXIoEKPOQRRhhhgkxxEo6Tj8VlQgFm+EQ4NG7cODqOm4PKIQY3ZB+wwr1797YXcFFBODKrLOOaUb6KbS4sTAbhD/7PPvP4sHX9sH0MNzY8XYHGsUdOMV6gmy0UaTht2jRzyy23RIUnx5Py1EzBG9l9KPCTPn5XFRlP0rEe+0BbcoMGDaLnjyD4GjVqFFoNySQNHGO3LqKuY8eOGzwHggvZxTq8XjdrLNYfqUcbM+Mo+tuhss2XYnyIMEuwW4eWbdqyubZYjw9FwvVIRR9j2LljzPsiTNIxe6sbjDNM0jGLDuKR44aoDquo5MOPEmskI+Ph8WfONceL33E83Ycis+swOUZpQZKuiEFMrZ1qmtx+efQaoI208a2XmGOOOjh6XHfZZQcz5KMX8yVdUWQWj3WTUKxIYTtrp5hRg7uZgw+sGt2njfJy4bknm9kTe+fv18oEM7ay7J+p5qsRPezkEW4b5PGHbjGr/6CabnL4Y8tzJOkymniSjiq6X1cZ8+3v/8UEcUWYIOLHvMfOWfiPuf2uh/PeqwWi65wLLzVfz/wt6Wo0Ku7cdkmyFXjxJN0znXqYRatNzDbzkz+L6/d5/8UjP/653vQdOs7U+l/BDQo57IhjTO9PvjILlum6ykQk6YQQIjfh3osCE/fvHwUm99xzT2Rp8cI9N5MphnWU4QIQWC4MR8YYcQyl5csx/AsFJpMmTbLr+I+hSo1us0TFInSZ+c6D8fSRfsD2XHGQC0OaIQrpKnP3KIR7Z7rlKMQJC/frFN74XwpK0iVBv379ojIEQcbfE4F0QBxxQVAOiSxBhlACiWQKSgmECuIB0URFEGO2+QKOi5MWSXfSuACckCkq2ONgn3Vxh1bddC46jknr1q3t6+dC50PDXdwITr8ikYkwqD7MBMg2JBllq0zWgWR0bbXkiSee2KCqEcnUtm1b+6bz39yENzRj2nGe48GHkmspJlx/zz77bFTeck34co0x5tw3AchLxK9rByV8qFL9FyYTqaxzg3TygYJQRYrxYcd1h1RiX/gmwf8wQlSGVfhRfUrr94cffhjafsuxcd9g8Ocw+OaG/eC8HnXUUdFzTeUf++qXMrNvxVk1mWkk6YqYVZNti2hNT8gh574Y2t3ccHXs4PadnrnfrPt7XL7wCttWEvlv6XizPm8bhD+HrbNBlk8w/62YaB6461qzqVciX+OQ6mb0kG7G/Ds9b5+SEH6IwdWTTbOmN8T8w133tBPMt5P75m0nS1WCuRxJuowmUSXdL3n/HIU9JppF682vK4156tmueZ/ZBbOb0QY7Ytx35qcUzsucXwsq3qjUC1snmHiSru3zr9n9CnuMHyr9aMvt9Op7ZrfdC/7Tv1Hee7HRPc3zlq3XJBIZiCSdEELkJsgwfygmPAizmmYT7hG5l9pjjz2skGPsNhfuU10RDaHyjd/56xAex1jtFBmF3asCLasUTjnZxrauu+466wUoYKGizj0PoSirTZs25uWXX96gq5JhpyjCoXiH5wvmt99+sxN4Uo3nHoM/iDcXQlkgI5KOA+qP30UVTyYnPCgMTK8r3aTllnHK0mkRDANRctFFF4Ve6ImCSUZUEf4ctk4wbJ/noZ2XCzUdeO1ujMB4YZw/N85bJkDAIf3Cngv5xcysvlQF/k6vu78uoo1KNcpg47VM+yBt6XF3j6e6DnkGVKBRwciNO29if+IHZDAzxLrHceyRgmFCzUEfvZttlpZY5DKSmcE03Xb8IEQZny6sCs4RPCapwPFBxoY9tx8+zPgwzNS5Lgkk6YqQSBVd+6fvMdtuU3DT//B915u1S77Kby3dokDWX3zhaeZnZkRFioVtr7CsnmzGDn/dvPrio+aVTs3Np/27mGXMGluY9Fs1yfz67RBz5mkF7eTkqUca2jZW2+Ia9riw/DPNir3jjj4k7z9HTCO/pTnumEPNN5+/Zcz6GeGPKc+RpMtoiiTp8oIMo+W14tbbRB9/5rkN8rb5i620C3uMHyraRk+eb17o/p55ql1X0/b57ubjUZPzK/cKEWRFlXSECS5m/bLaXHfzndFtkGNr/c8MHj3N/JT3z2rY45TkI0knhBC5CUVE3G+6f/uQT9x3ZRru+1wBR1j8+2akll+IUpRQCBJW+ISEY3JNvwCI185cBQxfRdFOsAgHEcf48nR4+b/nvrqwAi9gP9xQWoTtFzaDbGkmI5IO2cAJce2KSA9KGUsCKo3od0YG8dz0hWOQMwWvjXZCxicbN25ciQSJFGznTZavv/7atg0jvAhvGMKfOS9UVSGPghNvFAWOEWMN8hy8eQjfJNDKTGtnvIo47DcVYOzf1VdfbScdSfXcMesrlWMnnniiLa91lWe8PkQaIpCJIJhx10FF3f3332+f99xzz7Uzvibqtwc+AGlBZVIIfrJ99pVZaPlmwIXJT/hgfPzxx6PjAxQXfHuBcHXn2A/HvmbNmnZ22ETyMReRpCtCVkw0Kxd9Ya64pF70+G1dcUvzbo/WVliN/fQ1c+D+BWKZseAG9+mU9yZOc5ZXM9vccdulVvyRC86uY76b8lHh0m/tVPP5J7S6FozFxYytH3/wXP5jU2m/zVt3zeIvzTej3zZDPnrBDOvf2XyR9zr/WjDKysDQx5TnSNJlNOlLuvVWcCHK7m3W0mzifbN9xXW3mak/LLMCLvyxBVmY9xyv9hpon5NJH5B9Dz/xrG1LpUU17DEumZB0hLberm9+ZHb1qumYVKJd5zfyx+ULeYySfCTphBCiZKCogW4s7vOSCZ2AfsEG92XdunULXTfZMD69D/fRdIQhvrh/9cPvCMM1ucfRPUXRj9unooR7STrQggwePDg69rkLhTH8jm6uYMEQDqJ79+72vtv/PVV9zD9Q2H040EUnSZcGXBiurJGTxHhaiI3ihhPGied5kUQffZR3g1iOoXKLKkZ/tlAXpBHtnImqu9KFDwTaQhFjVK0hvhgHLfhB48N+0MtOJWRhE0skAqmJSEUWBqHkln0ILmPsNtpNfXlXGHxIMnGFk14IQb6t4HW6cD0yDl1JXPv8I4IoDAv7ygd9vHbZXEaSrghZM8VMHN3T1Dg0f8Ynctgh+5kJn79tRdz65RNM/fMLqp7JA3dfZ5b/Nia16jUXM9vcfP2F0W2dccrxZu6kPoVLuvUzzIvtHjDbb1dQPXTCcTXMtK/ey3tjpVH9htQLJmw9RZIuwwmTdNX2O8j06jfK/J73zwAiLBgq5BBw3/6+zrz38RhzXK060cci2po/1cHM+yN/HLiw5/SDpHv5rX4xgqxp86dLVNJRLTdqwvfm1LoF//nedNPNzIOPtbWvVS2vRYsknRBClAy0VDJ00IEHHmi7rgoLHXN++ygOhGKNsHULC89JVR5jsvv3rRS10BnF88RLvXr17L0+MHQYTobuNH7vQscZcwf4QyKxXV6vvx6hqIfHM9Z62PjqjJ8erJSLF9phaYPFDfjj4RHGmWOs92TgPjso6dLtPCwNZEzSAdVmjJHFgdttt92KvU8Y63rvvfdGxyK6+OKLE45jJnKPMLFWUmTzuUV8JOmKkHUzzNOPNTYVtyr4R6z5/Tealb9/kS/h8pa/1PFhs+MOBWNBHHJQNTP+szfTaw01s81tNxa0utc7vVZkLLhCJF3e45o0LBAD5NYbLjKLfxxuRWPoYwoLYo6JKyTpEkeSLqMJk3T7Vt3PvPJ2/7zly82k7/4qyLy/Iz//MsO//tY8+vTz5sBDauT9HyZ/XEb+L3PameflLZubVKsrQdLxXHvslf9NPv9Zv//R1iUq6RCOzPh61Q2NotshDe96yI6P913e/+/DHqckF0k6IYQoGZh40nXnZStnn312zD0qXXZh6/mhk9BJOsCRMByVHwpXGA4qOLsrYpJlwfVJvKITxuKrUaNGzD4QxqUL/o5KQ4ao4jkYk861yNKdxpBYwP4WNjQTY7r7ko5hqNhuWSWjko5+aMb2chc3Frc4W+2ooNp///3tc1FNx0UshCjdSNKlmZUTzZ8/jzR1TioYq3CbbbYyn/bvbKvo7DqrJ5uZ4z8wNY8uGA9iqy23MD1ffSq/NZSJGILbTZQiSDq/JZcgF9cz8UQRJrFQkogkXUYTJun4T+o+Vaqbo4+tZQ4/+rhojjjmeHPwYUeZ3ffYy2y73fZmc28sF8IsqX2Hjjc/L03+fOSCpOO5mLjijqaPRLdDbrz9HjNzwRq7POxxSnKRpBNCiJIBaRQmmkoyVLz5ko7JJJFTyC0q3wjtpP7sqFS9UfFGsdJ3331nx2j3Q+cYXW8DBw6MmdyRoirGg6MzjHWCj6PVlW41tu3vk5sYgrZaqgAZT5/qu0MPPTRmvxgK6rnnnos8ytiJQy+44ALbFswEG3TSMVzV7bffbjp16mTFYDwQcrx2t20kHROKllUyKumAk8jEEVxMlG0yuH5xQBvfCy+8YFtcGQcsk5NFCCGyhyRdmvlnqnnrlSfMzpULxoi47OK65pe5ecfsn8gspysmmlV/jDVXXXZWzDG+/65rzHImfEi15TUdSUeV2/rpG7Tddnr2gfznT1UUKqlFki6jCZN06WSTTTY1De9+2Ez9cXl+K2ySLaK5IOl4Hvb33oefMhtvVDDLMpV1035aIUlXxEjSCSFEycCwWVR40RKaKIy9zk/3750Lgo/f82+x/3v+7j8uUegM9IXYokWL7ASGnTt3tj8J47ixLbd9qu+QaozTTwspM87y08+RRx5pOx79SkH2i4Kn4Loubjt0LlIJ52DIKmQgY8NT4YYc5M9Mlum2TZhYlCGmfGhbRdwh3R577DFTpUoVe9yYQOLVV1+NOywXxVlBSce2yioZl3SAde3Tp481s2F9zJmAi5c+ZMpSmSnEL/EUQpReJOnSyIoJZt3ScebW6+tHv8HiZ+cOD+VLMSe/Vubl3+mm7ZNNzDYVC/5zcfhh+5vJX7yT969uyAQSto0073FhMXPN7Tc1iG7nrDNONPOm9svfTtj6rhX132nmovNiJV23Fx4xZt30/OXBfVAyF0m6jCZM0vHe4z++m29ewWyW959hP/znmJ+bhszCvtVWFc35Da40n4yZYebZSSOcqMv7z/Dv+WPUBfPbKmNefefjGEn3wGNtrIBD9oU9xgnATEq6eXn/1bv/kdYxFQhX3yhJl4lI0gkhRMnwyy+/WK+Aw0iUTz75xBYLuX/vCENWMJ5bz549bTWc+z3/J6hdu7YVgAMGDAjdnp/g5Js4D4qT/PD8/sQN55xzjq14u+aaa6K/y2TOO++8GEkXhPHwb7rppugQZIQuxyFDhkTWiIU2WlwRFXX+8zDzK+23Ybix+dy6SD3Ggi+rFIukc3BRFSdsv7ifQwhRskjSpZFVk8wP0/ubk44/Inrcdtt1JzNsQBcrxGLE1+rJZvLYd8zhh+YPFUD4D8QrLzQ3/4VUsv23dLxZ//e40Py3fqa55fqLots587QTzJyJvc1/a6eGr087K9sNaXd96bmH7KyvwedPOlYmelkeso4iSZfhhEm6SjvsZK65sbFp/dyrpkWbzhvk4Sfam8ZNHzVnnH2h2XmX3W0VnXss78ULLr7SjJky3/zonRfGdpu98J8NsmDZf3Zm1d33zG9fQdLd90irqIgLewzbsvueKUkXkXBNHmgR3Q659c4H7PO55Up6kaQTQojc47333ov5N4/OPjeza8OGDaO/59/1K6+8MqMTNzLxYklKuvr169thzcLAxbz11ltmu+0Kxrumyu+ZZ56JrJEPctHveqT67rbbbot5HsLkFt9//31krQKY+yAo6ajmK6vkHdfik3RCCJEqknRpZN1081qXx2NaXQ89qJp5sf0D5uPenUyfd9pF07dXe9P/vQ7mqMMPjDnO9c87xfw04+OC1liyarL55vO3TI+XHjfdX3zUvNb5sZj0er2VOb7mYdFtHLh/FTu23NvdntpgXSTgqIEvm5XMJGvmmkY3Xxzz/G2fapIv1tIdk85W6fEz8HslNpJ0GU2YpKtS7QDzxgdDzPyl682sX9ZumAVrzIyfV+VlhRn25Wxz/W13ma23KfjP7cabbGIeeLyt+X7xeivSvpy+0HTp0du0bN/VtO7YLSYdur5lrrz+divXeOxGG21s6p5zkWnz/KumzXOvxqzbquMrpm2n18ygz6dacca+Z2pMupkLVptb7riv4DVsvLG5+4EWZl6kei/scUpykaQTQojcgg6+q6++OvpvHqHVE1G2cuXKDSTdVVddFXlkZhg6dGiMpHPtri1atDBHH320Oeqoo+zPYGht5cs89ziq+xmezC0/5phj7GN333336DpUyF9//fVWsoVBm2v16tVj1mfcOca4Y8w5RNrw4cNt5WGPHj1iJqOgVZbx7NxjCceLY0t1ng8Vhr6k22WXXexrLqtI0gkhcgpJuhSzfIJZt2y8lWwbbVRw3DbddBM7KUTFilva2V79bLM142XEDoy76847miEfvZgv6VzlnZllHrznOrPllhXMlltsGLa/ySYFpe3cmFeosHne78PXv6xBXTN/5sC87X5vHrn/ppjHNrrlYvPn/BEmrdldV+dPiDGodyebgR88bxYyFt+qFMfYKw+RpMtowiRd1eoHmZ59R5hfV9NuumGQWgQBx+NpCb29yUP2P7ZuGyfWOcMMHTvL/PGPMW/3GW4OOvQIUyHvP6dbbLFlbLbc0my2GePLFAzUzH/AN1gvLxXyggx8pOVz9rmp1MuEpPs+b1sT5i4x9S+7rmAf8vbpocefsc+R7Ph6Sngk6YQQIrdgfLT99tsv+m8eOfXUU21VGWKKiRDc74ujki4o6dzEEchDqtCCYSgypBnttLShusch42jDdZNEsM6cOXPMgw8+aPebdZiw4oEHHthg//k7cw8E79vYJuPnUUlHhR/j2jF+HIKNttlly5ZFtpAPAo8JKPxt8NreeOONyBr5MMGEmxmWIOloTy6rSNIJIXIKSboUs2aKGT7gJVO96p4xxy2dPNe2qVn397iCajYzy9xx26Wh66aTs+ueaH6cPiBvu9+aHi+1MLvsXPAfjFrH1TDTvno3f1y64GtMlBUTzH95+3vFxWearStuaYOYfKd7S7v/Ma2+iiRdhhMu6Q40b/X+1PyyovDjisBasNyYfsMnmiOPqRXdxl77VDHdew0yfI/c4/0hZs/ImHOZCGPHZVLSLcj7//aAEZPMUTUL9n/7SjuaZzr1ML/kvbawxyjJR5JOCCFyi/fff99O8uD+zaO9s1WrVnYZEqqkJd0ZZ5yR1Pj8yEW/6g1hx1hvPrSk3n///VFJx2vr2LGjFZAOxqdjXgAmo3DbcuELR1p/faHmcvrpp28g6ajQe/nll83WW28dsy6TXLC/jlGjRsVsc9dddzW//fZbZGnZQ5JOCJFTSNKlEATUyonmgbuvNZtvXjAQPRVulbbfppBsa9dz/wiTiy88zfw8e2D+OHZsf/0M89hDt5gdKm1rtt9umw3CNvznpYJn220q2t+HrX/9leeaX+YMyvuXZ7adqMJvud0h7zEf9WofW8mXTNZOMRPG9DSHHVLwjSaSbnCfTnlX0+zwx5TnSNJlNEWVdARhNn72H+as8wuEeMWtt7Gy7M+8/xO/O2C0OfKYE8y2222/QbbbvpKdcMIfrJmKubB1yY477WJatHnR/Ji335mSdL+uMqZ1x1fNllsW3LAcd+LJZsgXM8xPuraKHEk6IYTIHZht9ZJLLon+e0cQX998k/d/rDwYky5XJR2Vb0FJRxvpmjVr7JhztKLOnj3bHHvssdF1tt9+ezvJgw/Veccdd1x0nWTCPcJFF11kKw2DcEyZ1Tb4GI6ze12Mw+dLut122y2p11xaKXFJh4VdtWqVPblMvctFkSusWLHClk1ywjHE7GthYJspD/3555/tmzKTb8Bch+PDG83vLQ8DQ/7nn3/aN+Dff/9dro5RsnAdcd3xvmA66eC3DOUJSboUsnKSWfT9MHPWGQUVLLSzvvriY2bJgs/Mkp9HmiU/jQjPr6NN77eeMfvuXTDuxLbbVjSf9H2hYJbX5RPMirz1fs97jrAs+WOsufrys6OPP/l/R5uvRvQwSxaGP2Zp3j4xgQQTXdDaev7ZtaOPJbTArvr9i+RbXpF5a6ea1i2Yin7L6HZOrXOMmT3hw9Sr8spDJOkymkxIOmTZ2Gm/mDPOujC6jW223c4880IPs3ClMTN+Xm3Gz/rdfDX91w0y7Yclpn2Xt8yuu+dX0vINduN7m9v1x81ctMH6X8/41Uz9cbl9XuRgUSUd+z5m8k+m7tkF+05ubnyf+envgplklfQjSSeEELkBIuu5556zwsn/N69BgwZR+cS9biqSjvtp7gOT8Q6OdCUdVXO+pNt3333tbLR33nmnefjhh80999xjx6bzv/ijrZSx43xoreU53TphsV/cb7utfb46derYlllaVuONbYfk3Gef/EmwXI4//vjoDK7MaMsYem4Zki5M+JUV8q6HkpV0XEAMasighDVq1DCDBg2KLMkuvDE++OADexGdfPLJ5vnnn7cysTCmTp1qTjnlFHtBM6gikiVTuDctHwjFkXhvkmThQ6hp06amZcuW5ttvv427PY4JA0CecMIJ5qGHHooZCJLHMLtLurKWD7wxY8bY88CxigfHMpPJNOz/pZdeag499FDbu8/03+UVSboU8s80M/DD502VfQrGcqhxyH62Ss2YOfmzpSK8wvLvdLP2z69M3dOOjzneD997vVm5aIwd580+B62vYY8nZp5p6E0AYdtZZ9DOmvfcYeuvytsWYi0v/62aaB6459q8f8QLxuHac49dzLD+XfLesHn/GWCG1uDrDSbv9c2fNXCD1/DoAzeZVX+M1Zh0YZGky2gy0e6KiHvjw2Gm+v4HRbexT5Xq5vX3PrHtot8u+s+O+8ZzBbP4H2Nee3eQ2XPvKvZx/Kf4oRbPmJ+XGjP/7/DHuNlWiyLp2G8ej0Bq9mQHs1XFgjaV3fbYy3R9o499XWGPVVKLJJ0QQuQGn3/+eYzkIpUqVTLvvMP/u/NJVdJR5PPKK6+Yd9991/z666+2+KWwe83g7K7pSjr+zNhviLjNNttsA/lIGGsv6ETwCLgSfz0eTwsws7weccQRtmW2b9++9h4XqcdjEoETePHFF+3YdWyLyrqvv/46en/PeHq+pGPsOwqsyip510DJSjqqzhB07gDXrFnTTJ8+PbK0AMwoFUVU282YMSPlsE3MKzOsJAMXRpMmTaKtX48//ritpksEb6CuXbuaLbfMr+BgRpRMzjLCG5WL9YknnrAi7Kmnnspo+EApioF2b3TeMIccckjcaZAnTJgQHaSSASR5owLnpnv37ubggw82jz32WMqDP/Ih1qtXLzubTpUqVez4AGGyb/HixXZQzLffftuuX5RwzJhye/78+ZGtZwY+gM4999zo++KWW26xH9rlEUm6JIPoWjvVSjK/ZfXBu68zy38dXSDZEmX9DNPmiTvtOG7u8UfWOMBMGN0zuSo0M9vcdmP96GPrnV7LfDu5rxWAoev7WTPFfDP6bXPEYftHH++2MXFs3n92EIy8hojUi8mKifbxqxZ9Ye5rcrXZcgvvm7VddjQD3u+Q/3jWDXvu8hxJuowG6bWBpNsviYkjFuf9fyjv/9PIN2ZvveDiq2K+ua5z2llmxLjvCm0XXZj3/9NX3u5v9oiMWcd/sO9/tLV9jsJmVY0n6ajgW5T3T+kG+x6Z8OL7vH0nsxauNR26vmOFons8ufiKG82Eb5fYdcKeV0ktknRCCJF9qPSikMf/944gsXxZlKqko9OMsdoQXFWrVrUVbYX5BKrKkIPuOZg4guctjKCkq1atmq3KY/ZZ9zsX9pv76w8//DDy6FhwNLgPinDq169v3QIiDf/CPWyYlOM+PVGREBNXUNjzyCOPxIw3h3NBYiLv3P4xcUeynqc0UuKSjhNDxRqD/bmDjCkNngjWYTBCTgBTA6eSgw46yA42SIXb5Ml5N3lJwEVTq1Z+yxjSjQuS/UgEkuiaa66Jvo4bb7wxo2KFvnGmSkaCObudibA9Qi850jRd2rRpExWUvEEXLFgQWRJLUNJROQd8C+BmxqHHHEkVHLwyEVTouXNGKHvt1KnTBlZ9/Pjx9jjy4Yedd8fTHYfCwrqEx7KNbbbZxn5QxLs++BCmXZUW32RDdSES0b0vGDxz2LBhoevGCx/OiaoJSwuSdElm9WQzY1ze5+ThB0SP1dYVtzCf9KFddUb4Y4JZO8WMH/WmOeyQgn+w7aQLrz2dX/WGDAt7nEtRJN3yCea/NVPNU480tLPBum1svPFGeds5wYwZ9ppZ+/f4/H1Y6SXv7/8tm2DbZxGSzFTrP/aexleav38ZlZykLI+RpMtowiRdlWoHmDfeH2LmL11nZv2ydsMsWGOm/7TSzFyw3PQe/KU546wLzCZ5/za7xzOm3ONtXjQ//b2+0HbR4pB0jC+3YNn60H2fuWB13v6vMsO+mmNuv+ths/Muu0UfS6pU39+8+s5AW8UX9pxK6pGkE0KI7MK9ZO3atWO+FCcIr5EjR0bWyidVScf9M/7Crc+9IBIuHtxH05bKv/fuMexbMsUuYe2ujEmHd6Gajntcwp8vu+wyM3jw4Ljdbkg4CnRwOMiysNfH71hGxx2TQ9Dyyp/jwfoU8wQLpfj966+/HiPp6GJMpuuxtFLikg44WbRJIkA4yAgJKqrcyeUnssW/+NIJZZBffvml3WZhIKu4IHkc/dC8GQuDi8gZdd6AVFkVJvZSAblFlRjb51hROkpvNtWH6YRBIKl4c9/W0248b968yLOlBhKKbbIdtkd/fryx6fzXgYhzlXSM43fttddGRR9BzA4ZMiSp48jzUWnItw7u8Yi0J598MubbBD58EHhuHa6roPTk74hCwrH2l7nl7vHkzTffjLuPfPicdNJJtgyZ8E1HMqE8eGOvkoL3Rdh68RL2D0VpRJIuiVAhtmaKaWur4Aok1UXn5h2rmUz8kORYbCsnmqW/jDINLjg15pg/kGw1XlEkHcnb/h8/fGquu7KgipTwebrbrjuZpk2uMSM+7mqmf/2emTOxt5k9obeZNKan6dm9pTm1Tk2zWd5703/cuWfWtusk/fzlMZJ0GU2YpNtu+x3MFdfdblq262oeffr5DfLAo23MNTfeYWqeUDvv34idNvhP/7kXXmbGTJmf1KQLmZZ0FSpsYc5vcJVp2f7lDfa72ZPtTZMHWpgLLrna7L1P1bzniv13kckuHm7xrJm3OF8shT2nknok6YQQIjsggRiCiGIU/987QuFG8+bNNyiQiCfp4t03IroQY259fISbhCIIBSpUvTmH4sI9I9Vn/pBSYXBPTnWcexyuZNy4cVa4cf86duxYWySE8EunlRS5Rgcb1XQjRoww7du3N/Xq1bOTT3CPznPzfKnC/r3wwgv2/zhu3ynGKqzrsTSTd72UvKQDWjkvuKDgP7VUVNHeClzEtBQiOpA2lFImE6QRrbTuwt1zzz2toEkGJCFvNh6HjV64cGFkSXz8GVIQLOkKr3hguzHcbB85R1kp9pw3Tqrh9XDMKWndeeed7TY5tumOoUfVF284tsMbnIEg4xFP0gF/bteund0GywlVb8wiE0/6+fDBiOX3W6j5oKLKz7Xy0s/OtcAypCotyrSu8hpc3nrrLdOjRw9r6RFw/N1fzqCaF154YfTDgd/F+7DlunDPV5LhAx7BWdqRpEsiKyaa5Qs/N5fVPz3mWHVs3dT8+1feP36MIxf2uGAisu/Be64zm21W8A8f1XmTx/YqvCKvqJKOrJpsvpv6kR3PbpNNCiQ1Yby6yjtWMgfst4857NDqtuKv6r575F3rFWPW4z9A/6t1pBkzrHu+WCysArA8R5IuowmTdFyPm9ovfrYwm4dl8wp2ggf/GiYbb7yxObZWbfP+oDFWoCUz6UKmJV3+NuLte4XIF1axUpHsvMvuptlTHc20n1aqzTXDkaQTQoiShzZUhr/yCz1c+LeQDjqEVJCgpCN0Dcbrdho4cGDMl3UUC3HPHoQx526++eYYUeUHj8Hzct/vCp+CMBwYY59XrFjRhgq+ZLsOfbgHpsKOe22eDyHXsWNHc91119l7bQqBdtppJ1v84u8j98fcl6cKz8UYd/w/yW2L+/J4VX5lgRKRdLS4UnlFK6hvPKn62WOPggHPufBo2wMEjXtMKuENxRhn7kKIJ+m4eHmzYGZ5HLOy8BjeJJhontstJ2FvLMo2ucB53FlnnWUFGq81UdgOP+MJHh9f0lEFN3z4cDv4ItIr1bAtglzacccd7TbTlXScI14v2yCIN79dOQjPH0/SAccXMUaLstsm3yIkKvUNQsUkUtc9HlGLvecbEL6NcNLspptush+oHH8/fEBRvdm6dWszevRoe/0F12HcPL4FYDuFSTr3LQUfJnwAUpJLJaQfjj9hGT+Dy1MJH4aMZ5DOB1+uIUmXRFZPMV8Of93sXz3/fUUq77S9GdL3xdTHYstb/9P+XfI+awpEOXnpuYfNeiZ7SDSBg5ltbrquQE6cfvJxZu6kPqlJOvZ19WTzw/QBpuHNDUyl7Qq+TUwm221T0Vxav66Z+mUv2z6b0msvj5Gky2icpDv59HNCr89kgrTbsfIupsEV15sBIybmbTP5WVGRdC+/9ZHZedeC/0s1bdYyJUlX77yCyV9SCSKy0g47mRNqn2o6dX/ffPv7v/Z5w55LST+SdEIIUTJwb8d9ImOrnX322RtUrBG+ZEO6zY8zPjleoXHjxjGP4V6Pghbuoal2I6zHff0ll1wSsy5FR7gCH6raGPMt+AUfYs7v9uLPVJgxEQUVa3PmzLH7yb03z0nn4EsvvWTHu0dAItbcGHIuSEbWZV9xGwhDxshjO07+8btHH33UnHjiiaZy5cq2QAYh50u0sHA/nqiSLt69Nb6CYbrcdjgOTNiJQyir5B2L4pd0s2fPNpR5nnbaafaicP3DXHBcxM4eIzMQSUUBCYawcBdCmKTjAmBG0LZt25qnn37aDtDopvzlpDPOXKtWrWxYzpuCi9ifZAGJ44sqxALbQ/Swbrx06NDBVnIxMGJhcCyc7OFNR486rwmxmW5ov3THO11JR9mv+1YBm8/f472poDBJB7zpmenXCVaq/VKtCuN48WHB4wnVh1Q3IuCcpGNChrBSYM4zLaO03lKFF/xwhBYtWqQs6ai05NsFWnspIyaUNSMVqdzjWhgwYICd2prfu3WC4XUwXgBtxVxjn332mf29/xg+QMvCNwqSdEnkn2mm24uPmH332d1U2n4bm8sa1DU/TO9vl4U+Jl5WTDDr/hpn6p9/SnRb2223tbn3zqvMn/NH5lemhT2O/DfT3HfXNdHHXW73YUDq+4BYWznJPt+gD58355/9P7PdtvyDv/kG/+Dzd35PNd2Zp51g3nujjW2ZtdVzqqArPJJ0GQ2i6+uZv5kLL7nabLvd9kmHyrODDjnCnHleAzs76vsfjzHfzF5s8idpSCzX/CzI+2/JGx8MNYccdqTd7g47VjaPPP28rWZLRtKNn/2HueSqmzbYv3hBJh56+NHmzHPrmzuaPmp6vD/EjJ220MzJ254EXfFEkk4IIYof7v0YDxw557rOguE+kAq6RPfPeA58h/84ZB+eg0kmKKogeBGq2ty9JeG+mmo4H+6RqbZzw3K5cI9JB1ijRo1iRB1B3uE2cCLILe6tkHc8Jz9d2B9mhnXx941lderUsffWFITgPVwxFfLP+ZZkwuun44tjyz1rGGyb++vevXvbcetpvaXQhqIdhJw/PBZCsFmzZqFFVGWFEpF0GFMnSejp9scL40RRJcYFRDVVOv3PPrwxDjvsMPtc8SQdFzsiZtttt7UXTbBsFFFH+D3LCW9WvwUWyUIZp3sMN468QRLFjXmGKOPNVhhBScebE9GGIEsntJQioooi6Tg/559/fnQb9MWHSS8fJJmbOILS1ETru28umKnV2fpU4FsKvoHguCEPefMyvqC7/qjWpFyY31PV6cIYie7bCd70rOOWIb4QcnzjkKykcxWQtGEj6IJQRcoEJ7RJ014db9INn9tuu82uTyUks9WWVSTpksjyCXZm0yU/jYhmxW+jzX9Lx6dXSbZigln+6+cx26Oddv3f4/K2F7K+S95zrfxtTGqPiRcr6vIl24q8bVIZ17n9Q4Z22vPOrmNOP+U4c+E5J9u/P//s/WbimJ523Lz/eCztvem87vIYSbqMZ86v/5rJ8/4242f/nnS+mfOHmfjtn2bKD8vMrF/WWKGG5Eq2gs7l20Xr7GQOE+YuiWz7DzPtpxWh64Yl9X2P7Pf3y8yMn1fb/WWm2lTEopJaJOmEEKL4oSvsvPPOi7kH8YMLYMIG7hETwf0rTqOwqrKwMJQUkxP6cB8ZnFWW+3qKN3gu5BatoP64donCPTz75hK2TlhwNW4oKoqN/KGm/HA/zf0yx4ux8JF/dKoh3OhUjHd/z3IcCYKRyjxeD66GP7t7dBeOE86gLFPikg4h50s6RAdllmG91+mQrKSjOg7x5U62k3KEC9ZJKBcuFHqugee44YYbNrhgkg2iLpkLC0nnt7tilSmL5SJONa7llbHWeAOwzXQk3WuvvRYdiw5ZhGzkHCKzEHhhGTVqVHTWUsYh5I0dth7HlTJb7DwfgPw93mwxieAYIQadXffHpKOSjpboN954w7a+ch75RiQ4oQbTP7Mcc4+co/S5ZcuWKUs6hGFY1STj6LlvaageTOY8UI3K+lybwQ/wsoQkXZJBaNGO6rJqctFEFRVzMdtDfIWsFwzrucewjaLKMtpr2c7KSbbCb/XvX1iBuPSXz6yU4+/r/vo6X8yxnqrnUoskXeazaL2tXPvxz9RCJZuteEtDzvlBkLEtt91UK9pS3Xe33/lSUXKuuCNJJ4QQxQ+VdNzfIYb8+xB8AYKKzie/qy4R3Is6H5FKatWqtcE9IZ6Ewg63Dv6Bwg3ukR3cN9NtVa1atRi/kalwj8zMrO6enPviM888096TUszE8F/4gUMPPdRWAr766qu264tuSiRiMm2puKBkq/PolqN1tyxTYpLOVVJxUH1JB8gUqqs44fQ+JxNaJlk/eNKTlXS0NyLLWI+x0O6++27b9vrggw/aPPTQQ7bqylXLceG5SjomcPDfLJSBXnrppXaqYn4Gw+/pN3eiCkPcv39/u61E+JKOklRaHnlDcqxSDcccAfb5559Hy2VTlXS0VvLh4V43j0dAsd17773X1K1b187gQjmsC1VxVE86ucUbmdJZ2l799VzOOeccu4yfvPmp2uN4FwVf0t166622p56xBNzrKCxcT3wQ8C1AqpKOa+vDDz+0opQqP0p3uSZpjXZjA/KBSuWgWycYHsN7iPJj1kck03rLMio63Xqsw7ko7UjSKTausg4JiIwjiEj+zu9VOZdeJOkUpVRFkk4IIUoGCjlcUQT3rNzv4weS6XjywTUwbBNto7Sdcs+H/AuGDimKNrhv5D6Ydtvg/SXykEIdWk7ZL+5LuScPgk9B6HGPiDdgHDz2n+4yOvG4/2f8ONwGBTu4DZewfXNBwPEakJQOimueffZZez+NU6Foh33CN1C4k2qBDfA4HAySMVgsRVyFHl1qDJEV7z68rJATko5KKy5MZBcCJ5kwSUD9+vWtqfZJRdLx5mM9ZiLBQFPC6Qc55LbFm8hNjkCfuZM1lHpS+YU8SxTkCfKJxyDp/As9Hv5YbrxJeM3BXvJUQm85b1hXAYitTlbScczuu+++6DEjfKvAMUGYUjHmfp/pMNOrD29KPrDiJUhQ0vFBSwWd/wHkhC3hz67ElnBdIiNTkXSuTZljzYchgpYPRxc+8NwHENKND+/gOsH4x57r0V/Ghy7jGoRd76UNSTpFKcZI0ilKqYoknRBClBzcf1900UVWQs2YMcPKo3TgPpHqMLbH+ORIu2CGDh1qK87oAEMQxru3BHwJ7bhUqSWCAia8BgUm7D9FIBR1MDEi22DIJSajRAi6hO2bC2PC8bhgJyTOBVmXqckb2Cb37HfccYe5/PLLrTfBezAsFEVAVA8ylvusWbPSkoCljbzjkV1JxwmhBRNx5d+YJxOkBhNA+KQj6aiYC3sDYoQRH6yDZXZvNKQIv0PmMMNrsjAeG49LVtIhe/bff/9oG64L4iedBLeDWEu2VLRv377R1+1CCy7HhEo9Kt8Y7w7ZhJTy4wsw5FTwd/wZox98HL8jwWPFhwUz03Tp0sX+dOHvhDcv15XDl3RuTDo+VNh3Jxnvuuuu6D4xPh3ykkpN1mF9rpl0Jo4oyfAtCZWSpR1JOkUpxkjSKUqpiiSdEEKULNwnumGTcgXuO7nnTlcalgZ4jbw+Cpw4B7QXM44dP/l9WDFOWSXvWGRf0jG4opuxAwlClVCiIJhYN1OSjjHJwnrM/ZlLkEXIlyuuuML+nVBFF2+GkiC80VOtpEMOvfjii6Z58+bmkUcesT8zEbZFEFq82QuDfnK/zdUFScc4fZzDKVOmWMvuB2HEtwNUrbn++CZNmlh7z4QT7nccU8Qb59J/PKafn7Q3+9A+GxSOCDauHcL15Bv2oKQLe82PPfZYVNJxbfCagqQycYRfSUerM98K0KPvQuWoE9OITY4BMx376/hp2LChqVq1ql2fILL4RsEtp0KQ/Qsb/660IUmnKMUYSTpFKVWRpBNCCCHKF//lkROVdE5+PPnkk9HqpeA4dPwOKUQJKutS2VVSko4qsffeey/6OmiHZNrjeKImCJKO8dl4LNVkzDwaBvvmh7ZbzHFxhFlLMdLuucJeC6W3CCQ3qQLSybVpOklXGEgkNxlHz5497e+Qhe740+uPMU8W17Lrh+24dO/e3b4eR1DSsc9UyTFbDuMMcr2xj04aMr6em8yE1ljW53gh8pKVdG5MOsYPoLIveOyZOISZeViH65V1OB+J4gQx+4mIDG6TayXZ6zGXkaRTlGKMJJ2ilKpI0gkhhBDli7x7+tySdJ06dYosCYf13YCOmZJ0zOJJSWUQRI1fSccA/gzej2yiMgqxxP4k04uNpGMiBLbFVMIMsOjDPlFNxuypBAFIkDHFGfc8PCfiCXHlYBy9O++8M1phhlSirZVx2vh7spLOSReqIOlth2bNmqUt6d555x3ToUMH8/zzz9vrhT8ziQXbIryeeJKOirOPPvrIzjLLY3gNjK1He617/O67724HpeT3/KQtmMpHqg9d9Vuyko7H+sfUwRgEPA/r0FLNZBaFce2119r1kXRMu11WkaRTlGKMJJ2ilKpI0gkhhBDli//yyClJ17Fjx4T9xggxV1FUkpKOMekQUsyiyWCGzLxKpRVyq2XLloXO+sJ+M/gh26IKj1lJfKiCYtpi177JvtECTJBkfmunH389jmHYOskG+dOjR4+o4EIkuRlpEXPPPPOM6dy5c1RoJSPpEH3MXsr6XAMMXAnMnuuOP38OO/7x4PpAevKTIPiYRZdtkcIkHeeM8dvc+smE6jwkHVWQ/D2RpPNn5eUY/fjjj5ElBQwePDgq6apXr25ngGW8Q0RwMByz8ePHRyUvx+3dd9+NbKnsIUmnKMUYSTpFKVWRpBNCCCHKFzkn6aiKSjRQIzILSca6RZV0rkKM8cGobGMMNTcOGmOpvfHGG9GxxZB0tEYCEw2Q888/38oxxA3jgSWqBkPSMSst20J4IWl8eF3sN/tE/KmH+bP7fTCuDdUFgcOxDFu3sPA4X9Ix3TPjpfH8tHpy3mhX5VjwXMlIOqrKnBA78MADzcyZM+3viyLpgnC9uGuCFCbpEKSIWc47s+QQzqWL+x1hHEHCsXj00UeTqqRDrLlZeZlRN6ySjn1wApTji/ikUpFrOiys69pxEaq9evWKbKnsIUmnKMUYSTpFKVWRpBNCCCHKFzkj6ZBdLGdsMNo+maoYMeKH3yG3Tj75ZLtuUSeOcGIQ6YF8Qbb5YZ+cBHOVdA6kGgP3O5nG47t16xa39ZXfn3TSSXZdv+3TwXGgSo9pkKlgY+w0J7GoEkMiIg+ZdIFwLPjJ+GlOHNGa2bt376hsTCVuCma/IpBJMRBxiCvXjom4TEXSUfFFqzDr+62fDz74YMYkHeO1XXbZZXZbJJGk47gyzh7XCeeQ81JYkK+IwGQnjuBadWKSGX2puAzC+UcAI0c5DlyDwXH2gmE91uf4U3lXVpGkU5RijCSdopSqSNIJIYQQ5YuckXRIMZYjIWgHTRSEBetSeZQJSZdMgpIOvvvuO3PKKadE16HFEdEVBrIHqcV6TEKBiEsEMozXyvr333+/fV1hvPrqq9H1qAxjcg1aQN1kA4ioRHHrhAknxBkVW/4MtgiwVCQd++5kHLOc/vnnn/b32ZR0bnZXjikThiSKXx2ZrKTr379/tEqOceSCs9MC0pOqRcbUo4WYWXwLi1uPc57MGHalFUk6RSnGSNIpSqmKJJ0QQghRvsg5SUeoXksUt16mJN0+++xj6tevb1smqVojSB/GAHMCLEzSAQLIPR9hsgHX0umDpDvqqKPsOlSWUW2VCCSQm6CBdktkGTOC9unTx6Zv3772Z+PGjaNViEzqgBDq2rWrrUgkDRs2tHF/98PvqQZkEgzGUQsjOD5gKpKO84w4ZF3CmHYcB8impGO/EKzMvMq5QJrymvzwO5ZR7TZt2jS7nWQlHefKjdvH+XFSkH3iePKTyrygME02HEM3Hp//OssKknSKUoyRpFOUUhVJOiGEEKJ8kTOSzokmxNizzz5rnnvuOTuJhB9+xzLkCusWtd3VSSKqnWiBpGrKz+TJk+1kDqxDi2o8IcVsoU4CkWuuuWaD6inkitsWAodW1UQw8yrPyfpUDrox44Jx45QRZB6vg5lL+TtCk8fy07Xl8tPFtVGy7ffffz+udPJJRdJNnz7djkPHujwHssyRbUnHJA2M9eYekyi0IUOyku6ll16KHiNmruW10UbMdd6lSxfz8ssvm1deecW2R1MVl2p4HI9HxiIEnQQsK0jSKUoxRpJOUUpVJOmEEEKI8kXOSDonP5BwiDYqjcKC8HBCBsmSCUmHuFm9enVkaQHz5s0zhx9+uF0nkaRDEjHzp3sNrItk80URkm6//fazy3feeWc7DlwifEnHz6pVq9pZQJkp1U/lypXtOoRKOia0QAw5SUSQghwT5Cavx/1kHDSWI/qSHeMsFUnnr1uvXj27b45ckHTummSSB2beZR+RxPz0Z39NVdJx/JGSrNeuXTtb8cY1zvXKMQ8KV44/vy8srBd8LOJ3zpw5kWcuG0jSKUoxRpJOUUpVJOmEEEKI8kXOSTqq5XzBEgRRd8UVV9h1MyXpbrzxRjv+WBDkR40aNew6iSQdIKAaNGhg1yW0SSKCnMhB0tFWyzLadJncIRFIOtdqe8MNN9h21Llz55pZs2bZzJ492/586qmnoq3Cbkw6Xguy0/3+7LPPto9nHDPE448//mi++eYbs/vuu9vlCClmJE2GVCQdLcSsR9Ues/ZyDBwlKem4Rtxrpb136dKl9tw4ccfveB3+WHRUV7rtpSrpLr74YrsOFYysB76kc9t14TgUJuqcoAs+9oADDpCkUxQl+UjSKUqpiiSdEEIIUb7IOUn3/PPPR5aEg3y58sor7bq5JOmA17n//vvb9dl2mzZtohV6/HTHgP1y4icevqRjBleOGWORBUPL49Zbb23XQ9ItXrzYPp6fbt+pwKN11weR5ca8o4qssNfmSFbSIRCpUGO9sDH4ilvSObi+mBmX6kWWMZEFrcxISifpmjRpYn/nc8stt0S3l6qkO/LII+06XDM8N9D+TEsx58uXUFRCNm3a1E4iwX537959g7z22mt2IpFWrVpF24cJLeItW7Ys0rHLRSTpFKUYI0mnKKUqknRCCCFE+SLnJB1ii+X+2HB+mB3UVSrlmqSjyo8KNqromjdvbivWnMihestJISrqwvbLB0nnJBotjdddd50VRzfddJMNbZv8rFmzZnS2W1/SAceS40ol25NPPhkVhlT90dbJYwjiiH1PhmQkHcf3gQceiB5fjiFVgD6FSTqO24gRI+w54Jy64xhGUNJxPSEwmUGXxyPUdtxxR7sMqUVF3/jx44tF0v3666+2uo112L5/fbI+ra9TpkyJiijOzamnnmqlodsex88F+P33339vX6OrpqOyjhZr/3yXFSTpFKUYI0mnKKUqknRCCCFE+SLv/j+3Jo446KCD7AQI559/vjnvvPNiwu8Yd40JI1g3UxNHILt4XBBmAE1mTDofZBOtpUHp99tvv0VbLpF4SJlE+GPSETfZQzBuOQlKOiZuOPjgg+0yqvLee+89K+qYhMNV6THWHa8zWZKRdDyvO26kWbNmG0i4ZCrpGDuPY9CoUaOExz4o6Tp37mzFI8eZCRZat24dFZ6dOnWy559r0kk62l0XLlxo98EFKeq2l4qk++STT6Lnmao3NzNskM8++8wcffTRdj3OI+Pg0QKNxPNBNn755ZfmjDPOiMpY9gEJXNYmjHBI0ilKMUaSTlFKVSTphBBCiPJFTkg6hJSTH6kkU5V0119/vR3LjQorP8gmt61kJV08fvjhBzsWHduiJZZqqkT4kg7pc9JJJ5mTTz7Z1KlTJyZMRuHkDWPP+ccWwfPMM89EhRwCFNGEmOPvHHOEFuslS2GSjvNJS6mr+OL4zZw5M7K0gMIkHfvk9pPKNM5FPIKSjspDN6HGnXfeaQUv47r5Y8T51ySVjbT8IjmRZfxMd+IIJo1w61Ct+PPPP0eWbAgz/DpRR9iPFi1a2Go8ZB3ikGO57777RtdBZj/66KMxk3CUNSTpFKUYI0mnKKUqknRCCCFE+SInJF2/fv2srEBeIZKoQEoU1kHcnHLKKRuMtZaKpHMiCanDuG9UfCGMCLLl1ltvjcoexFRRJB0VVW5cNKrbwsSVD9WFTq7dfffdtkKO10aohkNMIRKpGHPrOSnEctcqSRsnrZt+myQ/qd5CXi1YsMCulyyFSTqElqtQQx6++OKLoa20hUk6pCmz17L8kEMOSTg5Asfh8ssvt+v64bVyDp1wo+V12LBh9jFcF06aFhYngguTdBx314pNGEPOtRjHgwksqBx12+WYnH766bbakesbucjvOZZUJ/bq1avQbZZ2JOkUpRgjSacopSqSdEIIIUT5IuuSDmjbY6IBqqVmzJiRdL799lsrq3wQGMlKOidGkklRJd2QIUPsBApsC9nCLKuJ8CUd47s5MYMYosoKMYWwe+GFF6ITRzBRw6WXXmruuusuW43lQHAxdp17LaRSpUpm1KhRkTWSJ5GkY7xAv6KN88B5DcOXdAjRoKTj3LqJJ4455hjz008/RZZsCNcPoss9L6Fq7uqrrzYvv/xyVNIh/WhFBuQY1yIt0zwP16cf9zsey/h1QJVbIkmHID3hhBOiz5/s8eVcISrd+Sb+TK5si9lmg0K6rCJJpyjFGEk6RSlVkaQTQgghyhc5IekyCeKKFlCeK1lJR5XSVlttZSpWrBgTlrtx34oi6ZBqvpQ67rjjNqhgQ/gg09hfxiajqo99Yn3GI6OyirHVqPhDPlFlRTso6wTHpmMsN9dmybHu2bNntHXUBfGDHGNCB1d1lwzxJB0SkYkqnGjimFLlF6+V1j8e/DlYHYbUdFWMiEdmR40HMsxV3RHOGxNrsG9+6y3twk72Ud3HsUEsIvnCwnLijg/jwLlthUm6/v37R6vzEIu0OCcCwUxLK+8Pjt1OO+0UfQ1+ON4IQgQjba6ptCeXRiTpFKUYI0mnKKUqknRCCCFE+aLUSzpECRLF/URkuJk8GePr66+/jqxZgJN0TrjUrVvXfPTRR+bTTz+1cohZQcmrr74areaiWq0wScd2kU0EAUOQhmyXNl22Q5iUIHgMEHkNGza0489Rcecm0nCh7RHxFRRyfliOJKOaDUmHgGPmWlfBR3jNCDr35yOPPNKKN9pLg9IpjKCkowqMx3Xo0CEq1Qj7wGQZ8UDMueNPi+j8+fOj7bzLli2zM646iRc28YTPoEGD7PiErIugY8y2RYsW2dSuXTu6T88995ytQEwHzk/9+vXtdjgHQUnHub/kkkui54fKuODkIYhBXh9icOzYsVaSMtYg59w/37Tpch7d8SG8Lq7nWrVqmccee8xe58wYzPaSnZm3tCBJpyjFGEk6RSlVkaQTQgghyhf/5VFqJR0VRcym+dprr1lp0q1bN1st5UQJYoy22CAIlaeeespKLdZj4ogwCcSsp1S9IVCQQFQ9JYL1qXRjDDjGkePPyConDQnihVlW2Qcf/n7fffdZGYNEQ9TwvMxKyuOp0GK2UsbjY/w+5BNysUaNGtHXgcBB3tCeSeUVUscdC7aJVOvSpYu56qqrYsQdz8nECVTcJapYA1/ScWyQawMHDrT75rZHy6drK40HE1q4SkF+8vzsF2ECDH9mW45XIoFIVSKVhewD14CryqMV2O0r7b1Tp061v0+G2bNnW7nK5A5U6jErrJtVmHPz7rvvRtbMh9laXVst52zAgAF2n9k3rn+q7HjNXA9U/SF9nSx14Zxwbp944gkrl6mePPHEE+2+++s5GctYighfBOnHH39sZwymeq+0V9pJ0ilKMUaSTlFKVSTphBBCiPJFiUg6hIMTGIidTEk6KpUuvPBCK02IG2TfpUGDBqHSCSHWtm1bK4d4DFKNCRaCUKWEBGSmVURR2Do+zNhavXr1mH3wg1yhsi1snxA6tLlS4ffss8/aKr4PPvjAPj+SiDZYxiRjjLcff/zRboNKKiZmoDWX7Z9zzjl2ggpmJ/WPBa+TCRRYRkUYlVzdu3e3UsuvzEMSMYlHIiGGEEVCsT7Sj4owZpl120Ai8joKg3WcuE0U2nQRZongNQ0ePNjuixujEOlKlZrbzj333GMr9JIFiUv7KccW0eeq+gi/R+D5PPLII9F1eF5kGfvF+IC0XXMOnEz1gyDlOHB+kJ1IT1fth2zj71wDTZs2tecrWGFJ2C7Sj/fYlVdemXZbdq4gSacoxRhJOkUpVZGkE0IIIcoXJSLpqOxybaOZrKSjza9ly5ZWUCClCNKDyiOqub788su4wmnSpElWrCA/3n///Q0moHDweKReInHloPXz/PPPt22f7AMyiyBPmKG0cePG5vvvv4+svSE8D2KG15Xsc1LZ5iaOQNKxD1TkuUo8Ku6YhAKh54NAYqIOBCXnhqouxlELqzz04fl4bcg9qrwQhrSRUmVG2yZtw8nA8zMO21FHHWUr/hBZfvgdQvedd95JqjKM4+XDsaOqzk0AMXr06MiS5OjTp0+0co7XyvGhCpKqRkSrPzEHMNYd7a5cfy+99FJ0f9q1axetGHQVcPvuu68VnDfddJMVsVRoBsfkC8L1yXP27t3bCj2OPQKT7fnyjwrKRK3BpQFJOkUpxkjSKUqpiiSdEEIIUb74L49il3SIHMZbQyIxkH8mJQIVS7S6UuGFQOrVq5dtUUw0GyggcahYQn5kakwvtkOl25gxY8zIkSNttRVBFvL74pAnVF8hBmnzRTpSXcgxYUw02ldptwwKLB/2iQo0ZCUtk4UJMar6kEsIKdoseT6OIbKpb9++Kb1GKhWZxZU2TVpC/WSidZP9ogKSqkSqB1OBMfqQbU8++aRp1aqVrXCkVZgxC5m8IQyONc/lJu2AxYsX24k+qOpE2HG+aAVmHSozkxGxQThuiD1EMxWEtOLSss0Mt2FjMJY2JOkUpRgjSacopSqSdEIIIUT5okQkHZIIsYDA4Wc6YiIRbN8l09vOdZBYHFdaOanGcq8fQZXKsWD9RDLPgYjkHCKYkJzuOfiZi8ee10TVXjrwWjm+LslsJ+wYcqxIpmRwEPbLvb+SOYe5jiSdohRjJOkUpVRFkk4IIYQoX/yXR7FLOiGESBZJOkUpxkjSKUqpiiSdEEIIUb6QpBNC5BSSdIpSjJGkU5RSFUk6IYQQonwhSSeEyCkk6RSlGCNJpyilKpJ0QgghRPlCkk4IkVNI0ilKMUaSTlFKVSTphBBCiPKFJJ0QIqeQpFOUYowknaKUqkjSCSGEEOULSTohRE4hSacoxRhJOkUpVZGkE0IIIcoXknRCiJxCkk5RijGSdIpSqiJJJ4QQQpQvJOmEEDmFJJ2iFGMk6RSlVEWSTgghhChfSNIJIXIKSTpFKcZI0ilKqYoknRBCCFG+kKQTQuQUiSTd2kXDjFk93ZgVkxRFSSf/TDafffVVVNL1HbPALFxqzLzf/1MUJQfzw2JjZi/8x3QbOEeSTgghhCgHSNIJIXKKWrVqxUi6Hm3q5Eu6EbeZVb/0N+uWfm3W/TlGUZQ0sn7FF2bEF59bSXdjq6HmvVE/mW8X/WumzV+jKEoOhiq6id+vNC/1nylJJ4QQQpQDJOmEEDlF3bp1zVZbbWUqVqxo89azp1lJN3PQpWb2kKvNnKHX5uUaRVHSyPefXm7e69XK3NVxqLm93Shz9/OfmaYvjlYUJYdz7wujTZPnRlmx/mJvSTohhBCiLCNJJ4TIKb766ivTv39/M2jQYDNw0FAzcdCdZtbAC83MQZeYGR83yEt9RVHSzLeDzjW93m5h7npuqGnU/jPTqN0Ic/uzw01DRVFyOo3ajzA3tR6mSjohhBCijCNJJ4TIaf7+/gOzcGJL89uUdoqiFDFLprU2X475wLw2cLp5ecAc0+3j2YqilJJ07jvDDBn/i1n3X+QfSCGEEEKUOSTphBA5Sd5nk1m+fLlZsniRWfzHwrz8qihKEbMk7730+++LzG+L/jC/LlpsfyqKUjrya14W/bHY/Pnnn4qiKFnP0qVLzbp16yL/cxdCZApJOiFETjJnzhxz4oknmh133CkvlRVFyVB22mknU3mnHRVFKYXZKS877LCDoihK1nPUUUeZadOmRf7nLoTIFJJ0QoicZMaMGWb//fePmelVURRFURRFUZTsZ8899zSTJk2K/M9dCJEpJOmEEDnJzJkzzaGHHhr6nwJFURRFURRFUbKXqlWrmsmTJ0f+5y6EyBSSdEKInIRKugMPPDD0PwWKoiiKoiiKomQve++9tyrphCgGJOmEEDnJ7NmzTc2aNU3FihUVRVEURVEURcmhHHLIIWbq1KmR/7kLITKFJJ0QIidhZtfPP//cDBgwwAwaNEhRFEVRFEVRlBzIxx9/bEaNGmVneBVCZBZJOiGEEEIIIYQQQgghsowknRBCCCGEEEIIIYQQWUaSTgghhBBCCCGEEEKILCNJJ4QQQgghhBBCCCFElpGkE0IIIYQQQgghhBAiy0jSCSGEEEIIIYQQ4v/ZOw8wKYqtDf8GEAUTYARzvHoNYNaLOeecc86KEXPOWTGhCCZMGEFEEVCMiGQREBBzIogkQcDzz1tMDbVNz0zP7uzOLPu9z/M9y05X5+pm65tzTgkhSoxMOiGEEEIIIYQQQgghSoxMOiGEEEIIIYQQQgghSoxMOiGEEEIIIYQQQgghSoxMOiGEEEIIIYQQQgghSoxMOiGEEEIIIYQQQgghSoxMOiGEEEIIIYQQQgghSoxMOiGEEEIIIYQQQgghSoxMOiGEEEIIIYQQQgghSoxMOiGEEEIIIYQQQgghSoxMOiGEEEIIIYQQQgghSoxMOiGEEEIIIYQQQgghSoxMOiGEEEIIIYQQQgghSoxMOiGEEEIIIYQQQgghSoxMOiGEEEIIIYQQQgghSoxMOiGEEEIIIYQQQgghSoxMOiGEEEIIIYQQQgghSoxMOiGEEEIIIYQQQgghSoxMOiGEEEIIIYQQQgghSoxMOiGEEEIIIYQQQgghSoxMOiGEEEIIIYQQQgghSoxMOiGEEEIIIYQQQgghSoxMOiGEEEIIIYQQQgghSoxMOiGEEEIIIYQQQgghSoxMOiGEEEIIIYQQQgghSoxMOiGEEEIIIYQQQgghSoxMOiGEEEIIIYQQQgghSoxMOiGEEEIIIYQQQgghSoxMOiGEEEIIIYQQQgghSoxMOiGEEEIIIYQQQgghSoxMOiGEEEIIIYQQQgghSoxMOiGEEEIIIYQQQgghSoxMOiGEEEIIIYQQQgghSoxMOiGEEEIIIYQQQgghSoxMOiGEEEIIIYQQQgghSoxMOiGEEEIIIYQQQgghSoxMOiGEEEIIIYQQQgghSoxMOiGEEEIIIYQQQgghSoxMOiGEEEIIIYQQQgghSoxMOiGEEEIIIYQQQgghSoxMOiGEEEIIIYQQQgghSoxMOiGEEEKIEpD6G8xmz56dSHPmzHHthRBC5IZ35rRp05xmzZqV/jQ5f//9t/3555/2xx9/2Pjx42369OmV2o4QQlQGmXRCCCGEEDUMg8jevXvbgw8+aI899lhOPfLII9a+fXsbMWJEem0hhBDZ+OSTT2z//fe3Qw891Lp06ZL+ND8Ycq+99pqdfPLJtssuu9j2229vO+20kx155JF222232QcffGAzZ85MtxZCiOpBJp0QQgghRA1DhAYDvwYNGjgttthiOdWoUSNn1AkhhMjOP//84wy1//u//7OlllrK7rvvvvSS7BCp3KdPH2fsNWzY0BZaaCG3fqj69etb8+bN7aabbrKff/45vaYQQhQfmXRCCCGEEDXMkCFDbNttt51vIJhLRNUJIYTIzsCBA22zzTZz78wll1zS7r333vSS7Hz44Ye2ySabVHjfYsph2C2++OK28MILZz7nS5Pjjz/efdEihBDVgUw6IYQQQoga5p133rG11lrLDfqWX355l1a12267uRSrqEi32muvvdw6Qggh5pIax7rIualTpzrT7L333rN99903Ewm3zDLL5I2k++233+y4447LmHCYcrxv27VrZx999JG9+eabdtFFF9kaa6yRabPsssvaQw895PYvhBDFRiadEEIIIUQN06FDB1t66aXdgO+YY46xn376yaZMmWITJ06M1aRJk9xgVAghxFy+/fZbl356yCGHuMjkZs2aVUhVTWLS9ezZ00XH0R6D7rzzzrPff//d1Q31zJgxw7p162YbbLBBZttbbLGFff/99+kWQghRPGTSCSGEEELUMPfff39mYNimTZv0p0IIIZLy9ttvW+PGjTPGWVT5TDpmbb3xxhsz7bfeemsbNWpUemlFmN2VbXkTcOWVV3ZRdkIIUWxk0gkhhBBC1DA33HCDG+gx4HvggQfSnwohhEhK9+7d3WQO1I5jch1q0PHvRRZZJJFJR6rr0UcfnTHpiGrGjMsGJQe8Kch+br755vQSIYQoHjLphBBCCCFqENJWW7du7QZ6K6ywgr3xxhtudsFp06bZuHHjXG0laiwpvVUIIbLz119/uYki+vbta1988YUNHjzYXn311cwkEJQUyGXSkS67xx57WL169dws2xdeeGF6STw9evSwpk2bum2TGnv99denlwghRPGQSSeEEEIIUYMwsDzhhBPcQK9ly5bWvn17V6T8qKOOslatWrlJJA499FC75ZZb7Msvv8wZ2SGEEGIeGG877rhjIpOOep9PP/20XXvtte59+/7776eXxMN7GkOPba+00krWuXPn9BIhhCgeMumEEEIIIWoQJonYb7/93ECPAR9pU/Xr13e/h+Kztdde2+69914XXSeEECI3Y8aMSWzSpcbB7kuQmTNnusjlcLKIKETrbbnllpn3M1+wjB49Or1UCCGKh0w6IYQQQogaZMCAAbbNNttkBntepE9RV4mf4QyFTDBxyimn2A8//JDeghBCiDgwzpKadEnAuOvTp49tt912mfcyte748gSTTwghio1MOiGEEEKIGqRLly62yiqrZEw40qYuuOAC69mzp6uvxIyBZ555pps90LehEPpll12m1FchhMhBMU06op6ZiXuNNdao8C5msonx48enWwkhRHGRSSeEEEIIUYN06tTJmjVr5mYipMD5iy++aDNmzEgvncv06dPt9ddfzxRAR6uttpp17do13UIIIUSUYph0vH9fe+01VyN0iSWWyLyDiXQ+44wz7Lvvvku3FEKI4iOTTgghhBCiBpk8ebKNGDHCzUY4atSorHWQUn+juWLmvl7doosuanfffXd6qRBCiChVMel451KOACNuqaWWyphzRM/xhQnb4v0thBDViUw6IYQQQogypUePHrbuuutmBotXXXWVzZkzJ71UCCFESGVNur///tuef/5523DDDW3hhRfOvHNXWGEFu+SSS+zrr79WuQEhRI0gk04IIYQQokwZPny47bTTTpkB4+WXX66BohBCZKEyJt3EiRPt6quvrpDayrpHHHGEmzQiWo5ACCGqE5l0QgghhBA1BLWOmKV1zJgxrq7R1KlT00viYSKJbbfd1g0aie64+eab00uEEEJEKdSk40uPxx9/3M2q7Q26zTbbzF566SVNDiGEKAky6YQQQgghaoj33nvPNt10U1tmmWVsxRVXtPbt26eXxPPyyy+72V8ZODKIfOSRR9JLhBBCRCnUpPv8888zs7dSe47I5f79+6eXCiFEzSOTTgghhBCihhg5cqRtv/32mYiNs846K2s0HZ+fc845ttBCC7m2a665pnXr1i29VAghRJRCTDresddcc03mfbzlllvKoBNClByZdEIIIYQQNUTq7y5r3bp1ZlDYtGlTu/32223cuHE2c+ZMN9MrP/n9jjvusOWWW861w6i7+OKL7Z9//klvSQghRJRCTLqvvvrKpbbSlnIChx56qJt5GzFRRDaxHm2oZSeEEMVGJp0QQgghRA1CIfKWLVtmjLqlllrKWrVq5WYQbNu2rV1xxRW2ww472JJLLplpw3Lq0wkhhMhOISZdz5493eyt/j3bpEkT++9//2sbbLBBTq2zzjou6u7pp59Ob0kIIYqHTDohhBBCiBpkzpw51rFjR5e+6lNZEf+uV6+ei+jwnyHaPfvssy4KTwghRHZGjRpl2223nXt3UsfznnvuSS+Zn86dO9tiiy1W4X2bVPXr13fRzkIIUWxk0gkhhBBC1DCktH7yySd21FFHuYg5BoresOMnv/P5YYcdZh999JHSXIUQIgFjx461Aw44wJZddllbffXVrV27dukl8/PKK6+4CXxoi5jQJ6nY9mOPPZbekhBCFA+ZdEIIIYQQJYLC5f369bOnnnrK2rRpY2effbb7+cQTT9jgwYNt2rRp6ZZCCCHyQaTy5MmTbcKECa5m3IwZM9JL5odltKFtoWK9v//+O70lIYQoHjLphBBCCCFKDANLousY9PGT34UQQgghRN1CJp0QQgghhBBCCCGEECVGJp0QQgghhBBCCCGEECVGJp0QQgghhBBCCCGEECVGJp0QQgghhBBCCCGEECVGJp0QQgghhBBCCCGEECVGJp0QQgghhBBCCCGEECVGJp0QQgghhBBCCCGEECVGJp0QQgghhBBCCCGEECVGJp0QQgghhBBCCCGEECVGJp0QQgghhBBCCCGEECVGJp0QQgghhBBCCCGEECVGJp0QQgghhBBCCCGEECVGJp0QQgghhBBCCCGEECVGJp0QQgghhBBCCCGEECVGJp0QQgghhBBCCCGEECVGJp0QQgghhBBCCCGEECVGJp0QQgghhBBCCCGEECVGJp0QQgghhBBCCCGEECVGJp0QQgghhBBCCCGEECVGJp0QQgghhBBCCCGEECVGJp0QQgghhBBCCCGEECVGJp0QQgghhBBCCCGEECVGJp0QouyZOXOmTZ06VZIkSZIkSZKkEmvKlCk2ffp0mzNnTvqvdSFEsZBJJ4Qoe9q1a2f77LOP7b777rbnnntKkiRJkiRJklQi7bzzznbSSSfZt99+m/5rXQhRLGTSCSHKnosuusgWWWQR+7//+z9JkiRJkiRJkkqsNdZYwwYNGpT+a10IUSxk0gkhyp7WrVvbwgsvHPsHgiRJkiRJkiRJNSuZdEJUDzLphBBlz8UXX2z16tWzxeovYos3WFSSJGkB1SK22GL1rF79BrZoSvyUJEmSqk+8axdeZNFYE0rKLZl0QlQPMumEEGXPBRe2tmYrLGlXnrmJdbhtR3vshlaSJEkLnNrftLVdc/mRdtAZN9k+p95p+512uyRJklRN2v+MO22fU26xDbbaJ9aEknJLJp0Q1YNMOiFEWcLMUR9//LG99957dsABB9naqy1jr7Xd1b7rdbR93e1QG/b2IZIkSQuUxryzn73e6Uq76P7udvY9feyce3rbWXf3kiRJkoqss+/pZefd92HqPdvTjjn/Ttttt11tjz32kBJqp512shNPPNHGjBmT/stdCFEsZNIJIcqSESNG2JZbbmmNGjVyqa5rNF/S3npsD/u+99E28t1j7Jsex0uSJC1Q+r7nUfbWKzfaxQ+850y6Cx/sY5c8/LEkSZJUZF300Efui5ALHvjQXuwx3KZMmSIVqGnTptmcOXPSf7kLIYqFTDohRFkybNgwW3/99eeF1Ddf0t58ZA/79v3D7Y9hD9qsCX1s9p+f2uyJH0uSJC0QmjP1Y/usXx+7pG1vO+mW96zju6Nt1G+zbMgPMyRJkqQiaeQvs+zd/n/Yabf3sPPv+8Be7/Nt+q9PIYQoPTLphBBlyddff23//e9/Y026CSMeN5vS32zaYLOpAyVJkhYM/TPIvhjY1y5p+4GdePN79nzPsfbLZLMxf/wrSZIkFUk/TTL78KuJGZPu1Q9Gp//6FEKI0iOTTghRluQy6cYPf9T+/esLsykDzCZ/KUmStGBoRn/rO+CzjEn33Pvf2o9/mn3z22xJkiSpSPp+glnvIRNk0gkhyhKZdEKIskQmnSRJdU4y6SRJkqpdMumEEOWMTDohRFkik06SpDonmXSSJEnVLpl0QohyRiadEKIskUknSVKdk0w6SZKkapdMOiFEOSOTTghRlsikkySpzkkmnSRJUrVLJp0QopyRSSeEKEtk0kmSVOckk06SJKnaJZNOCFHOyKQTQpQlMukkSapzkkknSZJU7ZJJJ4QoZ2TSCSHKEpl0kiTVOcmkkyRJqnbJpBNClDMy6YQQZYlMOkmS6pxk0kmSJFW7ZNIJUXz+/fdfmzVrlvtZCP/8849bT8xDJl0C6DSffvqpvf766/bmm2/azz//nF6SjClTpljPnj3d+myHjihEHPSNQl9sCyoy6SRJqnOSSSdJklTtkkknRHFh/PrVV1/ZXXfdZZ06dbLPPvvMeSazZ89Ot4jnr7/+sltuucXuuecee+211+zLL7+0SZMmpZfWXWTSJWDatGl24IEHWsOGDW2ppZayLl26pJck44svvrC11lrLrX/ooYe6zlgoHMO4cePsjz/+cD+rU+xjwoQJNmfOnPTe4/n7779t+vTpNa4F1cj68ccf7aabbrLnn38+ax/hmk+cONHdn2KIbZWraSyTTpKkOieZdJIkSdUumXRCFBeCmh555BFbfPHFbYkllrAll1zSdthhB/v+++/TLeIZMmSINWrUyBZbbDHnlTRr1syZdXUdmXQRMH8wp7z4HTd31113zZgFr7zySoU2+dSnTx9r0qSJW3fPPfe08ePHz7cfxGdx8PlTTz1lu+22m7Vq1cp23HHHatX2229vBx10kP3666/pI5if3377zS688EI7/PDD7ZhjjqkRHX300XbUUUfZQw89ZJMnT04fyYIBhtlxxx1n9erVs2WWWcZuvvlm+/PP1MgsQufOnW3//fd392jnnXeusnh5YiKXIzLpJEmqc5JJJ0mSVO2SSSdEcZk6daqdccYZmXEb2mmnnVxASDbwPzp27GgLLbRQZp3GjRvbiBEj0i3qLv+mqLJJh2EzevRo++6772zmzJnpT+em7hH5RBTYjBkz0p9WDoyqH374we2HiKN8oZOVgZDMF1980Tp06OA6DHrmmWfsscces4033th1nIUXXtjOO+88t+zpp5/OtIsTy9EVV1zhHGLWb9GihXOZn3vuufnaYkrQWaNw7ldddZXbt+/A1S0ekLFjx6aPYH4++eQTW3nllSs8VNUt9oX22GOPnAZiFKIDx4wZY99++63rj9XFL7/8YqNGjXLPQaHRaYQEb7HFFplzrV+/vjNB6esh9913ny299NIVrktV9fbbb6e3Xl7IpJMkqc5JJp0kSVK1SyadEMWFTLytttoqM24j8KR169Y5PRuCbjD2Qj+BQJSq+kYLAlU26TDoDjjgANtwww3tsMMOy4Q0EvL45JNP2pFHHulSPK+99lpn1lUWzL9zzjnHNtpoI9t3331t+PDh6SXF45133rHlllvOFl10UdexQoWdZ5FFFplveS7R3q/LduLaEOJJhFicuYNJd8cddzjjzIeQJhFGj98vBl8h666xxho5w1OJDlx++eUz22/QoEHsdrwIX/WKW55P4TXcZZddEpt09LmTTjrJ9U+iGAcPHpxeUnzo45tuuqmLRsR0KwT6N9f0f//7X+Y8uX+nnnqqM/889957b8ako99g/pKCTUixF8uXXXZZJ/4dLvOij/v9yKSTJEkqE8mkkyRJqnbJpBMhjLUxhqgjj4gKq4z8umHQEmBUhcuTyLfNZ1ixHLMLk4yoNQJSCglm4twJMunbt6+rB0fGX2VgXcb5ftzGOBRvJRcEYG299daZdfATrr/++vTSuk2VTDrqY1133XUZAwUn1Kch0mFOPvlkZw5hTLVs2TI2fS8pRJiR8onRxL6ILGP/xeTdd9+1VVdd1ZlCmBtemCChqYF5wmdhm1zCSPFRcGwnui7LMeDat2+fdWaT33//3d5//33r1q2bde/ePZFuuOEGZ8iwXx6Al19+2W0jrm0oHqhevXrljDr76KOPbMUVV3TbXmeddVwEItF1H374YQVhPPXu3duZS1deeaUrDNm1a1e3PsuyKVyftmeeeaZ7cNkfab9JTDpeOm3btnXXm/UOOeSQgif9KIS33nrLVlppJbev008/3aWwFsrQoUNt7733zpjCPFucOy8xzieMpCMFmBcikXu8XL3I7ee6ffDBBzZo0KAKy4gopKgnRjfbQDLpJEmSykQy6SRJkqpdMulEiJ+8gPRMygEREFIZEaixzz77uEy8EMZkZIKx/bj14kTb3Xff3e6///70ViqC58K4/fzzz7dtt93WmjZtaquvvrodccQRbvxLRhxjx3ww3iJjEM+A9ZPW3mfbvlwXnsydd95ZIeuPABm8H9/Otw1hQk0y8/w6+CHs37fPpSTnVptJnV/lTTocVyKuuKiYE5gDHky6E088MXPRuflVMekgdFvpiPnc2ULBOcbcYCZWTCqEUYSJ4VMR6Xw4vDxsmEfeTIqTN5xIb6XTsT7HzwyxrOv3wf7YHg54MeG4/X6JdqyMaZSN0KTDgMUoygZpptQ+wyxbb731KhUFSUowjjz7S2rSffPNN7b55pu7dTBeMSir84GmdiH14tgfkZG8oHmJFAovVaJSQ2P36quvdlGBoelI2nVcbb5nn302U7+Qc47CMWHwsQ0kk06SJKlMJJNOkiSp2iWTToRQGok6637MURUxBiQwxUNUW7t27WLb5hNjwVNOOWW+8SueyNlnn+38lzCQCBHoQVATaaOYeLnGvowjMfn8utttt918pZbiYJuMsxnrMu7E68AP8NvhuDEOGb/TxpcII1DHj125Lg8//LDLDPPr4VsQAOZLhmUTpcleeOGFCtlmCxqpa1w5k47wSyLluKBE+2AihKmamHSkGfqIINIAq2rSYS48+OCDmYgq3OokHamqEG5KqqQ/10InjsDQWmGFFdz6RDBV9TokJTTpmJ02V+HGQomadNnq1xEZSESfj4DkW4GPP/7YRXVhwsSJuoPR0F4e8EJMOq775Zdfnkn5JcqzJqZz5oVByjT73GSTTSoY14Xw008/2X777ee2g9q0aeNMOl5m3qQj/TuuL/Efg3/hcTxRCMFmAg6/bZl0kiRJZSKZdJIkSdUumXQihECZgw8+ODPmqIoYe1KP3sP4DeMprm0+4aPgp4RGG2M/6paHpaCyCf+FoKpsEMm22mqrubZMXIjhlgQMNsbmZAMyxseb8Z6PF2NRloXabLPNMsE6BA/ttddeFdZhG2wrul6c8FZeffVVt60FkUqZdHSUl156KWMWcHP79euXXjqX6jDpgLRPX5SQ6KhHH33UGTLVSWjScT7HHnusMwsxTKgjl01EPSGKJvocbYyXmjLpcKvDSLrK5pjHETXpiJaLA7fbp4AiUjXXXnttW3fddV2arNf6669v//nPf9xPnP9of2I7hZh0RJCtssoqrj3rkSZcExDuyz32/f7GG2+s9GQVfENBaDQGI5GKPHeku4Ymna89gAFJqDa64IILMt+qPP7445nPEceHZNJJkiSVoWTSSZIkVbtk0okQ/AXSVP2YoyqKmnSM+31gU2UUmnQEv1D+y09I6eXNrTAqzQsPAC8jCgFXYRQdWVx8lgRMOsp0hftJIjLqGN8B48+whl2hwgeKC0ZZUKiUSUdoIUaKv0jkPmMAhFSXSUcnxZjznRODp7qn6SUs05t0XoRxJpW/BggDp5gRbbkopUnHfaIWnZ8VF3HPeBgJAw7FS4Xr5NtxzKQBhxRi0vGCof6c396uu+7qwoJris6dO2eMSaLquFaVhfDr8IUZmnTnnnuue6Yw8TA+vdHp6xAi7hGfIZ6Vm266yf1HdPzxx2fayKSTJEkqE8mkkyRJqnbJpBMhjLeOO+44N9ZkHJpLTZo0cWW3+Lcfo4QiIIVgHg+TbFJjLmzDeJhxG+McarfFibEb42ii8DxM6hhOtIAYX5OqS2AGNfsJhAmXc05xEWeU2/JjRurC8XtSMOlIOY1G8+F5RBUu57wIQsELqWrkIuNhgsYWVAo26TBfuCC+eD0dI+6mxpl0YbohTjARPYSA8jNuVtNsYMqFg/eLLroosfNbGaImHcYS7m1S0d5fh7pg0hHZyMsgNOiI7Lr55ptdPT5MLCaxQK+99pp16tTJ1U/zbbm3TKAQUohJR39kAhDact3ZPv02Kbx4SAklQo1+TF8tJFqTYyMV258PhhjGWDEITTpq0mHSRV/WuXTWWWe54zvhhBMyn8mkkyRJKhPJpJMkSap2yaQTIfgQw4YNc2PIfCIIBcWlsBLJRvBEOOYmG8qnlHr5rLGRI0e69M9swvPA5PP0798/Mx8AIu3z4osvdiajH79Sh2755ZfPtCGy75JLLqkwFibgKpxEkAyrQryUOJOOfbIdMg6pfc5PMsLCaLmNNtrInROlr8IJIwjW4bzwFOJEmiy+Qrg/xsN4CQsqBZt0RMxxwf0FYibKuBDKqEnXokULty4dgBtzzz33uE586KGHunbULSMlkRpz+QwVjD1uvt82A3k6cnURmnR0DowSao0xSyY/swmjiTbkd3uzbEE16fwMMrwknnjiCVtzzTXdslCYa+TFh4YXBhizoq611lquDQ/c888/7x7+kKQmHdvmmxDfN0iNThJFx8sZo5FrxrcfvMwwsjDCbr31Vrf/zz//3J1fvv4JpDhjznIMzZs3j42m41gx2TgXXsBRYezxHIXERdJdeuml7mVPxCDXhpl5wmfDf049QNKw6QdcI5YjmXSSJEllIpl0kiRJ1S6ZdKIqDB48ODM5YSg8EqLdQjD/wowxxmiYWYUEgHjINPO1zxHm35dfpv52CMCXCSfvRAcddFCFMSVBMn5cTWALtekKIc6kY7yJ10OQC14NPxn/hgYlQVv4QKFHhPANaMv62TRmzBiXOebXYTzMPAELKgWbdMxa6qPoSFMkHznOtIgz6TA5yMnGOcXV9cv4ye9sl5lAcEXzRdbRxqe84tByk5KYJ5UhatIRCUbn5OHiZzaxHNHpwokjFkSTjm8JeCnx0vH3BW2zzTbO/fY10jBduFfcX8RsN4T7sowXGJMe+FlfQpKadJii4TcMt91223xGVxSMN2bs5Tgpmhn2TcSx800FNe7Y9xtvvOHMxVzwEm3WrFlmG9QmjPZp9osJSJ//3//+56IJvZhdh2Ka0ZdmtCYdJh3nx8uLlzImOJGlnANtuL5cTz6nDd+w0F416SRJkspQMukkSZKqXTLpRGVhHM+Mq+FYEWFGYUBFoU562A7/5JprrkkvLQwi+LyngAgE+eyzz9JL58J4j2CmcJ+klvrxMJNk7L777u5zxovUzyvUMMTniJp0eCVRL2bgwIEVxuWk4jLpRViaiW2cfvrpboyaC647pZv8evhGeDILKgWZdFw8cp294YLZls159Sadd47pRKTlefMglzA3mKY3lxFCdJSv+8U+KHyIY1sdRNNdmSmVmUOZcZOf2cRydPTRRzuTh3VrMpKOcFdv0uGgx5lflSU06TC3MOkwYYni4jPSfKlVSIQjuee8HPy9J5cfM47wXB+Oi9FKf8k2W29Sk+7+++/PPPiYhRhqueBFxYvW3x8vXrz08/Dl48U3DnwDkcsU5lrzbYFfB1MMUy6Eaxb3LYwXLx+M1pA4ky4Kfc5fa83uKkmSVIskk06SJKnaJZNOVAbGUGQleS/Eixp1Tz75ZLrVPDC/MLPCtoyDGZ8RQMF4lvRPIvMYM//88885/QxML599hhjvMY796aefXDAIEWwEw4QmGG3wbwBzjdp1fnxLjTgi/QolzqQjijAakEJKr/cGGFsTDBOajIgoukGDBqXXyA4ZZmGmHuNkxuMLKgWZdERiEcroLw65wRgwcURNutBtJl8bJ5Uihzi9FEb0qYFeRC316NEjqxFCHbsw7ZbZQjBcqoOoSce5cF6FyK9biEnHg00dP657IWJKY8QLwBtbRGX5Qo1x6+QSL4vofYiLpOPBxHzjAbrzzjsrmFK8PDDlfF46fcC/4DDIyOtnX9lIYtJ588n3NfpQ9NuFEM6JCDoMRdojXmREshGNhiF2yy23uJTsMLQYeWMyF9Si88eCGUmUXwhG88477+yuCYail+8v+Uw60l2pTUAKMRGu3BPOlxR0lrNvXsos45udPn36uDYYoTLpJEmSylAy6SRJkqpdMulEZWCcFUZzeTEzKhFsURhDU9IrbMv4+e6773bBLGScMdZhmxhmZFddcMEFzozDCIvCGI5sq3B7ROYxNr766qtdxiLj33A5pqAfT1IDjzEsn3vzLmqsJSGbSRcNsCIV15t0iHTVs88+OzP25icl0JKASRemzsqkC8BkwAzzF4dQScygOKImnRcXlxBPOhluL8LMwXwI0wMRNztbxBSdg4kIvLlHB/3ggw/SS4tL1KSjsxEllVQ8eL4TF2LScW2J2sOcqowwfLxJhCmGex3XLp94gKN1B6MmHTXpgHZ8E+AfeIxGzoOXDffLrxOKfdx4442ujh8vuDhjNolJhxHIy81vl5fQ6NHZ/9PlYadOm2+PWUbf9LXgeNH4byUIVSZl219PlK+/8U2FP2aEaRqeG/vg2wsiEDHa+LYB040+Q3vuVy6TjnDh0047zRmIGJ286FB4jNz3cBl65plnKoRBy6STJEkqE8mkkyRJqnbJpBOFwvidtEw/LvGibNMXX6TGJDGwTjhZH1p44YXnG6+FIoiFFFFqpEd9FsbVRMr5TLlQjPnYdvgZ+2ACB8azjEEfeOCBjCexySabZM1gy0c2ky6aNsu4NjTpGOMy7mUMi0lIYAnjbjLDiKbLlfVHvXY/MSTCpMuXMVebKcikI30S44ALQweiuD5GQxxxJh3OLo5n3DpEQWHEEC7q2xMOSfRPNjAX/PGwn2uvvdZF2BUbXHAi0dgPnRHzhSgoTCF+ZhMdnzavv/565rz233//xGmnmJfhrKel0pFHHjmfsRg16cLZXTG3COHFgCIkmIeWdGeMVNrzwsBAJBTXP9w8qETgkRb74osvullnuO7+YU9i0mFyhXnvFM3MZiIDZiJRnL4932iw32zwMgr75yOPPJLz2wdeQuHxnHnmmYkMWm8cJjHpOEeupd8H4tnkeqLoyxpxHjLpJEmSylAy6SRJkqpdMulEITAeZWJDzDU/LkEYRYx1s8G4srJjecZ7lPOK+gaMsfE8olmIcdpiiy1cKi2QVhtO1Ejd8soSZ9KxL8xK9kdwDqYbk2f68mSIcR2ZfRwLPhEBL7Qnw4ssyzvuuCPr2BqTLgz2YZzcpUuX9NIFj8QmHZ2TC+07Jx0DsyouFBOiJh03kfDNXHnWOKkYMP7iYzJghGSrTUfIaRh9x6QMcTW6kkK6pZ9V0wujjGgsb5xwHk899ZT7HMMlTAuNCoOINu+8804mXZLt0DH5PNwPYp3wXGlDyiShoTxUROQVIh4K//DwEyebByCubZzYLyL1MxrCGzXpCJ8dMGCAM9O4zzjlvADCnH0iuojE5Jw++eQTFwLLNxLsI3zIMfNwyvnmge3xkNPX/LcG2Uw6rnP48N500005+xuz7zIrKteJCE/MwVxguoUhxLfffntOU5hrQkq4b09Is484zEVSk45JJ5hA5d5773VpuUySkUvMUks7vtWgTqI/Lpl0kiRJZSKZdJIkSdUumXSiEJhZNMzW8mLiv1zRaHgIRKxF1/PCJ4kLqPAiVRUzLAo+BCWbGNvjl4RReYy9GSvii5CpBRh9lJ3ybRhrUv8uBA+C7DFKbfEzm/8CcSad3y/Gpf9Jllp4fqT0Mr4D9kEgE0E6/vjxH5gcIw7G/r6WPWKcXK5j2GKQ2KTjRlGU30dDYbhgEKTWT7eoSNSkI9onOkVwFIzARx99NGMEsu4ZZ5zhbmIcmEJhAUEeFDptZeB4CQfFSMG48dphhx3cQ+kNIjoRYa1+Wdg2mzCsCEFlfTot+wjXxWHn2I877rgKJg7XnIcbk6oQ4UgjnH0eEPbLpB10eqLb4tbJJWqvRc3Y0KRj8gNSoXkZ8KLgMy+uF8eAsUYNNUwnzEgPJhdprtSw22ijjVy/Ctdne0TXYTL5QpPZTLrnnnvOvcz8unEzqobQrzhuXH+MK76ZiINz5zjp/z5yE+Uz6Ygu5FsF336DDTZwBm0+kpp0TBxBf6efFCKMS9WkkyRJKkPJpJMkSap2yaQTScHrYIzpPRAvvA3GZbmIzm7qhblFIMepp57qJn7YcsstM15BVJRviqu7z3iOCTyJPqMmHuNoap0TXOOz0jwENvl6bozLQ+OPsTIeDWNttsM4m58EgeC1xAVkxZl0SRSdqIJgnKh3gE8SV/ed8wnLSDFOJstzQSWxSUc6KgUJfQfCSHvvvffSS+cnatKRVpgkyo3opjDPmjTTuEKMwCCem+3b0sErm1tNRw8Nv1KIaLno5AJVoVu3bplrecABByRKtUxKaNLx8sBcfOKJJ1w6KK4595uHnBpvvBh4CIl65EVFPyK8NTTaMGgx7zCMiK5jmxw7EYi47Mz26w24bCYdefbewEJEfmYzkePAcCOS0kcFcozkumMc8wJl/+E3FflMOl4mmLG+Pd8OYHrmoxCTjmeDY2BiCF5UPJNxevfdd92LnH6OUSeTTpIkqQwlk06SJKnaJZNOJIXSVZhffjziRSBGrrJKQCkmgnV8VBn+CeM4PBJKYzEuQ/yb1NaoYYUYD+bK9mJc5yPgqA2PBxOOf/mMEkl+e9THZ5/AeBpzjvF7GJHHT7ImGbs+9thjFQJsIJtJx3pRhcujJh3XlmCcsA3eERNgRP0fxtU++Ahh2DHJ6IJKYpMOI4CaWv5m4B77EMo4vEnnbw4dIlukUgidIAxlJAIsm7lElBnF/H1bwklHjRqVXloYnN9WW23lbn4oOgAK0zbDcE7Ew0MbTCV+8nu4jfCB4/r59mEbxGwthNMWC8wXb9IxAUW+F0khxE0cwcNEdCVmEQYL9xJzl5cGNdD8NaRPcI+JIsQAi0Y/8qJhe0T+YZTRl6gDwDVj/WwmHfn5Ya2At956K70kN3yDwH7or0RN8s0Ghi0vLLaX7ZuNfCYd58Wx+vZ8g4FhmY9CTDrCl3kOMUV5JolE5KUainNgGZF8/GfBi1vprpIkSWUomXSSJEnVLpl0IgmYUQSa+KAjL8ZiuWrReRgbM/ZjAkKCZ6jNT/BJGOXmIf2U8Xq4H4R3QAALAS2VASPLj6EJmPHGFv4KY99w7Bwnasj7MacnzqRjbE99d8aYBIPwk0lGMSd9m6hJBwRo4SX4NogxOBMuhnB9wmPF42D8vqCS2KTDODn88MMzphs3LFfUlzfp/IVk8oEkJh1ubxgWivuczVz6/vvvnbHm24Z5zoWCcYGZxL58LTn/O1FIfoIBjKYrrrjCOb++LdFX1Cuj0/fs2dMZSH4ZRhWzs/iHA/OHh5NlbJ/9+LY8yJV9AOPA4Akj6aIueFXINnEE1zEKn/FAXnfddS6E1R8TwsDEiKXOH98iZIMXZD6TjnTa0FDjhZgP+gs5+pxL9AUcCvOLNuH285l03F9SgH17Xoy5JkLxFGrSsU1flJNz4JqG8vunDbUAuR8y6SRJkspQMukkSZKqXTLpRBIw05iB1I9FvPAFomZTMSCtNhy7IbyXQw891AW+FArjZQKl/LYwz4iiw6chnTUMQvKKRschDLiXXnopvdV4k27XXXd1Y188Iy/8Ap9mi+JMOiBzLZycEeEBhcFXeC9Rk45MsgWV1Hg9uUmHO+pNunw15qKRdJgV0dlJ4sC08uYPol5btjRZoq2oh+bbViWSLhsYPUS40Qk5F+rGYcqFYH5hQpKuyjFEzTA6LGGbPAiYKJhaUfOlOiiFSZcLItZIR+aa0jcwofy9wwQjh55rFUcSk46JFEITLd81JmoRhz98QXGPORYiG6k9yIvtyiuvdBGCpNyGE5XkM+noy35WYFRdkXTcC2bP5TNCpVmHaEYm0iDVldl1Wbbyyiu7lFeZdJIkSWUqmXSSJEnVLpl0IgmMsRg/+bGIF+PqJMFHhUKwT9Ssqsr+CAzy40YfrAFEr4UlwxDjX8agzAew4447zmfg4bn4cTpBRVGTbs8995wvWCdaky+bScd49tJLL60QMMO/8Qt82it16jhGv5wyVEnG1bWVxCYdZgShlv5mELqYKw84atJxY5PUpGNa3jDSijzlbOZedPZMouoqW5MuhA7Gdph4wLu/nPc+++zjUmyjEAHmwzRph9MbBWMPk5P0Q9phct5www3ufMklrw5KbdLx7QPRjjxc0XPk2wAMpIMOOsiZUbyQMJayRRImMemodRc+vHwbEX1ZhDALbWjqcQwnnniivfnmm+64eRHxQuRY2Q6pouG3AflMOu55WMOgGDXpbrzxxsy3CJiaHB+RdN6koy5g9JxPO+00t4yXs0w6aYHRlP4RxbQpN3GcU1N9dvrAlFLvgr8D8fu01Ocsp13c+tKCL5l0UoEa9fucSiluWzWtuONKorhtSVIhkkkn8kFwCdlw3svwYgzPGDAfjGnJlPv9998rKFfQEumbfqLEUIyXfR25pDBW9lGAjHcZN/oxIoEcBKT47XNOZAoSYMLYlkAoApPCc8cUI3MQ4kw6gkKiEzYydmYGWt8mm0kHjL3DCRfRqquu6iZ4BLyGcJzPuJ0a8gsqqXuVfOKIyy+/PGNqcJEIe4waAh5v0nlHFLMoSZQbdcRIpWUdbjwdJpsRggtMtJO/WUTdxc1+khTOhQfnlVdesV122SVjhtBB6TREUw0fPtyZB6T60sn4N+mw3o3Gdca85Fxp49sxqyemFLOl+NlhCGcllPOee+5xpiAdO9v1rAylNOnY1/777+9MVKIoKUr54YcfuvsT3k9eXlwXjKJc3xAkMenuvvvuTN9B1AqIviw87NenMCPuNQZXrhcnEYCFRNJxT5m117enj9B/8hGadN5A43mibxAp51+IGHY8l1xXb9I9+eSTrn0I5jrLZNJJC4y82TWVn4HK1ajjeDHgpg1I9dt+NmP8Zzbtt49tyq99bPIvfWxKSvw+M/U5y2nn2susq3uSSScVKGdc/fFvYo12MhszLqXUn4WlNL388USPMaq5xzzvuL9NHffo1M+4bUpSEsmkE/lgzMpY1o9DvBhzJTGHMOTwQhgL4lH4n3gb2aBmXZjSifAhGLeRYpoUgmOY8MFHwzEG9YEiGGxkh4UGG2P5qE+DzxJG9WHkPf74424ZY8lim3Tw6quvZrwL/BJq2vtyWIyhQ5OOySWLOeFmuZG6xslMOjoGs2d6g4mIMG5+tg4TNekwpDBBskVKAQ7x8ccfn7nh3AiKBtIR4ujfv3+FEErMmyTRenFg2rAv0h/phH6buMbHHnusS3ml0+A6YwR5EUJK+7CT8jufR9uxLUI5ifhad911M+25NhT1v/7664s6cUQpTToeYm+qIfoB0Zc8qEQUYqBhLmFkkUqdjyQmXadOnSq8TDCxsn3rwGQL3thCpKXGbTOEVNPwW4d8Jh3XJEzHZsbauIjDKN6k43yJLiS8l1ReXpZnn3125lsNvt3h2eBbF38uvDCjMOELy2TSSQuEpg2wcWPft359nrWPezxln/bsYB+9295+GPG2/Tu5X/kZWxhuUwfYxB9725DPXrTnnrzZWp97jB203462w3YtbYuWG9j/tt3UDthnR2tz0Yn28tO32bAvXrFpv3+cWTd2u9KCKZl0UkJhWg0ZO9ne7jPEXujSx15+++NEerV7X+v6wWD7sP9YG5xaH5MO4ytuH9Uljr3/qIn2eo9+9mLXj2KPM6rO3T+zLr0HWc++39iXI8bZiF/+cSYj24rbhyTlkkw6kQ/GIX4cHQqzLUkWHBlV1GmLrs9YOG48SAaXH7OFYvycZJKKEIKDKMHF+hh11F/3Bpo38MLUUs4JUzGEjLjQZ8E8vOuuu9JLLTbdNerzYGYWYtLhVeC74JOwL66J94EwGb0PhaiTR0bigkrqvJOZdMBg3uc1E1F3zTXXZC1iGDXpEKl/uSYH4OKHkXFMspDLqSbNjxtEW4yLU045pdL54YRvElLp9832SE8kZZJOS5ipX1YV8ZBgCBK6ecghh1RwyzH3OnfunNPILIRSmXQ8TMzMSlgtkYKYlGFaKeKFgaHGuqeeeqrrW1yXbP0piUnHPQzTUXnRZTNtCfP1x49OOOGETM57HMwowwQX3iBDd9xxR06TDnc/7M/cg3xGIIQmHUYc6/ESxCSkz/hjePbZZ117rrU36TDSuc+EK3thfLNMJp1U60Wk3Mwh9uBdl9paa65iKyzf2JqtvHzqWVnazj/zSPv92/dS//kMjl+3FJo2wGanfmIkHnvE3rZK8xWtYaPFU++/eX/UhKqXei82bLi4rbVGc3c+X33x8tzUWBl1dUcy6aSE+jH1J0v3j76y3fY+0JZt3MRWWKlZIq3cfHVbc+317D8bbWoHH3mCPfd6Lxvx6z8uSi1uP9WhnyabdXrrQ9twk82s6fIrxB5nVCs1X9VWX2s9W3/DjW3HXfe26257yBmNmIyKqpMKlUw6kQvGSozJo3+nYRK1adMm3So3TIZJcE50G4yBqfvGGI39IPwLjLMwGMSLsW0hZhQmHKaeH3szliJ9NYSIvTAqjbp7Xbp0yXgQGHpM6hhOYhGWYeKYoyYdhqQvE+XFuDMcm+cz6dguaa/UsosG2jDOD0060oKLUeasXEldi+QmHRNFhG4oaYzZTJA4kw5DijpsmF7cBA/ReNSXIxU0vNlMxpBt+75z+Gl96fB0pkJCQUOI5sLMIEIQw4M6XpgsvrMSlUUYJwYRP71wjbfffvvMQ8X58juRWWE71qMtD6B3snk4OYcddtjBmZ88REOGDHHLikEpI+m4D/QBjC8iwNq3b++MsG233da58uGLAfE7Dy4hwL169XIvtpAkJh1RiESr+W0yk2z0peQhZDZ8aWy00UaZnPcQ7hXfRhD9F/ZldPPNN88X1hvCyw5jzLfPF3nn8XXs2F8Y1Ul9xhYtWrh/Y9QRiQgUGfUmHdeRl2go/5ImVVcmnVSrNW2ATfvjEzvuqPln2lql2QrWq+ujZnNS//nHrVvTmp76A+P3T+whDMU1ms33/shooZjPUlo09X/hjv9raT1T5zTHp/fG7UdasCSTTkqoHyebvdWzv2262dax75Ak4r204orN7LLr7rTBY6fUWETdL1PNOrzc3Ro3nftFe2W02GIN7D//3dTuffR5GzB6kn07Qc+JlFwy6UQuGIcSWBN97xBgEs5ymgvGW8xaGk1fRYzXSOV88cUX3fbOPffc2Kg9TLLWrVtX8E3ywfjJB4ngTzzyyCPpJfNgPBiWcGJcSRmoZ555xk3G8PDDD9sqq6ySWY4IZiK7C/BHoiYd6aeXXHKJG8tjZCK8FR/ghfKZdLnAH/C1/RFjbAJ8FlRS9zy5SUcUHJMz+ItDlGfOIuMAAOA7SURBVFS29Mw4kw5hqmHu0SExwXBFiRYizDK80Ti65DFnA5eY1D+fa42Bg9FXFTgepiNmOt9obTLcXD4LxQOMWA+jiuPgYeLh4PNoe8R1CaGTE6XFQ4yrnST1MymYL6Uy6aJwnpwbobNETJKaSjgrD1g0yo5+hbEXksSkwxCkb/ntYMKR1hoH/WfLLbfMtKWf0gcxNjFPMYcxTDGVOb8wgs4L04x7z3nFvTxJX/YvZrbvTbV8MKNOdF9EjDLLrH/pEmWKeQjUygsNxzhx/LxcZdJJtVozh9iAj5+3lpvOi1D14v+PR+5rM7c2HWmicevXlKYPshnjPrUbrzoz9d6a98cJWnjhhaxRw8Vt4w3XsSMP2d2OP2pf23XHLa35ysvbEovP+4bQ678brGXdX287N0JQRt2CL5l0UkI5k67XAGu55XaZ98VCqb81MK8WX6JhahC4RAU1SA0KWbbIIhVn7ENLLb2sXX7dHW67o36v/vRRTLqOr7xry60w74vMhRZaOPU39GLuGKPic//3flRLLrmUnXrORTbku5ozGaXaL5l0IhcEFDFhZPR9Q6AJ5baSgqlFKa3odhBjQ8aJKNv7jTFoIQE8jIWZGNGvTw28uGgzUnHDsaAX2W+MzaPGImN1TEuf5kswTtSkQ5wHbb34PRxDV8WkI7IxjOzDK4oG9SxIFGTSYVSFxhsObLapbzGjmCnTX0gMlvCG829f3y10RREuda56d8BN8VFFCHMmV7piUioTiYdh5A0fOk9lJ6/wUXvFoqZMOqLXKhNuyoPOy4t7TToxBhT9AfMuGkH5/PPP5zXpgMlNfH9iW8zUmg22GUa6IUxkHnrOjf4ZvjT5hsEfA2IZ3w7w7Ueck080pW9LVJ//9iEXmN5hiizCXMPUZrZhvqXgM9Je/TXg5X3WWWe5a3j44YfH6tBDD3VtMPbo4zLppFqpOcPstuvPjTWz0MnH7W9/jH3fbGYJU16nDrDZ0wa6CLqmjZepcHzLNV3GTjxmX/ug2+M26afeLiqQaLspv35kE3/oba88c7vtses2qf8fK57fvnv+z0YNeiP10hwav09pwZFMOimh4ky6NdZa16699QHr+PK79kSnrhm1e76LtX2qs93xQHs74/w21mKLba1ho3kTbaEWW2xjb384xL6bWP39Lc6k49gxCu9s28FuSx1nqOtub2vntL7K9tr/MFt3/f/aEg3nZRmgBosvYWddeIUN+2mGjDopkWTSiVwwZvMBOKEIJBk9OnlfITCCII2wFn1SEYARNyFgLj755JNM4AbjYMbYcXBcBM2svfba8+03TmQJhuedzaTLp8qadPhKBKuE+6Oef7ba8wsCBZl0QMSXTzElVJO6WNzoKD6Szl9ITCImTAjrgEWF04oJQe2tfM4oHcsbUDi1RON5d7eqkJJITjURUkmEmRBG0mGExLXLpmh0XbFg8gYeUI6rOk06ClMOHjzYmaRJREQh99efPwYXkXi8xB599FFXa5BotnAdPid1k/3lMumIggzDd5k5N1udO46Bunlx+f+h6OfUO6Q+In06+kIiLXvcuNRfhQFEna633nqZNvT9JPUSeQGF+fZrrbWWi7CkbzPDkP824s4778z0G16UvKSy9Vn6M9fAp+byb1LL/T5k0km1QtMG2vjve9puO8+L5q5Xb9HMl0ZoleYr2IfvPJHqPcPjt1ET+meIdX/9IVt/3XmlIdC6a69mz7S7MT0hxMDUf5KDU//ZDHJRd+5n6vd/p/S38WPft0svOC713pn35RXnePPVZ9k/E/vOXTduv9KCIZl0UkLFmXQtt9jWuvUZat/TZ5i11Su9DpMtDP95hn069Gc7+6Kr3N83ft169erbpVffZr+mxjzhfqpDcSbdFlu3sl79RtvocXPccYYa/vNM+/qnv23QmEnW64tRdt2tD9rqa1Uc9DZbZXVr+9QrrlZf3D4lKZRMOpELxvIYSuE7BjGR5E8//ZRulQx8EsbNBx54YIV3bjYxziQw5OWXX85ZVikKkywQkOG3kySA6d1337UtttgiayQfHguRgGRihcSZdPytyhg2FL5IIZF0bJdj5ly8X8BPUl25Jn47CD8gSRmp2krBJh3miZ+xkouOaRF3gehUFLGnDhs39/7773dmDLnX1NwiXY+CfxhtRDNx4YkOor5WPrONbZNK6EMeWZ/OXww4RiIACXHlYUoiOonPt6aDUjiRqKa4tqEwzrx5WZmcaiLvMKuYMhl3G9cfc4iXB6G41MLzDwZGEveuWIQmHQ8oNdH4lqBQYWRx73lo+clkHXyGwnb0E38uuUw6Hu4wPJkXVHS2mhD6LkYzkzVQb5H9UAeOvskxEA1Hqq2P7KOYJZF+HCvH5Wfljb4Eyf/3piKmNkZbEpgBmb5EP+I/AiaF4D5369bNRfixPY6RWV+Twn8OPDOI88VQZRIMf43Ydjkik06qoFlD7fknb7aVVpw3g/Opxx9oO7aaV4cS3XbduTaH9lVJefU14LySzhhLzbzfP7ZTjj+gwjGtuVoze+ule22ON+ZIyY1bn32l2kz+5UO3jdCA3HTj9axvr46p61AmNfek6pFMOimhspl073w0zL6fZDbqj38riFlQETOiYmRh1B142LGZddHBRxxvv0xLtQ+MvVxykza47c6dZTXpenEm3Vbb7mB9Bn5n36X6uz/WeTIXIfdt6tjR6N9n2SMdXrXV1qgYBbJtq53t48E/uDZx+5UkL5l0IheMp08//XQ35mQ8jZfBv6mzlq1efj4wnqj5hg/C+JGxM4EijBPJ1OJ3stPI0MLIKjTDjhJPlEfCCMRneeedd9JLckOgzIUXXuhKmjEO5zgYA5MFxsQXlOWKEmfSMTamlh1BQkTw8ZMMt7AmHdulVFQ2qCVP2SfSirkWRPBxXE2aNMlsA2EqktZbiIlZ2yjYpKPDMGOIj/bBqInWD/MQ6YMDinzUD+uTB82sHRg9mHJEP9EZk3Z66ppRP8zfqP3226/SKaZR6Iik2/pt14RI281X0y0ODBceKiLZCL/FPKUjk3pLBFboihOhRVRVsQhNuppWLpMOXnjhhcw9pJ/Sx3LBi4Z0XSLlaIsBRjQf/Zrow+hLErOT+oekmWIkYbBihHmIaMOk9aYik2UknZWHFzgvbybZYNvA80P9O3/+1BfAmE0KE6pg0h511FGuSCkGnX9+UbEM7mIjk07KaOoAm/NXPzvn9MNSz9Xc/sC3e8+3v8Uevf9Ka9pkXlrp9tu1sGHMijq78mbWvynNmdQvpS/cz39T+45rN59mDbWP333S/rvBvIEjM7neccN5Nju1LRc9F7deKGawnfWV9evzrLXYZF40bv369azDI9fN3UY2k0+q/ZJJJyVUrki6fCmrGF/MsHrlDfdk1kV77HuIjSxoptdZmWg31otvM7/iTLott9nePuj/bd4JIDACx6bafDt+jt145yNWb9F5NYpI4b365vucSfnNb8kMQ6luSiadyAVjP8bN3sfwYuwdjvkKhTEnY1jGONTlJ5KNiQapL47JRsBNZVI4OSbGsgSFvP766y7Io5BxP21Zn0AOSpkxBsYTiQvEAs6D8aV/96JddtnFtWeZF/MLYN5hRCK8CiZvzAaBNYxzw+3GCVPzrbfeSq+1YFKwSQdcXGbD5CLxTT+uck3mBBP5400YopWKma5H2iJGF5FUzGqSVOR/e8UtjxNONamZRGsRoVUodH5c/rDTRoVRxDH16NGjSi+VKJhYvj4ahs/GG2/szB8MwuoQjro/J0ysXCYdy8LJF0hVLWaqbz54yfJNBPvGKO3YsWNB34bwLUIY9Ujf4JsEtsc3Fnxzwb1PCrPQhqZcKL4lKaS2Qk0ik07K6O9BNvarLhWi5tZecxXr27OjfTesi22z5dz/j9DSSzVytd2YZCJxBFyo6QNt9OA37IWnbrV2D17lUlT5PVFE3b9f2+WtT6wQAbd5i/9Y/z7Ppv7iK8A0nDbA/h7/qZ175hG25JINbamUGi+71NyJMdLL51tHWjAkk05KqKqYdBhdpLVed+tDmXXRAYcea99PShYRNza1D0y12x98ym66+1F7qP1L9tGg7xPVhKuKSef1w19mnwz+yfY/+KgK53DQ4cfb0O+nFGA0SnVRMunEgkYxx/n5YF+k4xIl5w04sgSj410yzT744AMX1YcIDMHszAYm33XXXVfhnR4VkYJktUVLTS1oVMqkIyqOgT+RDFwsDJqkkUJVhZt3xBFHZG4UJlWum10omB+EYeJuf/HFFzUioggrW5fuueeec4YfZiUibBbxb0JdmTAAE7Oy288G0Y9MaEDKMZGAFKrEHCM8uJjC1Sd9l9RpTEH2t/fee7tozFwQYuvTTbk+2SY4qQ7OP//8zLNBRF0uQzEJ9Eki/AiNppYckaSF8N577znTkJcaYtIWahVSR5G+UYiBWJPIpJMymvO1dXj0Olt+uXnT0591yiE26acPXKTbScfMm9UZXXfF6TZjfOqZn16J+m1zhtkzj99gqzRf0RZvsJg1bby0Pd/+5nSaao7+Nm2gmwBinz3nRXmjG6483UUButpzcetl05QvbfSg161nl0esx1sP2/upn98N65pepki6BVYy6aSEqqxJhwFHpNngsX/Zcaecm1mXL3XPvPAK++3vZP2Ndg936Dx31tgGDWyddTewJ57vkqgmXDFMutGp8dnoP+bY9be3tXDG2i233SG1nbFKeZVySiadEFWDqDeMN8aSBFDhaRTDKKRGPcFS+BmYgIxZEb/jOTCRYqF1AWsjlTLpgPRSH61ElE67du1qxMElHNSbL9QQq0nzpRwhF5uoK1IuoyJ9uJgpriGYZxhhd999t3Xq1CnRpAhVgehNJo9gf4Tx5jsvTEkMLZ9yiqlcbKMyDlJmMUfZZ7FDcQk9JuqtkCg64N5gOvPsUHgTEc4cl8pbTsikk5ym9rfZf31phx24S6YvLLLIwvby07en/gcbnnoJDrW7brrAGjWaN3v4TttvbiO+7FxY9JpXap0n215jyy4zt4bGYvXrWcfHr89v0v0zxNWM22SjecXMmfzhzRfvSfXmkfHr5BNmXKi4NtKCJZl0UkLFmXSbpf793qcj7Ocp5lJC59PEuT9H/DLT7nnkWWu2yrwshdXWWMuefOHtxBMv/J76k+qBJ17MrN+s+ar22NOv15hJh9lIym77Tl2tSdPlM9tZa5317dlX3587eUbMepKEZNIJUZ4wziVKjswyxqtkqH355ZcueIfIvELHwbWVSpt0gGvKpA38p0g0XaERPoXCjfGzUmK+XHbZZdVuDol4MGR5SJjkoyYelsrsj4eaPHj6C9F02WonFguO65xzzskU0WRSlVyTVojcyKSTnP4Zaj3fetTWXWvVTF/YfeetbNTA11MP3TCjRlv/j5+zFhvPq9+GideJ6Ld/vy7c3JozzJ565FpbrumyblsNl2hgz7S7Ib9Jl1rvuSduspVWmFfctuUm69mXLtU1dRxx6+RT1KQr9Fyk2ieZdFJCxZl0m7Tcyjp3/9yG/TDZBo7+s6LG/Gn9R02wtz8cYudefI01W2W1zHpEoh136nk29PupidNEMekefPIl+790ndBVV1vTHn/mjRoz6RAm3Rs9+tl/N55XCgHD7o4Hn3LL4taRJCSTTghRzlTJpGNK3DPOOCPzH+Ott96atcBgMSDlj/BH9sWMH5Wp4ybqDphmzJzrZwFmko1iznAbhclQvClINB2/i8ojk05yptT0gdam9QkVJsK56eqzbOaEz+ems6baMGvq8Uftk4mcRaeecKCN++59Z+LFbjubKmvS/fu13X/7xdao4byIvoP23cm++6qLMxpj15GkqGTSSQkVZ9KRdrrmOutbiy22sU0226qC1t9wY1thxWa25FJLZ0pyIN6t1KLr3W9M3lp2ocrBpCNa7qOB39ne+x+e2U7DRkvZVTfdaz+n9hG3jiQhmXRCiHKmSiYdMMskhhm1rphxtTKzlCaBtE6m2qWeFtF7r776anqJENkhXHbPPfd0/WbDDTd0s8xUF6TUNm7c2Bo1auSmnibqT1QemXQSdd7Gf/e+7bfXvJmeSEN97fm7Kk4MMedre/aJG22lFefNzL3G6s3sg26Pm83+av7t5lIVTLrbbjjXGiw2b6bB44/cx34b9e7cY41bR5KikkknJVScSVcZrdx8FbvjoQ428reZiSZ98CoHkw5T8Yvhv9uRx52W2c6i9erbBZffYL9M03MjZZdMOiFEOVNlkw7IF8Y0I/110qRJ6U+LC7WzmKzglVdecYXwleYqkjJy5Eh744037M0336zW9FPy5Tt37mxdu3Z1NQFF1ZBJJ9msr6zbqw+6mVx9P9htp63sm0GvOzPNmWZT+zsTjIi1nVptnmm36KKL2KP3XzF3eXQ2VMw9t26MbLh1fOy6Cibdc0/eONdoY/KHuHXYXup4brv+HFssMOlOO/Egm/B9r8Kj+aS6K5l0UkLFmXREEy9ar57Vr7+Y1atfv4LIKuBnGJWMKNGxbOOmdtIZF9pnQ39xNev8Pqj7NvqPf2M17h+zh556pYJJ98Rzb7l6eHHt0TfpWWOLZdJxrP2/mWDHnXx2Zjuc+0VX3CSTTsopmXRCiHKmKCadJ7Wt9L+qB7Zf3fsQCy7qn7ULmXR1XFP627+zvrKzT5s3AQw/77m1tf2L6YY55tum/j1rQl874+RDMv0FnXrCATZu7PtmM+c3yZhxdc6kL+bTv7OG2pNtr7amTeaZdE8/fr3NSe1zDuvNt06/VF9MbTMm3fWkY/e3P77tUflIuikIQzEtHzkoLbiSSSclVJxJR525M89vYzff/bhdf/vDgR6x625ra22uv9NOP+dS2277XW2pZZatUCKAunQnnHq+jfh5ho0Z929mPyN//cdG/DK/fp3+r93f7oUKJt1jHV+z7/+cE9t+5K+zMtssWiRd6tn4dOjPdtARx2e2s0zjJnbTXY/aT1P03EjZJZNOCFHO/JuiaCadEEIUC5l0dVwzBtvQvi/b5i3m1nlESyzRwK5rc5q9+8bD9lqnuyuoW+cH7chD97BF0xO3oNVXXdH6dG+X6k3D52132kD7/uuubnbYJx66yp56+NoKer79LXbMEXtagwaLuW3Ur7eonXzc/vb0Y9dbh0euq9C2fdtr7NknbrJvhzKL8wjr+Oh1tnzTxpn9H3bgrvbD8LcrX5MOU07GXN2STDopoeJMuhabb2Ndeg+yMeNm2/CfZ86vn2bYsB+n29DvpthLb39se+1/qIs88+s3XW4Fu+PBDi6NlJlgqffGLLC33vu43XbfExV0f7tOdvixp2TWXXbZJnbsSWfb3Q8/PV/bm+5+zB7p0NlF6pFSWyyT7oe/zN7/fKS12nmPzHZWbr6atX2qs1sWt44kIZl0QohyRiadEKIskUlXh4Ux9c8Qu/OmC6xRo3mRaUR9LL74Ytao4eLWcImK4rP69ecVQ/eiThwRcJhzbtuzh1nn5+60tddqbos3WGw+LZHafr16FdPB+J39xrVfbrnG9lLH21M99ht768V7bY1VV86st2XLDWzQJ8/PTc0Nzy+Jpg+0n0d2t15dHrW3Oz9gXV+534b362yz/+wr425Blkw6KaHiTLrNUv/u/vEw+2ESKafzC4MMkSZKFFqfAd/ZoUefXCGi7ojjTrNhP05zNefaPfeWLdt4OTchRYMGi1fU4ktUmICCbdSrV3/+dimx/gb/3cSefbWnOzZSUYth0pFa+2KXPrbaGmtntrP2uhvY82/0dpNKxK0jSUgmnRCinJFJJ4QoS2TS1WFNG2BTfvvIjjl8r8z9r6x22n5z+7rfK66+ndv27GHW6ambrUnjpWPbFyrqOT3T7sZUjx1uw1L72XKzDTPLGjZsYG++eE9q2Yj5zzGXSHOd/ZXdc8uF1jh1nM6UTOni846xyb98aPa3atwtsJJJJyVUnEnXcottrVufoYlmaR097l83ycM9jz5njRotldnGrnvub32//t0mzDZ7+KnOttBCC2eWVUWk4nZ4qXvRTDrq5X2f2tZDT75sjZacd/ybb/U/F10X1taTpKhk0gkhyhmZdEKIskQmXR3WzCH2Re9nrMXG62buP9FsSy/VyM3uuuwyS2bVMks3qhAJt8zSS1rnZ++YWxeOCLRZX9lbL91rG22wllsWFdtfYvEGmcgSfpJm67bttl9RqzRfwV597k63XerWHXbgLpl9o6suOdn+mdjXRcbFnmucqLH3Z18785SKNfauufy01LY+L2xbUu2STDopoapq0iHMsqdeeseaLr9iZhtbbN3KmVzjZ6WWvfiOrdx8VVtq6WXm09LLLGuLL9Ews97CCy+celc2tKWXXja2/aYtt7IX3vzQRbgVw6T7dry5FN6Lr7zF/i+IBDz4yBNs6PdTXeRg3HqShGTSCSHKmWox6aZNm2a//PKLm1Xzhx9+YCfpJTXP7Nmz7Y8//rDRo0fbsGHDbPLk1F81dYhSXvtC4V6VC8xSTB+mLxcKMxH/+eefbiZZNGPGjPQSUQgy6eqw5gyz6688wxoEM6WeeMx+Nnrwmzbhlz5uxtRY/fSB/Tj8bTvkgIpG2Q2pbc0Y/9lcc2tKf5sx7jMb/11PN6lDVBN++8hNAOEj7Uhzfeiey2zCD71t3Nj512FiihnjPp0b/WYj7OZrz65gErbcZH3r26tjYSmvs4ba11+8Yttts2lmO9TIa//wtWZ/p2eYjVtPqv2SSSclVLFMuiee72qNmy6f2cYW27Synn2/cemww36Ybn2H/Waff/XrfPr6xwl2y73tMus1a76a3d22ow0aMyG2/ZcjxqXW+dtG/V71iSPYBhNDdOk10Dbbat75L77EEnbp1be5CDsi7eLWlSQkk07URhhjVmVcOXXqVBs0aJB99tlnTgMHDnSfFQOO7bvvvnN+C+PopHA+X331lY0YMcJ++uknN4b+559/0kurF3wS9vftt9/agAED7N1337U333zT/v7773SL0lF0k27WrFn2+OOP2/bbb28bbLCBHX744fbXX3+ll9Y848aNs4MOOsgdCwP+N954o1YZV1UBY7JTp07222+/pT8pXz7//HN75JFHbPjw4WVhat1+++3WqlUru+yyy9zLppA+w8N+0UUX2XbbbWfbbrutO7eqwv6rU+WITLo6qukD7bdv37MdW22WufeLLLKwdepwS6pXjJw7CcOMwfH6Z0jqYfnarm1zmtUPaiXtsuOWNnLAq6m/INIpr5hcmF1x27Bv7Jl2N9hyTZd16zK7K+mxzmTLtm9vmqX2/3nPjrbJf9fJ7JtIvBuuOmNuBBxtw3ON07SBNmfWEGtz8YkuldZv578brGWf9HjKpevGrictGJJJJyVUVU06ItGYHOLGux61xRZrkNnGbnsdYF8M/8MtH/3Hvy5tlHZR/Zn60+GRjq9mZnddbfW1rH2nrvZ7amwT157tjPp97qyxVTHpfJrrgFET7ZQzL3IRfH4b62+4sXXu/qkzGOPWlSQvmXSitoFx9Nxzz9mVV17pApAqw9ChQ934duWVV7YVV1zRttpqK2faFQP8nhNPPNHWX399O/TQQ+3VV1+1iRMn5h1nfvHFF268h1ezxRZb2L777msffPBBemn1gm/11FNPuf2uvvrqtuSSS9oKK6xg77zzTrpF6Uhdt+JH0uFCLr/83G/lFl988ZKe6MyZM+2II47I/Ad+5JFHFjWajo6HmdC9e3fr1q2bO9dcwrDhmICHDfe6KqJzReGYcIN33HFHW2KJJeyoo45yRlMucKx5kDA1K6sJEyZUyvnmoT7ggAOsQYMGttpqq1n79u0rbId/Y9xx3Sojv26+l4SHc9l1111df2GQfPXVV9uUKVPSS/PDi3OXXeZF8tAvqgLReLj6vJhfeOGFogsjl75ZyDnWBDLp6qhmDXUzqa6w3LxZUnf432Y2/MvOyaLR/hnqJltYd+3VMuvzHL/Y8dbUyzG1fr5JF1L7eOqRayuYdJh2iSLYUstnjv/Mzjq1YprqqqusaC88dbPNYd/e1OPfoaamlNrHv9MG2otP325rrD5vAgqMvmsuO3VeNGDcvqUFQzLppITKOXHEXxUnjHBKTxqB+YaJNyb18433v7Sddtsnsz465sQz7eufprt14vbrxcQSDz75UsakW3W1Ne3xZ95wde7i2oeKM+m22nYH6zPwO/tuUo5jnzD3+AeM/tMuveb2Cum2iy66qJ114ZU2dsIcRdFJeSWTTtQmiExr27atM5GYsOewww5zGYuFQuTcGmuskXlvYtb169cvvbRqDBkyxB0f2+Xv1kaNGtnpp5+eMyqN8TmBMf54UNOmTW3w4NTfyjUEJuWqq65a4RgwGQuJBqwO8pp006dPd5FBGDhJ9c033ziX1p8okWzff/99bNtsIs0wqamSj7ffftvdcI5l2WWXdR20WJCieemll9oyyyzjOiOmGMZkVA0bNnTLN9lkE2cCwVlnnWW77bab7bHHHrbnnnsWJNbZb7/97KOPPnLbCqHDc0z1689NFeNbRqK6CGvNBg/WwQcf7Nph7hUqIidxvisTNYZR5E1dhKPtU19//fVXu+WWW+yCCy6wSy65pFIiqq1NmzbO7ErC+++/n3lYuYb8XkhfHD9+fAWTDgOsKvTp08fWW2+9TN/imHhBx4lltCm07Zprrum+XSknZNLVQU2lFtsXdsbJh9hC6fuOiIz7m5TS6YPi1wvFNiZ9YQfss0NmfXT6yQfbuO965o9mq4pJh/4ZYt1ee9DWXWeeSYhWbb6CPf7AlTbllz72L9tB0wKlfv97Ul97+ZnbXdRcuO7227WwwZ+96CaTiN2ntOBIJp2UUHEmXYvNt7EuvQfZmHGzXb22qL7+aYZ99cM0G/LdZBcFt+HGLStE7K608ir20JMvJYpEK7ZJRy28Xl+MslF/xB37jNSx/23DUsfe+Z1P7cDDj3M18fy6qNVOu1vvfqNd1F7cPiUplEy68oVxLIEomCSMmX/++Wf3k9/xB8qpPFJNwPV49NFHbaml5k2Qgwm2ww47WN++fdOtkkEQz9prz5sNe5VVVnGRbFWFgJjbbrsts13EOPPhhx92abDZ4L7ia4Tr4Slw/ysDY/AePXpY165dnf+TTwRZkWWJ6RlGZTdr1sxdc8bwBNvErRsn9vvpp58WpY/mNOlwPlu3bu0MrsaNGzthciURJoA/0YVTJ7300kvHtotTkyZN3H4xCEM4YQbuhED27t3b/cwnDI6XXnrJmRwcC50awwfjhWVx60TVq1cv1zZ6PMAxnXPOOZlzzSccax+iyr/j2hQizi1qIPH7jz/+6EJOMQd9W64BHSjOcKKTco/CbReqhVP3+ZVXXklvMRm41xtttFFmGxi61ILz8HCstNJK7r6x/cqIdXlR5Ism9JxxxhnuG1mOhyhEb6omhfvrI/FQVSPp6OthX+HYsplv4R/biN+ztfXniLj3xTSvi4FMujqoGanB5aA3rVVQi43JIl5++va55hoRZ3HrRWVf2wN3XmJLLTnv/bfmGs2sd7fH80fjVdWkSx3j7FTbR+5tk9mGV4MG9e3gA3a2l5+5wwZ+/LyN6N/ZRg58zYb1e9nee+sRO/2kg6xpZNbZlVZoYs+3v9lF2DkzL26f0oIjmXRSQsWZdCs3W9VOO+dSu+GOh+2aWx7I6NpbH7Srb77fLrriZjv82FNtoxZbWKNGcyMevPh76diTz7ERv/xjY8bNTUvNpWKbdKuusZadd8m1dv3tbSscO7rihrvt7NZX2u57H2grrLiSO1a/Hlolte+72z4zN81XUXRSAsmkKy8YT1PPrEuXLnbVVVfZ7rvv7tIPvffAT8wlIpzuu+8+Z04R1JMPxmSM5TFuGPv7n0Rq5TKPqgpmIoErfn9e7733nn388ccFZS+RUfbEE084fyR876HNNtusQsAOJa7YRzS7j3E+nxONx7jar7/ccsvZAw884LIgaROug/ANuH75rhW15LbZZpsKx7bhhhvmDZBhbE56rF+H4JFbb701vbRw8GvoNz44KqnYb3jseAd8Ftc2l9gvgVSVqWkfJadJh4vJQxIedE3p5JNPnu8ESVPFNME0pKMibx7mElFuoXmBOcFncW2jYl+0bd68uYsGjMJL5fzzz89s/8ADD7TLL7/cRW6hK664wqXYksrJ8p133jkTPrnuuuu6zxdbbLFKic5Avnec6QaYS9dee607fn/ua621lnN5o+vw4iD8lTDVyooHnbTMpPDNCGmu/th4afCSCOFYyQ33bSorrhemTz6IAl1nnbn1pHg4SQWNXiuKW/KfyOuvv+7c91BvvfWWPf3007bxxhtn9n3NNde48+DaRNuzDV6CuWoL8HL0kX0tW7Z0NR/ZFoZoKPrC3Xff7WoM0Jb7fv3117t9dO7ceb62fEPgz5W+XqyaBMVCJl0d1Jxh1u7Bq6xpk3nvrFbbbmpf9X3JzZ4au06cZg62wZ++YJu12CCznXr1FrFH7msz1+jLZXZV1aRD0wfZzPGf2zWXn5p6N84zCtFCqQEt5iHprETMbfzfdew/661hTRqn/p+KDDwx6B5NHfM/Ez5PHbPSXOuEZNJJCRVn0jGwqFevfupvngZWP9Dc3xezevXrz2dwoUVSfxfvd/BR9mH/bxNPOlFsk26h1HHxpWL02J3qL5b6233el/+ZdVLnSzRgu2fftOE//2PU0IvbnyRFJZOufCAIhvHW1ltv7cYjBBJEn3UvnnnGdEQ6Mb7GrMtlIDH+oq0PFvI/jzvuuNjgm2LRv39/NxZkf4zHfCASY3eylxiHFQKezPPPP+8i36LXxBt1XIeXX37Z7S80jkIxtg3/D0hiRmGiEc2Xi08++aRCQAnbvPnmm7N6FMAygo3CgCIy6zATOZd8itt2z549qxx0VFVhVtaISYcb6HfKSdPhWrRoYZtuumlG/I55gKLLChXbZzt33nmnC50MIe0Wkyu8EElFh8RIi0YaJRXGHjN/RPEmHduno5O6Ga2fhiOMGcdy3H9fR+7DDz90Dxy1xioj9hVnHIawfyZkwGT058LLATOJDu7hXjPRBDOrkONeGY0aNSpxvT/CUS+++GL3EHNMvHCvu+66+cJbScHE9CSn/eyzz66UzjzzTPeiYJ/54F6R/skx8dJjIosoe+21V9a0Zv95+ALk3Pg82zrU4SNaLhuYdP6lvM8++zhzMxt8M+TDmPlPiW8UsvHDDz9kvvWQSSeVXFMHuMkV9ty14jdxN11zls2a1K8wk2raAJv6+8d21GEVQ+iPP2ofNyMrJl7semjOMHuy7dWp/+8auXXqLbqIdXzsusJMOpQ63hkTPreH773M1ltntdT/Icn/76lfb1Hb+L9rW6f2t8w9d9WhqzuSSSclFCbdmz1TA8GWW8a+R/IJUwxDbKVmq9opZ11kfQZ8l2hmVS9MuvvbvZDZ3korr2KPPf1aYpOuw0vv2DKN548MySf+lsZsbLr8irbX/ofaM5172Jjx/7radXH7kqQ4yaQrD4iGI6DEj70KEe+C//znP87oyVYTHTMM8z+67v77718UIyUOxtcdO3aM/ULE69hjj81rfEVhu0TIhRloXkwAQW059htdVlURLJPrWPE17r333goZWoxF840r8QzCeQMQAT8EmFD6ClGnPk5EFmJIRn0HxtNsg21534d+Eu6jEHn/KNs2+ByF/hIl32rEpPN5whwkaYCEJWJWYchg6mDOEFXUrl07F0GEc8znLM8mOhHRQBhWrIMRMmbMmMxy1seQi8Jn1HDzF4VjI9X03HPPdT/PO+88l8qKaeY/ixPLaHfhhRc6xbXlM1x2f6Mx2caOHZs+knlETbqoM06nxghhGZFihLiG4AJXRUnANKQz+3NBmK+FpnEWC8wyzDMMKn881OeLiybjhcTxk3pdFfHyzne9CMkNa8nxwokaxcCMrb5NMYRBRiRjNkKTjrp/1OnLBrUFQ5Murmahh9Bkfy4y6aSSa8ZglwK63Vab2DJLL2nLLrOkM7c+fOeJ1Ivy6/h1solouZlD7JZrz3ERcWwL7fi/zWzwZy84Iy52PTT7K3uxw21u36zTfOUV5qXbMrlD3DrZNH2QzZr4uQ359AW74uITXcrtEos3mM+w4/+Heqk/bhousbitu/aqdvPVZ9mI/q/a7D9TfVwGXd2STDopoX6YZPbOR1/ZjrvubUstvUxiYaZh7B18xPF2671P2Ju9B9iQsVPcxAyFTLjw299mjz/7pjVuspzb7n832cw6vtzdHVdc+1A/TzF77vWetuY66893fNm04krN3MQY+x58lF1y9W32SrdPrd/I8e6YFUEnFSqZdKWHsRk1y8JIqsqIYAcMnThee+21WAOQ8krVZdJhPBLlF91nqM0339yl91YGgnwIigq3xzgOg+7ZZ591piS+RJz4ezNcD8W1C0X6aC6TjuCR6PGQ+cj1ZRyPb8QkkXgmIdTKj0a9sT88l2hAS5wYG0cnmMBTwgDFL8J/wdAkwAvPiM9CkS3KMj9vgReGG4E6LN9pp51cjTza+zkB/Pr8m2Wsz/2kPaIWPt5DVfk3RSKTDneUaKQw+gr4nYMhtBKnlTDDfGAGMM0uN4aTjEZPZSM06eiAOOfehMFMoTNgYJDnjavrZwX1bbz8ZBiYRcxIyu/RNoioMm4S+yMaKolJRyphaAYRsunTTZlgAWOkFHCcRNRhFBJVx7WLPiw1AQ8y/cW/MLlmGGNJUlGrm2eeeSaT7485hGHsoV9RCJIXzWmnneYm2ODBjYqH/X//+58LaWY7iOhQzjGuPX2CbxFyTdoQprtuueWWLiScbwroW6Ew+rjHPtyYc7nnnnvcM0lNhGhbojH5Boq2MumkkmtKf5fW+eePH9iE73s5TUr92xlVSWvRhUqt8/cfn9jEH+ZuC/35Y29nmuXcXmoZM7TSlnVYn99j2yYR0XcpzUyd2/dfv22vPX+XXX7hCXbogbva7rtsZXvsurUde+Tedu3lp1n31x603799z/7hnNOTScRuU1pwJZNOSqhRv8+dYGHg6D+t34g/EuvLkeNtwOiJNuS7Ka7+nJ85tdAZUdn/sB+np7Y5zm23/zcT7Osf/3afx7UPRRsmguBYoseXTV+OHOfOdcjYyW4CDIw5ZqgdJYNOqoRk0pUeJjEIZxoNRcor5gfZXwQfMH71paPiRNABAT9RSmHSEbBEGajoPkNxbpQ9qiyM68LyTHgR+BrUwSOo6tRTT3U/oyKCMLweGKSU6mIZWWvR9pQfo0agzwKMgg+EORhGkhEU5P0gn/ZLdBllljDV8GYw7difX6cywl/58svU300BHA8eDmYdRiH958knn3TjePwePCd8IsT9p8wVY/Fwu4y18WvwiCgjxbif7EXG6gT0+HU5B7ZNmSlq0TNex19iP0kDqXJRkEl30003zXeTMMI4eNpgVFFgMB/MIuLrZnEhOMkkRE06UjZDiFKjoORDDz2Us8YXDjezfnJuzGiaLTKJyRc4PvZXiEnnwXU+5ZRT3PoIw6TQ0NZiwv3s0KGDu0fVmYcfBw8NUZiHHHJIhbBjIsNCF9w/OFEzuLrhofOpn7xoHnzwwQqh09QXxPzCXCYtl75Av+UBDkXfIrqUGXf8Ob744ouuLcui7Xmh0q9zGaahSUc/42XMSzVO9FP/LQk/+Q8trh1iO2yPthh6MumkkgvzjLRSota8Co1eC0WKbLgttp3E8MMcC9erqlnGPjmW9Oy0mH5Tf/3I/vr5Q5v8Sx+b/vvHNnPCZ/POn7ZJjlNa8CSTTipAGGukqFJHLqmY/XRsap1vx5szugo150Kxfma7qW0WEtFGW44lPLZcCo+7MqaiJIWSSVdaGJNeffXVmb/xvRi7YGAxTiegACOP8Qk1z4i6o25ddB1E4A/Lo9S0Scf4mqCm6P6iYqyJAVZZMIEwjqg1j4nGGBMYT2JS4TfECROPdfxxELjDtY1rizDU4rLKPEz2GE6WyHmddNJJ7jjwjKjL7seljEmJuMNgpBxTWIqrMqKfYAJGwQPCpKSeHuNcxu+U2IqWvcJrYLzvg6kQ/hQZokA6LVlpjJcxHvEJHnvsMbcMqA/P/ALsA2+Dcm3RYK2qkNik46JjOBFiyQ3mhvKTiB7qZNGGA8RxZBlRR/wMxWeI1FifesnMH0wWgHFHG4w22hACGjVqMDN8TTouCA+eh9lM/DKOA3ONFE9c9eh2qONG7jZtMTUwVeIgasqHb3L+SWrShSYd50D4I+tzvuUQLZbNDKJDFVshGE1cC/+gcr0IEyU900Ne+QknnODuI2HL+WaEKSZMG+1f4jxkTA7hwWX3EZWIbwKi5xfCi9KbySg6GUahhCYd149rR3+ME8v8flHStjLpJKmGhOHnDTsMOcS/+awqhqS0YEgmnSRJUrVLJl1pYUztx+KhMG4ohRVnDDGGpWRWNPLJC88iOj6raZMO3yEcM+YSUYRxAUBJwURjjBpXD55sMAwsL292Ugs/NMfIgiSTbODAga5NuA5RamQVZouiA4xUzDK/Pcar+DnA9qKTP3Jt8I/wlLwngPBjNtlkE9cn4oQ5y9wF4dg1zqSj39x+++3zRV0SmXnMMce460IfwVMi+yyMeGRsTJoyUXT4UT7bzIuoPLLRMGLJSOT3cDnHRuCanyC0qqSOM5lJh4i+YdYNLrgX5pOfhYWL7dNec4nUOn+RidBjG34ZFxzHExc6+oBy0hiCOJo45mEkHSGI3MSwaCHtMIZ42MMOjEnnI+Qw9LKZdLQjPNPvLy53PJdJxw307ixt/MuA8+IGh6m1VVU28y0fvBwItyXaC8e4GOK8qc1HRJwHl9/fG/oLZhwPfgjH4aeF5noXMlNsVeC++m9m6A8UpAwhcs6/4DEW89UQoNZf+K0Cs7dWhdCkw7TCUCS8FrMwFHUe+VbKG+D0Pb45wKzG+Y+2vfHGGzMvapl0kiRJZSCZdJIkSdUumXSlhTGHT9cMtffee+fNsCOVEkMlui4RYtF66zVt0mFa+dJJoUJzyQtfhfrnxYYMQWqlEQXGOI/abV54LaFXwnXks7ANYj38mP32289NNBgH94k6/t5sY1uM7/ElCFghos7vB2GIYaAxBmWcHy7DeCVwh7JY7C8qgrGosx6ab3hGGIEhGHBk7jGvQHSWYO4B/YuMwuOPP75CBB2iPeWsqCtH5ly4DH8Cr4RovBtuuCHjV3hxDcjmxAQsVjZgQSZdTYmLeOWVV85n0pF+SIgkuc/U0wrNElxenM+77rrLGXDhA7nUUku5iQlwiWnHzcbQYxk3O5tJh0Md7i/OqY6adJ07d3afc+wHHHBAZv8+moqwUGqy0TkIc62qeAA4t8oYLHTkyy67zD0oGJFx4jp6xS3PJjp+WNON2Wh4mKjVdsUVV7jrEMILBUPU3zMeVkw87jEGLA9cVUV0HH0kNDQxS5nRlZBY9kv6Lf2BVFS+nejevXumXgJtQhM2G6wbRtKxjaqASccLk21hUpOGzb2LE308nDiCdePaodCcVE06SZKkMpBMOkmSpGqXTLrSQkRcNBIJJZl1FcMGkw0jiSAGJo7AaMJgidalq0mTzkdxedPKCx+A8WXUFEJ8HucvRMEDCdNQowpLNOFz+LJiVRXZZXGZhJhwZE8SAefb4idQ2gszi3TlMMIOMbbv2rWry6IMPycALElgDseBx+DXY/vZxq70EQKEotcB3wcTLjzuUHHmL/ePwBauM57E+uuvX2E5HhB+WTT4qKqkxurJTTpm9yA8EVPozDPPdD8J6/MHy4nttddeblkuUaDQPzBcLFxXZvtkGUUEcWV79eoV60RiLvB5NpcSE47oMKKhOC7/oPCTgv4UEsSoSWLSQb79RU06P7sr5gjGB/vANOSBAdz/cFKBbGJbbBPFLQ9Fhw2jCjlWotgI5ST6MCpeBhw358a1jttmVUVfCK8rbjvGJGZn9KVIP2M2Xe94c914WHHUiUjjmxEc7aqIkFX6A5FmXAPgGmDq8nLwx00YLn2eFz0zwoROOf2WvgPcT14MUXHMpID7/oWokYBBSO29aHs+5xuHXIQmXb7ZXXl5aHZXSZKkWiqZdJIkSdUumXSlhTER9bz83/heeA1kZUUDdUIYv40ePdqVyvJiplC2GR1T1aRJF/oLoThPglUYV0aXMTZl7JYLogOZFwDj69JLL60gPkOUEvPnQzAHY8DoviqjLbbYIjYllywx73N44VnwGdc7GsXGOBZvhnFs+DlRfXgAue63h+CZpCYdEIiD7xDWdcegI3AqrMuXS5wLGXU+OxDPgjp2Pk0Ws+/oo48uukEHiU06LiKOJGaLT7FEGB4U5/MHSsoiFzqXMA585+HmYzqE20RhtFM2aEPhQfZJBwrXwajCACH/2DvXTBJBMUGcWPKe+QyTrir54OwzNOlef/11d92IcmP7CCPIO9yYj5w7+40TnS/q7pKCyedx7RGdlIffQ0ehrhthqv4bBi9+x6z0teBIfST0EzPMTx2MSOtk8gPcY38cGFh8Hm0X/o7YFg+hN7Q8vDyiZidGIemY3m3nGp544okuGo1c+KgLX1WxbV9cE0ecmVXj2kVF6DIhzBwvYFDzjQEPaSiuFxF3oRPPvePzaFtEXyDKLxdhuiuGLy8cjoUXZCheOhiC3Hd/zHfeeafLnyeaL9qWNHBvsMukkyRJKgPJpJMkSap2yaQrLZhsvm57KMaBjP0IIiEtkTESJhX+QWWoSZOO440G13A+eAJx6Z+IsSS10XJBSifjfbyYbMKvYewMpGSyL8bkfO5FIBXBGeH1YLtMiBC2Q358f+GFF8ZOxsnYNOkYnWtAQBZBLGE9PESdubAOfC4ItIqadGFt+zjwaajDh/nLueP50JcYxzNe5nPGmhipUWOR3zHg6IP0V4KfgPVvueUWF3RFsBpRe9VBQSYdBxQ1WTh5TpQ2mEtJiuTT2XxkEBcsrF1WCNxUwjAxRXCu27Zt6ww/b6QAHZabQ54w+2UZZoR3UDFJqnJxQ5MO8TLgRnJcbB+zBlPEw4NDCi3hnhhrUWGmkF7rv11gfWarxWhhO7TxPxEvBK55OMlC3759c4a5cs586wB0NCLrQnE/uPc8TN4cItqMdVhGG5bjUPOC499x28gWfRiCwRq62Rh83o3GpCMKjhdYPmHEhg8uxibGGJ+H7Uij9v2NvkDtQ/oP/ZsXFfUBWIcHN3xYmZ0mfJkfe+yxmWVVEfvM94LhPnjjDXFurBcnlvEypB0/87X12+TakCpbTsikkySpzkkmnSRJUrVLJl1pIeiH8k/+b/yoGP8yHiOYgDRJoq3IVsNkYdyZazKDkJoy6TDhwgAdLwImfKkkSmJFlyMCa8J01SiMv+PWC7XLLrtkTDpgfM84PRRBUEQchuNuTDOCp1gWbY8IaImDklYbb7xxhWNAYZCKF0YY0YLsg3RgH4wUXhuON989ZVwYjvWpwZ4vChEweRm3YxT6GV4J2GKCC6Iv8Rtat25dIUiK8yBYiT6KF0ZwF4Ev3mMiSAyP4r777kvcFwslta/sJh1mBk4qB4uJgaER7URc1DPOOMO1wdQgF5nZWekEfjZXLz5jRg+K3vvi9ri33pksBAwgthOGWnJxMf06depUYZpd2oYPIjN2+BRH2oedulCikXS8DDDMSI30x3X44YcXZARSK8yHy9JJokUR84F5iVtOWC1mIRFw/PQdm4eFWgD5IP/ar8PLMfoyo39gSPIQFwqdnGgwH9GIqE1AOrCHFwMPFtcul7jetOPBJzqNbZE2zQuEfhC25Zj9AwZcW9rycDKjLC8qJgwhrNhvi5dQ1MDi2lDPjW+BiG6rjFiXGnP5Ijl5EVBcFWONPs6zSL/IJn89Ef0yrg1iO2yP7WLc5jMLaxqZdJIk1TnJpJMkSap2yaQrPeF4PJ8Yt/gJLKn7TT1xstNI7cxlktSUSYdZtN566823H8YxvvwTxhBZbdE21NPjWmSDGUwZj/sxG8Jz8UEZiKg3It4YDzM2x0sIxdiWa0VwT3gMlHWixBRlnGgTXY8xKnX+2HY4fvaRgYwfMavI0sMz4nzD42Isff/996fXmpsSTM1+otDwlRiXY5ZR8ow00lyeAteYc/fbxkvKl43GcV5//fWu73ANmQgDL8pDYBHBUBjC/rjZB8FdHF8YLYihicdCsBfGHeNogmgeeOCBKnlJ2chp0pHK6gvgE3XDQUQfBEw6Qv38CRCRQ2fLpbAmG2ZFZUw6oLORg03KbBgVxIXm4eMmxDnT1G/zaZyHHXZY3llkchE16XDJ6cR0OB/NxvGQBhsH6+Msh9c1nNiCl5I3iDgXIgWJrOIhzAb3hAeNh4oXAv/mgfWGGA9nPpOOY+Choz33lMi/EKL5SJPlhYSLzDkkhetDBF00N//aa6+t0guT2WL8fWVW0yTHxLHwQuCa+cg/rhs16bifPICk44b3h3Uw/7iuVRXGYT4HnjbUZ8CUxkjMJiIwmXHG/4fHfaNeAWmtHTp0iF3Hi2jT6njBVAWZdJIk1TnJpJMkSap2yaQrPQRjkAXHeMX/rZ9UjPsxUDCHMFkwW+KoKZOO8X8Y5eXFRBhE/gGGFEEv0TacC2mleAJxEIxCeSpKGvETsR2MJ78NxuSYamR+kULKmJ+foVq0aOHG7aFnwjiX7L1oWy+/HSLKwnE1Y2a8BYKwGK/hS/Bvn4HntdNOO803WSRpqxh3mG6M/ZmgEb+D8Stj3WyZeES9RU06tpUNfCy2770BLyaqxLxjLI9fEPpSXA+Cqwj0YdvhDMQYo9xPohZDI5LtM2dD9Dyryr8pspp0DNoJweQAcG8Z6EcvHOYGeeM8AEmifBBt6CC0Z/u+kH9loENjXOG+EpkUpigSMUZKKKaKh+OnAKBvx+ymlYkE80RNunD2TyK7/ANLPTw6RAjHQhHFQw45xNX7wymHqEnna4U988wzblIATL8XXnghayfOhp/JM59Jx/W67bbbMsdOtCFmXwimnXeXMfOS5pPTXzAsvQEYCpMt2wsqCby8/IPIy64y5ivHR/q27x9MdpHLEC03eIGFE0cQhVdbkUknSVKdk0w6SZKkapdMuvIA44rxG3/vx5lpScR4laCb6MyuUBMmHQYhE2BG94GJRl16D+Nrgi7wP6Jtt99+exeUEQfrMT4ORXmsMJuQzCzO/7jjjquw3WKJCLRcwS8EXGFU4Yf4dShtlq0MGgYt9yY6mSYzv2ab9NDX5vNtMfWYTCIOSmeR6Rm2R6TY4rkQ2IKBiCcVLifACgMUb4cSXKGhiTAhme8gGgFKO6IBf/755/QRVJ3Ufc9u0tFZcBvZOQ8AFzMKHYfigRQ9xA3nQeNnLvk2/KTWWlWMGQ/HgevZpk2bTKflApJSGYKb7evF8ZC89NJL6SWVg2PPZtLRcXz0GtePENMQOjQPFcsxhYgKxHgLZ4cJTTrcZd/ZKGRYiLnJdv0285l0mJ7+viPuUzQikRcboaAs59xxxPNFhHG+hJxGi0Z6YdLl20YuOM6qmnT0Y//CwOTNFX7MvcfgpU9xPQoVLzv6bRQ+4zpwzRH/Zl/cw3zC6A3rLRJ1GdcuTtF9xh1bTSKTTpKkOieZdJIkSdUumXTlA2McxsyMgynXxDiM8W4YrZRPtD3qqKPmM5JqwqQj4iquFjxlnIg2CyGYIm5mUcbGH374YbpVfvA3atKkI9go6gV4GC8+++yzFSIiMSip4RbCfQ7H+QTB+JJpoeKCgwDvImrSRa8v+yANmow4PJRwuxwfadIca9Qc9GIdPJuoeedFHXuMVzyLsF48wsuh9h2ZnsUgdV2zm3S4gdSMY8d0cCY8AG4Gg3ouBOKm4YhWRqEBkcQU8PsOFa7Hw0nIKY40EVF0AN+Gn5gu/sbg8FInL26bcYo7Po49m0nHdcEs8p2EmUVDYw0T4j//+Y9bRmf2aa2kQcalu4ZRUkTTFVJDjONMatK9+OKLmQcfk5HjiQN33HdQIuNyTT+M8ce3DGFoLi+08CF57LHHKjy8hVJVk47CkYQCsz4vAbbn4foRCck94+GjLxClhptODj6z2fKCTCLaEpZMLby4lxDH7VNXqX1HfbwkYmIXXs7+GlAHgG81eCGRVx+3TpzYL/9Rljr9VSadJEl1TjLpJEmSql0y6coPxtpE1pEGyZiQgBR8CFIOGS+G2XJxog0lfEKq26Rj3Mp4Mbp95KPPQjHuYyKMaFvGnUxumBSCnEKTzqe7Egzja9HzMypSW0MDiggwJufwy8lKZN3QgMKLwMNgLBwHaa7en/DtqTuHf8D9xEij5jxpyYxv8X88jPVIWfbrIvwUzK5oOTTKmIUmHSXUOOcQxujU5wu3h+gbpL7izVDHLtxOLtHnov0OE5GsR9KOo+Ys261qZqDn3xRZTTo6EjeMnWKueGOHyDkG8TxAHAj/JsqrMqLeF9thG9zkXCdFZB+Rb9xg6mxFRTootbVYjtnAJBZ+Ga4pnx955JGZi41rfccdd9hzzz1XYTvZhCkVdizgeKMmXWjmEbLpHyJqsPnikUBbzDaWYdz4dFg6XJxJh8HnZ9tFpNOSnpkEjjOJSYdBxGwmtOOc4uoQejgejtt/00H4qM+7j0J6rJ8sBHEtuJc8xP6zUpp05JHzUHMunDcGGp9xPjzMRAry7Q4vIc6Tlw4v/mi4ayHimxSf4hxCJCUmM8eSRBwvfZoXrTeEEct8ajnyfTSJeO6zhRDXFDLpJEmqc5JJJ0mSVO2SSVfeMG5lDMZYjCAVyldhQGGQ+HJMcaKeGGaYp7pNOsZs1CiLbp+xFIYYKZBEiyH+zQyjcZF0iLFx0gCJqEnnJ45gffybqJgAAtOMSSIIUvLrYcZRJ95PEkEbvIrLL7/cnQNtyDykPBgmagi/41EwZvXb89tkTE4kHcEpBPzgAWBgYVxG6wdi4JH9FW6Dc8N7CaHef5gqjEkXTS/FhCOlOByfY9AR/eZNP64R8xkwLmaczDY5Nn736/BvDGJKpJGlGRp1TLZBkBeeEJmh3ntAmJyFTviZjZwmXThTCSGC3DhOnplLOSkOmJPy4iT5PIkwDcJ1eYDoEOGDFYUwUC4M+8klHl62h/xx8ZPPQxMD+eOIbiNOTKIRrSuXz6TjBeAnSKAzhaGsGEHeFOEme4MqatKFN5tO5l9OtMHJTUISk47jxuUmlJN2zGqar9Yc02H7lwQvI5+aG4UHnzxu+gzXkemk6UuYpqyLSmHScV04Nr6t8Q8nDzYPJY474bIYqfRZf5zcN7ZNbT1fl4/7xP3lxceLJpto4/dDocw4k46oQ58Hn0/0S/qvP7Zc8m3jthMVfYX08VIik06SpDonmXSSJEnVLpl0pYUxIGOpUJg30WCYENbBYCEgh8wnbyKFwjBiHOWpbpMO44jxXXT7iONjfBhVaAaF8jXnkxA16RhbJzH4wqw8xLg1aioxFmfiQX99CdRiksjQ38CvwQPwGWihOEfG44w7o8sY30ZNOsbiBH15/8ELD4rj9RAkFm6TKLa4On6Yh8yjwHgeQ5QgrtBfoI/hOZx66qkuehH/gKCk0DzFa+GcWQ/zk+AVrhXzCDB5Jn0RMP4wYGnPZKjZfJDKkNOkIzXUh/ERCslF5WDp2KFp4UWnY4AfmnFxok3oSHrlM+nIMa7MDDDFEuGY0Qcgn0lHRzniiCPc+nQsHGxgO37GEDoRHc+Ty6TDOPE13Vgv6cQASUw6to2zTBvuD4Zd1DUH+gC12Iik4+XkQ2K5t0yEwb6isB1mAb766qudow9sh0KfrItKYdKRv0+EXPSFyb0KX/78m5c83wbg7HOcvJy8U883A7wwSZklHDdOGJP8Z+G/wcgWSUd0JM8efQmRvh0n9s+3HxiK/ji4b/5c+Mk94d/0IyIAmdmYY4jbnhf75FsNogVLiUw6SZLqnGTSSZIkVbtk0pUOxsmU0KJcEOYSUWBEo5FdlcSkYv0uXbrE1oFjrBumQFanScdYkFrmfqxVVTFuI80zlxfiqaxJR+Rb1KRjjMrYE+MJA4vyVRhOvg3mIdcxhLG89xWSiuvEdY8bXzKDra91HwqfwJ8XdfhCk47ArWznjGfFeBZ/Jc745d5xnVnmA3aIgvPbxnTj3noYlxM9Fw3WAqIp8UyKFUHnyWnSkaLoO3bYmTEicCgJ//MpjJgYTDbALKuYGJg1cSLlFLeUWTPDC435gYkRGlxRSDukxhbFCwlnTSIMMkTNNG9eYGQQIeWXxa0Xig6CMEPi3N9sNemA8+Fc/TXyywnF9IYSLnQ4I00uk479+aKQbA9jyru5uchn0mG4nXfeec5ApQ358qQ7cr4cD1GVdFAeUlKEeYlg3Pp0XS8MLx60ODDNwhcPD0apTTrCZMOXFeK6ct3p+xhpzP6CwYUhynTN/nqTruv7PzPBJNkf0ahEHLJONpPOQ9/J9TwA94gXM9vjeJlpmfvL73yzc/LJJ2d+5/nkGctHvn3WFDLpJEmqc5JJJ0mSVO2SSVc6GGdQasqPy70YfzFmTgJGEuPQcH1UiElHwElVIMKKcW9021UR9eB8MEsuKmvS4SmE414mSSQyEQ/giiuusNatW7uosfDekAXGmCyEc/fjz2zClGNczv4opUXKLME9ccE8gL/kx6xeW2+9dab8EjPaep8CYdKFhh/b5fzwr0iPxshl0k7+zWdefEY0HGXM2CbXEu/KB08hPCrSk9kG6/vt0D7cnv+cICzfjm1Th6+q4+nU+vEmHZFPmGk+4g1DLqx/xnJMCQwbPxkAqX/U7vJmHgdHO+QPlG3wYIYXgoE4aaD5TobtFDKbJm0xhYgQC2u50QFwY2mDUUSb6Lpxol30GONMOowmPmfbdGqfMsx14sZhfOEW057P6QSh+ZfLpAMmdvARhWwnWlgxjlwmHa7wxRdfnLmPHBcOOnnkGFQ4yxhLRGuRLhl9qYZiOZ00CeVg0tGnmPyBc2ddUnz5D4K0YqLOCFvlRcSxRglNOl5u4aQg2eDeJjXp8kG/xrDmfiHCbXnh+MlI+HaEiLi7774701/4poqXYG1AJp0kSXVOMukkSZKqXTLpSguZQH7cGQqTitlS88E4Pi6Sjqg8Aio81WnSEbyRreQQ/kkuZYu+Y1xJplQ+orO7Vtak498YVBhx2Y5r5513nu9aEbBCimjYjvW51ow5N910U5cyS2koJrpkLJ0vqAivgvJfXFO2hcfRt2/fjDeAERaadGTyhbXwMeyY4IJ+ReosEygi/s1n2cRyjjvqb2DU+eW5tsVneAgs53fuC2Pvqnga8G+KWJMOUwLziIPkghAFx8WLwk0jn5cDpC03htkkw3xwD5+R3+vreKENN9ywQqpnsWGWD6KcwgeUEEYKNxJqy+yvVSE06TDUOnXq5HKfMZyIvvKGCaImG5FMPNQ+5ZGbiSsbks+ko7N7o4eOEE5GkQvcaNbBNQ/NIa5/tnz6qDCDeHAowsiDzXGS6kkhTz6nDdc2fEFmoxxMOuD6YizynwJGG306yXFEI+mSmKWE01bVpOMlR+q3v5+IFxn1CTG2vAHOPeUbCwxgUo39/aFPcuxhVGM5IpNOkqQ6J5l0kiRJ1S6ZdKWFYJE111wz8ze+FybR/vvvnxm/MFZkrE1QBWMzTBnSDjHZfLCLF2Pms88+u0JATTaTjow6xt+MyQkUyifGXRhGPmiDY7vkkkvm2y7HRHYgHgAlnvgZFTXPCY7BA4muj59AthrnmwuOnbG4Xw9zMkmwSNSkYyxKJBkBK/4zL86F+umUQoqDLDsCeZhggaARJu3ESCPyjTF4nClHsFacn+Qh44zz59qF9ea4pwQp+bEsYrxLEJWHexL6CqUS1+3mm2+uPpOO6CpvJjRp0sQ5ttnAHb3gggsyDwEOKK4rN50bRIcmgowUSt+GE+DG9u7dO72V4kLnxsxi9lEeWn/hQmFwUWeOnGNmj6nMxQxNOjoOs8hSFDHsRIiXDgUKMSpPOumkzIuFdNtofnM+k47rTYSb3zb7zPcw03F9cUfMQl40HkKG/eQW/jwwZjEzMV+5/9wrHpobbrjBRULysqKYIyYozjUvW1+bjpp54fazUS4mXVK41/znQDovx1kKk46XEXnvrOuvGy9m+jrw0798Mel8zUL6DMfov/HhGxPSt6Oz4pQTMukkSapzkkknSZJU7ZJJV1oYlzAe9n/jh2KMTDALGV0YYZTSoswWQUCYQZgzcWN70h9JQQzJZtIx1mV8S5YYY7l8IkqKuu0+CIkAGaLFotulDBTjWca4ucR4MhqJ5kXGW64AHAKMSEsNo94oaZRkTBc16QjcoSYdmYCMDX3EGP/Go8C/CTMpQ/B4SOvETGN8GudF8BnLyP4iQ5OUV/6dDdrTN6KBJHxOHwj9FdJywwg/vI5wQspSCQ/l9ttvrz6TDgfbR8dRzy1f6Ck3gM4WuuKYBEyXTI4zD47/HHOMB5MbWx3QWQjd9MYT4oLhmpM7zsMddmzCGTGwiPLDFQ5d2XxEI+moNceN4SFlu3RyjoNrgKFF+iEPO/vlISClMko+k459UpuPfdKGGnW5DCLOCYfch4hivnFffFgsJhsPDSnBRMFh3rRr185Fl7EuphSGFw8CDyRudhxEc7EPoil5KWZr5+ElVe4mHedMQUi+tWH7e++9t3spkDLKOfoJG6o73ZV7RE1ArrH/z4a+QX8OZ+AlPTc06fj2x8P95jj9+jwDrM9/aLzYyg2ZdJIk1TnJpJMkSap2yaQrLYwRGUsRqeX/zo8TYxUCDBi7+nFsnFjGGCc6jsxm0lVGGIfeCGOMHK3LjihxRQ39JDB+8+PWUBwvXkIc1KsLx/ReeDZEn+ULGGHcGV5zAmzI8mN8j3n26aefusklOM8wlTQpmGtk0xFNR0DPPffc4/wFrhX3kX0nqY8eheMjSCX0bwhYCs08/Bui+QgKK0QElhENiC/jt43HwniaWnrsJ269OGGWcr6MrfP5IPlIrT+/SUcHx632biWRYXGzWUTB5eSGkProT5JOFLqeGAdPPfVUtZgCdCYcX+puhReaB/uiiy5yUUzsF9OLm4hJEjXrKEKJ6YaDnSsc0xOadIiQUEI1MesI+cRYIVINF5p9h6YUUXwYQFHymXRAFJevM0YdtWyOOw8C5qQ39Lx4mAm19em+dHKuHz95EJKcexSiInmpcA3ipkSOUmyTjojIqph09F9/n3gJkkfPxAvcC0xm34+pgUCkYNSkS7K/QiaOAO4F/YfwbZ8ijXiuiIwLJxyBXCYd8PK+7bbbnHnst4VpjGnOutyTckEmnSRJdU4y6SRJkqpdMulKDyYG41nGK/5v/cqIyDui7uLG1MU06TCYGN8yViZtNa4NwRxJx58ETxxyyCGx28HoiXovtCcrL/QuQnGelCrDYGNMGwfGIOm4vp4avgfjv0Lh3jFmJoiE/eH/EOxEsA9mFd4E5c3wVsJjTJptF4V9UeMu9DMOPPDAClF+HBPHg0lYiAiywZgMIyPxjvDC8Em4D3HrZRP3ifF7VYk16TggLjAHiUlEXm2undER6JA4sBgb5Imznj9RLx4i0k8pFokJwoXkglYFbg6mFvslxDHMz2Z/PFDXXHONu2ghnA/HcOONN7pUTh81iDh2ogcfffRRV+cr1zGGJh37I1yU9nHr8BB49xrDh9p1cQ8R+/RTH2cz6XggCFGlDZGJcWnDGHc4wP68cLE5Vx/J581LHthidKZCKQeTjr7ONx5cP8xj7iXXnmsa91Jn+5jWRJaGJh0RbtT2IwUY4y1OvACYJcbPXJPNpKNP8YDzEqPvYs6FzxPpykxsEfdtST6TDrjXTHEeTq9N38WIJOKTb7YwKqv6bFYVmXSSJNU5yaSTJEmqdsmkKw8Y9zFRAuNTxqX+b/6kYlzGWJKAhjgIHMlmahUqDCZSMQmQ8GOtUIzt8UySwrnjNUS3gxgrhmNEAmkIMIr6K4xVw2Ao/k3kFxlxBOrgBeArcNyMGwlYYp+UryJzDmPN15DzwrSiLeYU42RSfPFa2I73LfiMMSqBQPgK+CgYctGgoKi4hrki6bKNPfFsfAAT4jowSUSx/AsMXtKZ/fbpi2TQlZLUtZjfpPvoo48yM6bQ+aMX00ccYbIRGURqKTniFEAkust3IAb+dB6cWv7NZzwomEWkgPJQYRZQD47Oh2mTxBigU7Nv6qBhKnBRoyGn7JcaapxLGAoZhZtLh2XCBwytsKNz3IQ/siyb4RNn0mUDY42IJbaL0UMaaRzUFfPTSmcz6dgv14/QUQxFwlNDuJ5HH3105rrTjnRkHjDuF0aP3z73jYkFOHbMJx5IzhejhuvsxTaj8st8Wz7j3zzY/J7rflbGpGN79L/odrkeRAb68N8kJh3r8IJhIgVMuWjoMPJ9mG8ELr/8cje1MmnaHCfRkt6k4+XENSXdG/M0Thi0GGe+j2Uz6SgGyjcrmHNhf+T4vBmYLeItiUkHXEPMWZ4R+qPfB88nx0kKNVGgcSZyTSGTTpKkOieZdJIkSdUumXTlA2M6jC9m9iTLjGw4DJ+oIYX4jDEtQTlMMMHYlXFrNhi3YQzRvqpi5lmCfhhbxS1nPE2ZqELApyBFNrotxmJ+llfGYpxHmAWFGO9Rp41sq3C8iBi7YvQxfsXc2n777Z15R7YhP71I9WRmWC/8CUQ7luGNYMQRZUaJJB/dh/nHtsN95hJjWO4rkYbZatKxberec97MhYC3QeAI42IMudDEpX8wcWk+3yApmJAYxX777Iv02lKOg1PPRUWTDvONYoT+wSCUEOOF2lwM6ok46tixo2vDg0QoIw+LPylER8GAwFAgao4LTf40n0WNENal09Ex2rRp424OnZ998SCEZgwhpoRTEn5Ih8FAjD7AFIEkChDzD5MoKewHE40ZV0hHXDhwgjFgvGkRhlVCnEkXHnMIn2NgYfpxHVkXMFZ4+Jho491333XX1hsnXK9s9QCpZ4exRccKOymmJGmnPjqQjnzLLbdkau3Rltl6/SygXnRIrinXkBcGnRWTkvxq/yDz4PqHmN+51qQ3Y5QSPovhhbnENqhzx/lmozImHQYZ14/JMohk47pRF4AXexguTV9Kcv9JZ/XrIPoux855cN7cW+4J30BEjTFCtL1JVxllM+n4FoaXq29HH8C0vfPOO/OmESc16TxcI6479zp8wfNcMRmMfxmXApl0kiTVOcmkkyRJqnbJpCs/GBeTSUQdcMZ1pG6SnccEeXvssYcLYKDUzxNPPOECWBhjZhtzewjGYSzDdqsqIszYH+NBn9YYt7wQOGei1qLb4pi950BNe5/h6EX2E54DJhJtSQUNS33lEn4FvoVXXJs4Yfb5sTBBWpiWce28kcoYGeMS34BSSz5TK5vxxXKfyYaHwfngS/DvqN9DcBZlxYpFrTDpiD7CoOAAuTh+2l1S77gZRMpFjTZEBA7L6ESETvLwhIX0uSkYCMzsgRPLxY0LP2Xb3CCiwzCSfBgjnR7jDTc8up7fN4YLNekIWazsReWBIEKPyDI6Rrgfbl7UIefh4oXh2xBdle8BZblvw3H6B4sOQUcMHxhMCiIN42Df3ugLIWwVw8xvg28aiKALwQzDwMFI5TwLeUiTimKR2SK+gGXs37cn/DafSUd/pMgl/YQXgFf0GwT6Wb5tAS8Nokbp89xzXvwYqKTAEukYzhoThamgMfTYH/vHqMTM5FuHOPFs0MY/P0TX8UKKwv3DhKZf0wbTLmlKMs+Yn7yFFzhRd/mgD2F+sh++daEvYMCyrVK+nGTSSZJU5ySTTpIkqdolk668YWzi66XjIeBPEGzCZ6Ucm5QCxoXem0EYVmeccUaFiS4x9u6//34XABIdExdDjA0JvvHXHpMS4xTDj3EtwUV4O4zbMFeffPJJ5zOQhoyJmGQMSwpt0ui8rbfe2mVCFotaYdJxMM8//7y7yRysvwDcfCLn/MFzQ3BIMdO4SZgdRAXxIOUyR3joiN7BnCAyiBp13BCi6bx5gTBOqOEVGl6EVvp8YaLDMDCIdqJ4I4ZCLkOlUHgJEKmFscK+2Cc174ioCuF8SK2k8+aLpMsG5pR3v9mGd6AxJEOjMik48oS+4kRjaPGNRDZ4+RHBR8go5inXk47PbLe437wUiOIiso7IO0SkIT+J2Arll9N3aIPZmQtMOiLpOGeUJJIOs8rXdAsVviRw7GmXBL6d4AXCy4b+U8jDiGGIEeZflmyLvs0zkE2Yf1xP1uEaxaUyA/edVG76dSH3n/Zsl+tBRGO+SLoQ9sOszswcTPRgqZFJJ0lSnZNMOkmSpGqXTDpRW8BrICvRT2xAyTCCK6IwhsbQu/76613QyGabbebG8aTOkl2F10L9OLIgCYjCVPMiYCebGFsz9qauugf/gProBNuQrefLQRGgVVkjlfUoLYXJyDjWj/+8vD+CP0UWXaF+Sy7wu8IAJ/ZFmbCyMukA84S0UqLCuGDAhSB1lagsTCnSUvv06eNSMTE4CjWSgM6EoURuMjnZRMphTLCPu+++Oza1lAkiMKAo8o8pSLRTrmitqsA546ziTJNDHTUNgd8x5qjJd8ABBziTo1Do1Pfee6+LZCKVl1RVIrq4JjwElYF7Qqgw0V7R6xgH15BvKbieRCJSoBHzCqMEYwnTiyhC6uX5n0ySECeMIpbnuy/0Ga4t5ifCLOQe54J1eGhIZ6WenBfTTvOywDjj2GviofLRZ6SFEnKbJHKPNhw/62BsY+zFwXlWpl8TfswLjvRyavRlK6SaC76ZyXcfagKZdJIk1TnJpJMkSap2yaQTtQ2yo/bbbz8XpZYLxpAEV2E8MYYnMIqAHXwFtkHGWM+ePa1Hjx4ZEZyRTdSEY70wQxL/g+AWfIrKeEBxsE0yN8lQxBcgkIvaeAQQMdstATEE9OA9FXucT8YhxqY3LQlyImgt6vvUJKl9z2/SeaIXgN+5GZg+1XHQbBNjItcN5xhqOtQVYyVXfTOWc8woiVEThfNmPc7Zqxjnh9FSk9epMtCXMIVQ0mvH9aGfRMX61dEvs+H7K+dQyH3n+FmHdYt9vP75WBBCwmXSSZJU5ySTTpIkqdolk07UNhgzEtzkA6gWRDhHP47FV/EZavzk8+oKImG7TEBCiTFE6m2pr3PqWmQ36YQQolTIpJMkqc5JJp0kSVK1SyadEKKckUknhChLZNJJklTnJJNOkiSp2iWTTghRzsikE0KUJTLpJEmqc5JJJ0mSVO2SSSeEKGdk0gkhyhKZdJIk1TnJpJMkSap2yaQTQpQzMumEEGWJTDpJkuqcZNJJkiRVu2TSCSHKGZl0QoiyRCadJEl1TjLpJEmSql0y6YQQ5YxMOiFEWSKTTpKkOieZdJIkSdUumXRCiHJGJp0QoiyRSSdJUp2TTDpJkqRql0w6IUQ5I5NOCFGWyKSTJKnOSSadJElStUsmnRCinJFJJ4QoS3KZdBNGPG42pb/ZtMFmUwdKkiQtGPpnkH0xsG/GpHu+51j75S+zMX/8K0mSJBVJP/1p9uFXE2XSCSHKEpl0QoiyZNiwYbb++utnTLpVVlzc3nh4d2fSjRv2kM2a0Mdm//mpzZ74sSRJ0gKhOVM/sc/69bFL2va2k255zzq+O9pG/T7Lhv4wQ5IkSSqSRv46y94b8IdMOiFEWSKTTghRlowYMcK22GILa9iwodMG6yxvXR7b08b2PNKGdz/KRr53nCRJ0gKlse8faW+8dL21vr+7nXn3B3bBAx/axW0/kiRJkoqs1g/2sbPu6mnn3feBdZZJJ4QoI2TSCSHKkilTplifPn2sS5cu1q1bd3vv7U426O3TbXi3g2zY24fasK4HS5IkLVAa3W1fe63TlXbR/d3t7Hs+tLPv7mVnpgaRDCQlSZKk4si9V1PvV96x59+vSDohRHkhk04IUTuYM9kmfNPRfh14q/02+G5JkqQFThOG3mZffvqCdew21B7vMtKe6DpCkiRJqiY93mW4tX97hH0xYnz6j00hhCg9MumEEGXP33//bZP+/NMmjP/Nxo/7JaVfJUmSFjhNSL3fxv3xm/32+zj79ffx7qckSZJUPfo1/XPcuAk2ceJEqUD99ddfNnv27PRf60KIYiGTTghR9lx99dW2/PLLW5Mmy0mSJC3YarqcLde0iSRJklRDatqkiTVu3FgqUC1btrShQ4em/1oXQhQLmXRCiLLn/PPPz8zyKkmSJEmSJElSadW8eXMbOHBg+q91IUSxkEknhCh7LrroIlt00UVj/0CQJEmSJEmSJKlmteaaa9qgQYPSf60LIYqFTDohRNlzwQUXxP5xIEmSJEmSJElSzWvVVVdVJJ0Q1YBMOiFE2dOmTRtbeumlrWHDhpIkSZIkSZIklVgbbrihDRkyJP3XuhCiWMikE0KUPcOHD7d33nnH3n77bevWrZskSZIkSZIkSSVS165d7YMPPnAzvAohiotMOiGEEEIIIYQQQgghSoxMOiGEEEIIIYQQQgghSoxMOiGEEEIIIYQQQgghSoxMOiGEEEIIIYQQQgghSoxMOiGEEEIIIYQQQgghSoxMOiGEEEIIIYQQQgghSoxMOiGEEEIIIYQQQgghSoxMOiGEEEIIIYQQQgghSoxMOiGEEEIIIYQQQgghSoxMOiGEEEIIIYQQQgghSoxMOiGEEEIIIYQQQgghSoxMOiGEEEIIIYQQQgghSoxMOiGEEEIIIYQQQgghSoxMOiGEEEIIIYQQQgghSoxMOiGEEEIIIYQQQgghSoxMOiGEEEIIIYQQQgghSoxMOiGEEEIIIYQQQgghSoxMOiGEEEIIIYQQQgghSoxMOiGEEEIIIYQQQgghSoxMOiGEEEIIIYQQQgghSoxMOiGEEEIIIYQQQgghSoxMOiGEEEIIIYQQQgghSoxMOiGEEEIIIYQQQgghSoxMOiGEEEIIIYQQQgghSoxMOiGEEEIIIYQQQgghSoxMOiGEEEIIIYQQQgghSoxMOiGEEEIIIYQQQgghSoxMOiGEEEIIIYQQQgghSoxMOiGEEEIIIYQQQgghSoxMOiGEEEIIIYQQQgghSoxMOiGEEEIIIYQQQgghSoxMOiGEEEIIIYQQQgghSoxMOiGEEEIIIYQQQgghSoxMOiGEEEIIIYQQQgghSoxMOiGEEEIIIYQQQgghSoxMOiGEEEIIIYQQQgghSoxMOiGEEEIIIYQQQgghSoxMOiGEEEIIIYQQQgghSoxMOiGEEEIIIYQQQgghSoxMOiGEEEIIIYQQQgghSoxMOiGEEEIIIYQQQgghSoxMOiGEEEIIIYQQQgghSoxMOiGEEEIIIYQQQgghSoxMOiGEECJgzpw5TkKI2kfq71o9w0IIIYSotcikE0IIUaeZOXOmjR071vr06WOvvvqqtWvXzp5++ml777337Msvv7SffvpJA34hyhie4VGjRtn7779vL730knuGn3zySevSpYsNGTLE/vrrr3RLIYQQQojyRiadEEKIOguD99tuu81atmxpTZs2tQYNGli9evWsfv36tswyy9iqq65qrVq1spdfftn++eef9FpCiHLh119/tZtuusk22GAD98wutthituiii7pneMkll7TVVlvNTjvtNPvqq6/SawghhBBClC8y6YQQQtRJxo8fb6effrobzP/f//1fRgsvvLAttNBCFT5jsH/jjTfa1KlT02sLIUoNBt1ZZ51V4Rnm+cVoD5/fRRZZxI4++mj75Zdf0msKIYQQQpQnMumEEELUOVL/99kNN9xgSyyxRGYgv9xyy9kxxxxjd911l1133XX2v//9z0Xl+OUNGza0F154QamvQpQBRMFeeumlLmqO5xNzrkWLFu757dSpk11xxRUuus4b7hh59957r55fIYQQQpQ1MumEEELUOahfhQnnDbhNNtnEunbtatOmTbNZs2a5GleTJk2y+++/31ZeeeVMu5122klpc0KUAdSPXHHFFd1ziUFHpNw333zjnl9MeJ7hTz/91HbYYYfM87v99tvb119/nd6CEEIIIUT5IZNOCCFEnYOi8tSgY+C+wgorWOfOndNLKkIduvPOO8+ZALSl5hXmgBCidGCmt27dOmO+bbPNNta/f//00oowiQRRsLTD1KO+pBBCCCFEuSKTTgghRJ3j3HPPzQzwjzzySFfbKhvMFtmsWTPXllpXjz32WHqJEKIUDB48OBMJi4F+zTXXpJfMD7O7ksZOKuyuu+5qr7/+enqJEEIIIUT5IZNOCCFEneOwww7LmHTXXnutS43LxgcffOBqW/n21LVK/d+ZXiqEqGleeeUVa9y4sXseN9tsM+vXr196yfzwrP7555/2888/22+//eai8IQQQgghyhWZdEIIIeocl1xyia233npugP/cc8/lNN06duzoUmIxBCg+3759+/QSIUQpYNIXb5qfeOKJNmXKFFdDcuDAgdajRw9XX7JXr142aNCgnFGyQgghhBDlhkw6IYQQdY4//vjDxowZY999952bJTIbkydPthNOOCEzQyQzwHbp0iW9VAhR00ydOtVOO+009zzyXF544YX2/vvv2xFHHGGrrbaaLbnkkrb44ou7SLs11ljDdt99d5eyPmPGjPQWhBBCCCHKF5l0QgghRAykyN18883WpEmTTNQOabIYe0KI0kBkHIYcz+Niiy1m66+/vq255pqZZzROSyyxhKtDyTMthBBCCFHOyKQTQgghAmbNmuXS5o499lg3uPcD/U033dT69OmTMzVWCFG9fPvtt7bPPvu4Z9JHuCImkCCF/eSTT3aRdptvvrk1aNAgsxxD74477nDPtxBCCCFEuSKTTgghhEgxZ84c+/HHH+3++++3ddZZJ2MA8JPBP8XqZdAJUVqGDh1qO+ywQ8Z8Q0sttZS1adPGfvjhB5s+fboTaexPPvmkrbLKKpl2PNfdunVLb0kIIYQQovyQSSeEEKLO8/fff9uzzz5rrVq1cvWs/KCe6JvDDz/cPvvsM2fiCSFKS//+/W2bbbbJPKOLLLKItW7dOnaGZp7Zu+66K/NML7roonbrrbemlwohhBBClB8y6YQQQtRZiIxjAolzzjnHll566czAv169ei567sEHH7QJEyakWwshSs1XX31lO+64Y+ZZxbBjFtdskLq+9dZbZ9pffPHFNnv27PRSIYQQQojyQiadEEKIOgkG3bvvvuui54jG8YP4VVdd1a6//nobOXKkBvNClBlhTTp06KGH5jTSmaH51FNPzbQ/6aSTbMqUKemlQgghhBDlhUw6IYQQdZIPPvjAWrZsmRm8U9eK1NZPPvnE/vnnn3QrIUQ5MXHiRDv++OMzz+3RRx/t6s9lg2f5vPPOy7Q/5ZRTbOrUqemlQgghhBDlhUw6IYQQdY7ffvvNReD4gfuyyy5r99xzj02aNCndQghRjhABe80112Se3T322MO+//779NL5+eWXXyo865deeqnqSwohhBCibJFJJ4QQos7RoUMHW3755d2gfckll7S2bdu6wb8Qovzp1KmTNWrUyD2/PMc8z9l48803XQo7bevXr+8mkhBCCCGEKFdk0gkhhKhTEEVzzDHHZCJrTj75ZPv5559dWhyzvOaT6tQJUVrGjh1boS7dtttua59//vl8EXJE0ZHe6tu1aNHCpbMLIYQQQpQrMumEEELUKZgdcosttsgM3DfddFM3kD/99NNdgflsos0ZZ5zhatkJIUoHUa8PP/ywNWzY0D3DCy20kJvl9ZlnnnGzuQ4ePNh69OhhRxxxhJupmTaLLrqo3XHHHUp1FUIIIURZI5NOCCFEneL111+3VVZZJWPSFaKFF17YHnnkkfSWhBClggkkLrjgApfC6p9PTDtSW9dcc01r0qRJheeW6Fki64QQQgghyhmZdEIIIeoU7dq1s2bNmrkBPVpiiSWsQYMGiUQdLNYXQpQejLpbb73Vme4+Yi7UIossYo0bN7aTTjrJvv766/RaQgghhBDli0w6IYQQdYpvv/3W3n33XXv77betW7duiUX77t272w8//JDekhCi1EyfPt369etnt99+u+23334ufX2TTTaxvfbay80C27NnT2fmCSGEEELUBmTSCSGEEEKIWg0Tv0ydOtX++usvpylTptjMmTPTS4UQQgghagcy6YQQQgghhBBCCCGEKDEy6YQQQgghhBBCCCGEKDEy6YQQQgghhBBCCCGEKDEy6YQQQgghhBBCCCGEKDEy6YQQQgghhBBCCCGEKDEy6YQQQgghhBBCCCGEKDEy6YQQQgghhBBCCCGEKDEy6YQQQgghhBBCCCGEKDEy6YQQQgghhBBCCCGEKDEy6YQQQgghhBBCCCGEKDEy6YQQQgghhBBCCCGEKDEy6YQQQgghhBBCCCGEKDEy6YQQQgghhBBCCCGEKDEy6YQQQgghhBBCCCGEKDEy6YQQQgghhBBCCCGEKDEy6YQQQgghhBBCCCGEKDEy6YQQQgghhBBCCCGEKDEy6YQQQgghhBBCCCGEKDEy6YQQQgghhBBCCCGEKDEy6YQQQgghhBBCCCGEKDEy6YQQQgghhBBCCCGEKDEy6YQQQgghhBBCCCGEKDEy6YQQQgghhBBCCCGEKDEy6YQQZc+IESOse/fu1q1bN3vnnXckSZIkSZIkSSqR3n77bfvwww9t8uTJ6b/WhRDFQiadEKLsueKKK2yZZZaxRo0aSZIkSZIkSZJUYv33v/+1IUOGpP9aF0IUC5l0Qoiy54ILLrD/+7//kyRJkiRJkiSpDLTqqqvawIED03+tCyGKhUw6IUTZc9FFF9miiy4a+weCJEmSJEmSJEk1qzXXXNMGDRqU/mtdCFEsZNIJIcqeSy65xJZotLg1W7eprbP5KrZ2y+aSVC1aa7PmtuE6K9tmK65gm0uSVGu1zcor2UpLLB47sJQkSZKqrubNmyuSTohqQCadEKIsmT17tv311182ceJEO+vMs2yFVZvYKXfsZze+dbpd9fKJduXLJ0hS0XX5ayfag9cfYa8dsp+9uf9+9voB+9hr++8tSVItEc/s6wfuaz0PP9jO3KyFLbvsspIkSVI1aNNNN7WhQ4em/3IXQhQLmXRCiLJk5MiRtt1221njxo2tQYMGtlzzZez8Rw+zu3qfZ7d1P8duf/c8SSq6bul1vnW460R776hD7P1DDrKeRx1mvY85wnpJklT2cs9q6pl9//CD7Z29drMh7R6zCRMmSJIkSdWgP//8032pLoQoLjLphBBlybBhw2zdddfNhNQ3bba0ndP2ULv1vTPtmc8esPeHv2W9Rr5tPUd0laSiqdfY9+y9J2617kceal332cOG3XW7/f7m6/bLKy9KklTm+v2N12z4fXfb+0cfYW/uuqONeu6Z9P8oQgghhBC1A5l0Qoiy5Ouvv3ZTu0dNulvePcPeGPSMDf11iH39+9c27LevJKloGj5plH3+3GP27lGHWpc9d7Xvn+5gc4YPsxkDvpQkqcw1++uv7KcXnreexx1lb+6yg41IPb9CCCGEELUJmXRCiLIkn0n31a9Dbfjvw+3r34ZJUtE0YtLoiibdMx1tzoivbcbA/pIklblmDx9mP73YSSadEEIIIWotMumEEGWJIumkUkiRdJJUe6VIOiGEEELUdmTSCSHKEpl0Uikkk06Saq9k0gkhhBCitiOTTghRlsikk0ohmXSSVHslk04IIYQQtR2ZdEKIskQmnVQKyaSTpNormXRCCCGEqO3IpBNClCUy6aRSSCadJNVeyaQTQgghRG1HJp0QoiyRSSeVQjLpJKn2SiadEEIIIWo7MumEEGWJTDqpFJJJJ0m1VzLphBBCCFHbkUknhChLZNJJpZBMOkmqvZJJJ4QQQojajky6IjJ79mybMGGCjRkzxgYPHmyTJ09OLxHlxIwZM+zHH39MfH9mzZplv/76q40dO9a+++47+/vvv9NLRHUik04qhWTSSVLtlUw6IYQQQtR2ZNIVkZ9++slOOukk22ijjWy99dazp556yhk8dY05c+a48/7nn3+qRak+m95T5fjyyy9tjz32sBNOOMH9m+PNxW+//WannHKKbbrpptayZUsbOHBgeknlmTZtmnXt2tVGjRqV/mR+OM9iqzYhk04qhWTSSVLtlUw6IYQQQtR2UuN2mXTFYtKkSXbwwQdnTIWdd97ZRWAVC8wkDKJ33nnHunXr5n5mE8s//vhjZwZhzhD9NXXq1CopqeGI8XXXXXfZDTfcYDfddFPR9fnnn1fJ/OS4GjRoYAsvvLC7R5irufjhhx9s6623ztzXjz76KL2kcvz555926aWX2jLLLGN777239evXL72kIl999ZW98sor9vzzz9sLL7xQJXXq1Mm6dOli48aNS2+9/JFJJ5VCMukkqfZKJp0QQgghajvVZtJhKM2cOdOlFuaLVKoMbBsRWVVOvPrqq7b00ks7U2HllVe2Tz/9NL2k6nC+xxxzjC255JLWqFEjW2KJJWzxxRevID5jGdpss81sxIgRNmXKFLv88std9Bjac889C5JfB/OPlN58PPHEE7bccstZ/fr1rV69erboootWWWyH7SEMrsqmEmOQbb755hnjp02bNs6AzAUm3rbbbptZ55NPPkkvqRxE0K222mqZ7XGf3nvvvfki3e644w53Hbmniy22WOZ6+uuQT7RFvl+stdZazritLcikk0ohmXSSVHslk04IIYQQtZ1qMekw5p577jlnplx99dX2yy+/pJcUB4w5v32iovJFQlUGDBNqy/Xp08d69eplH3zwQV4RYUUE2+qrr+5MhUUWWcSuvPJKt/6HH34Yu05UvXv3dpFif/31V/pI5oFJd+CBB2ZMi3xac801XTTW77//XiESrLJ67LHHEpl0tMMkZJ1mzZo5E2qrrbayLbbYomBtueWWTiuttFLmOM4999zY65OEZ5991ho3buy206RJE2eOAUYy5xYnatFts802mf1zL3O1j5ptUcaPH2/nnXeeM1v9NrlXr732WoV1b7zxRhfxx/KFFlooY1aG5iVmHAYeii7z8vtYfvnlXR+rLcikk0ohmXSSVHslk04IIYQQtZ1qMen69u1r6667rjMI/ve//7maXsUEI6Rt27bWsGFDZ0xcfPHFLlqsmJBOecEFF9gKK6zgTJ2kwvjBUPHGAlFMyy67bGzbqFgXtWjRwvr3758+knlg0h1yyCGZbe+222522WWX2RVXXOEiwhDpm96YwRzDYCLFkc+9mVMZYRa1b9/eXft8PP744xkD6rrrrnPHgFH4888/FyzShdEll1zijoNtnn/++ZUy6Yi+O+ywwzL3Z4cddrDvv//epQK//PLLrk89/PDDFfToo4/azTffbGussYZbB1100UXWrl27+dqyPuLe5btOpEbfd999FczHtdde26Wk+shT9ksfZ9mpp57qDEZSXzGovZ555hnr2LGjdejQwS0Pl3lhALINIjsxGGsLMumkUkgmnSTVXsmkE0IIIURtp+gmHemExx57rBtUE+Xz5JNPJjJ2CgXjjyL+7Kd58+YuWq2YEK131FFHZQyCQkStM6LoUNzyfCL6jGi6KFGT7sEHH3Q15/gc8e+LLrrIGZcsx8AjlZPoLCKo4gycpMIc+uabbxKlLmPSLbXUUu4YOB7OZdCgQc68KlQDBgxwOu2001x/YpuVNemIUvRRjhh1GHCcDxGTGJo+TTQqrmdovPJ7XDuvu+++20WT5oM+htnnjwlhbvvU11tvvdWlqfK5N0j53IvfSUG+8847XVsMx3C5FxGJbEMmnSTll0w6Saq9kkknhBBCiNpOagxfPJMOwwNTzkf/UPvr22+/TS8tPkQR+bTK/fff3yZMmJBeUnUwUKj/xrYxaPbZZx8755xzXKolP0lXJNIOw4jfc4l2F154oZNfPxTbOvPMMzPnQr0yohGjRE060kpDOP9dd93VLcNIitZOC42byioJmHS+Lh9mHeYQxmNV5M0qVBmTjr55xBFHZMw2asz5vjly5EjbcMMNM9uvqm677bZEJh1gtDGxQ2jUYa5iuFKTzp83kXJRiPakj/p6hF988UV6SUVk0klScsmkk6TaK5l0QgghhKjt/JuiaCYdEUneECDlEpOhOid2CGfdxJR64IEHnJFVDEKTDgPk9ddfd2mRCAMGE4Vae6RQYrTQns99m1AYStQhmzhxolsvW5tVV13V7S+pSffII49UmOX0s88+s1VWWcUt23fffd0+S0HUpFtxxRWdQURqZ2XEutwDf96VMeneeustl7rM+vQVzGQfFUhUJum0XLMDDjjA1f3zOuigg1xaMSnLfv+tWrVys/iG7RDr7rfffq62XCH9nv5D3+X+M9srEYsYorfcckvGpHvqqadcO/rA9OnTXZ8hjZlj9sf1/vvvZ/oTbXzfkEknScklk06Saq9k0gkhhBCitlM0kw7Dgxpb3kxhcE36XXWCCUGqHymGfp9Dhw5NL60aoUmHUdK9e/f0krlgiGCYYa5gluTi+uuvd5F4J554oo0ePTr9aUW4fj6aqrImHRMNULeNaDFmWA2X1STRdFfMw4EDB9qXX35ZsHzKa1XSXTEribT014006eHDh6eXzo0wxNgiNThOzJDLxBd+/R49esS286qMMc3+MdAwuj3UpPMmHXXnOA+M7xNOOMFOOukkO/roo12UoT8uDD6uE8tow0zDHIs3smXSSVJ+yaSTpNormXRCCCGEqO0UzaTDfFpnnXXcYBozBTOhUJOI9oiIoaQQTef3Sw04anNVxiSJwjaOPPLIzPl07do1vcTchAZMiOGXMdEDqacYLD46y0N0HXXGaEvtPAyrODDgvOHCzyQ16UKTjlTXTTbZxH2OydevXz/3eSkIJ44gGuyPP/5wE3tQr7BQYcYhJseo7MQRXKdlllkmc90eeuihgvoIEZPbbbddZv1s97DYhCbd008/7SLsqJ3njyOfuGZE1JHay+8y6SQpv2TSSVLtlUw6IYQQQtR2imLSYURhCPiJEpgJkyioJLAuRlvnzp1dwX3qeVHQn4L41ArDZMgFht7VV1+dMXBIGSxGHTxMHCKSiAxk5tUwko7IKlIISZv0BgKzn2655ZauTl440yzn52fXzGfS/ec//3H7W2+99WJNtjiTzhuaRM75WoDUXiO6jwixbCm4VVE+E5X75+vrce7MosrssjvttFOlhfHoz5safklNOuq0cV39uohJNArhxx9/zBhd6OOPP04vKQwMXK5dnKLmLkRNOvr1Lrvs4qIUEUZo2Adp65chIitl0klSYZJJJ0m1VzLphBBCCFHbKYpJN3bs2AoRPnvttVfeemgYSIMHD3bpkJgHGAxEpWE6YLhh8lDL7Oyzz7ZPP/3UmU3Z6NOnj6tdxr6ZWZUU1KpG02GasF3MkU6dOtlPP/2UXjLXGCSajvTebbbZJmOkIP59yimnOHOIdhhra6+9tltGvbhsJh3XA/MIkw/DMi6FNs6k4zgxBbnmfEYtwDfffNNt79dff7WrrrrKpdmefPLJVRamJT+J8mP72aDeW9OmTd2xePnZbiurcFutW7dOZNJRA5Cacv56eRVqVEVNuo8++ii9JDkc74svvmht27Z1JmYo7iM156ITn4QmHcuJmpw0aZK7r7///rsz7Uij9sfFfWcbLEek3nKfVJNOkpJLJp0k1V7JpBNCCCFEbSc1hq+6SYeZtfzyy7uBNCZbvgkjMA6YiGHTTTd1posfhMcJg4bIPIyMbNvErAhNwj322CNvnbgkcJyYYHFRToAJR9096oUxO6ifORSRespxse5aa63lPstl0nly7S+bSUfUnZ8wYscdd3QGDmAUYsz49tmEsekVtzwqZiPNBZGGt99+u4uuJMoRo7CqYjteb7/9trsWueDeEJVJRFn0+H0kHf2Ja0fUZrdu3dzPqN59911n1K6//vqZ9e+66y5Xk5Doyrh1ENvD3PNgbNIPQrPRG9JEYWIyf/XVV+nWc4madFG494cddljmuLKlOMukk6TkkkknSbVXMumEEEIIUdupskmHGULkGkYDA2lSLvMZARgcvk6bF2bKBhts4Ir6Y4j42UG9+B3zA+MsClFK4SyXpIsOGzYsvbR4YHphEBE5GNbbwyzBUDj++OMztc8o6k+EG/K15pgYoiq14qImHXXw+AwTC8MHk416cN7kI+UYY4h7EydSa/npt4eIZvSfZ9Mrr7zitu9hf6HoE9WRZuuFuRbuL9on+OzZZ591kZjhuXn5/onBuv322zsjLJe4HqEBi7FGP49rG4pj8JAii9kcRgeGpiipq0OGDEm3nkto0nXo0CETJUdUJ3XySAfHkPbbYFZZogdZjpi1lmslk06SkksmnSTVXsmkE0IIIURtp8om3bRp0yqk3GFEYSRkgzTRMHUQYcoRrcSMm0SfEVH03HPP2UYbbVShHUYckxBEwTC79tprM3XpMPSIZComGCJEx2HOMFsmkw9ggoQGEQYJKY1MOOEnfuCcfJQhtdGi0VKFEDXpMOS41v46YfSEE1yQGtm7d2/3GdcjKiLB3nrrrUyq8LLLLuuiIH2EGG38T4RByU8MIg/G0UsvveRSXDGSEJGFpO1Wl+grfl9EmDGLaZgq+sknn1QwdzBJOTf/uzeqmOjDT7aRRBh1oVmXT+3bt8/0D0wzjvXee+91pjb954YbbsjM6MvxRWcmDk06DD8mRWECi80339zVPyR6NIwUxOQm/ZplGHOkQGMKa3ZXSUoumXSSVHslk04IIYQQtZ0qm3SYak2aNHGDaAyMww8/3NXCioOoHtIgidbyA2/qtWEcEP0Uwu/U/vKpoojJA7JNSEFaoo9iI5UQgyNfSmRSiAy78847MzOWIgxBTBLMxDC1FlMG49KbMz169MgYRMwCizFUWeJMOqII/Wdcf+rGRWub5YJ74q8xkWeFmjg9e/Z0JphP4eS6EHmGiO7zn0cVtqM/xLVJKibkCI/7jDPOyJhpRK9h5oWzs/q2mI2nn366m6mXyS0KEWnFcZ97tWrVqkLkJz/pR372YkREpjes6bu5TDr62WmnnebO159HPlEXkKhVjDt+l0knSfklk06Saq9k0gkhhBCitvNviiqZdJhQfiZPTBlmlMxmjhFFhyHiB92sR8pm1KDzkDLJTJ4+LZBUyzfeeCO9tCLU//IRa+iAAw5wkWTFAkOFGVQx5kKTkag99kWtubjzJsLMXx8imsIotEKJmnR+dlfScEnx5TNMneeffz72mmIUcU3DVF3+HZp01BcEzDui9DDhck0CwnLq4WG6+UhGLwwl/3lUYTvub1ybpGJG33DGVmYJpq9gjr788suZtFa/P9+Wa/fnn3+66EyM1jhx7qxPiq+f6IHoSIzQuPZebDPXZCdAdJ1/HvKZdEQQEn138MEHu8jV/fbbz2n//ffPyH+GaHPssce6yVkUSSdJySWTTpJqr2TSCSGEEKK2UyWTDtOHmU+9kYBh8vDDD1cwgUJIvSMazg+6Sf9kIJ4LIoGoU0daIAN2zBLMlSiTJ0/O1H5DrFNIRFkS2C+TMjBDJ+mEYVTTCius4NI+w2PD6DrzzDMzJiMzjZISW1niTDpvxjFJAyYpn++0007OAIrCZB3HHHOMXXnllRlDKJtJx7b5HIOR8+Vc4sDEwvjBrCVyjCgyf3z33HOPM8R69erlzDxE+i3ptKFpduGFF7pISNqyPKnYLvtl/+G9JtWYSUkwuTDKMBvDFOvQ0EsCac3UfsOQRZiixeCHH37IRPjlM+lIlZ0+fXqmJl8+cd60pz+qJp0kJZdMOkmqvZJJJ4QQQojaTpVMOgyA+++/30UtMYjmJ7WzskXGUdg+TBndc8898xppGA1MAkFEEPXcsrWnXTigxzTDXKkOMCdHjx5t11xzTWZyAgxKTKoQDD3SHllO+iVmV5zBmJQ4k84bokQSUpOMz/0kGyHcE1KROQ7uE+YqcDyhSUeKMTAzqjchd955ZxcFmQ+2dcQRR2SOL5sZxjFzLL4dEYqs680lzjOffDvuRRQiKNm3N0Qxw6pi0rH+VlttlVnfG5lVpVCTDriPpJP7SUmyiWvjkUknScklk06Saq9k0gkhhBCitlMlkw5Txc8syiAaQ+HNN99ML60IJgzpetQgoy0GENFf+VICk0KEERFkfkDPsXz33XfppYWD+YMwRUKFphC154jsIyrs8ssvd6mT4Xp9+/bNTAzAeRNJGLfNOIX78WC8ZDPp4K677sqYOpdddpk7Pg8pm6SFsgwD05tx0Ug6b+JgiJLGyudEKJLOmw+Om0kzWAeR+kx/IIIPgxaRrsw1C00zJljABMT0PPXUU+2ss85yIgoxTn4ZfS/JPa6qScexhTXtmJiiGBRi0jEZBzDpBPexcePGLp2X9ULxGctOOOEEZxKDTDpJSi6ZdJJUeyWTTgghhBC1nX9TVNqkwxjDVPHpnETJRSO4PJhBN910k4s4oy113TAcQpOpKmBgHXrooZkJAzDFBg0alF5aOESmMVMr5giziUZFjTBqv7GcWTcffPDBCsv4efbZZ2dMSQwUzpcINt8ulzDRMEFD8pl0TKrBRAksI5U4THklWs1HMTL7J6YdsM04kw6T0Ee7cX+pHZjvXrGcSDp/D7jHRO1FRR/wfQZh0mEK+uNYZJFFnGjjt+XFZ3455+pn0c1FPpMOc5Fj53rzMyomR/GTL/j149p5sb0kVMakw3yNXpM4sV1/j2XSSVJyyaSTpNormXRCCCFEPIxRCeLxmVf8O+m4NQmMpfGHCoV1CNxiHB0XqFQXqbJJR3F6bxrkMum4adRC81F3GDVMqlCV9M8QzKbDDjusgklHmmxl4TyIOOM4c4n9NGzY0Jkp/jOMKD735+rll/l2uXTKKafMN/FFPpOO9F5f6w0zy0d80elDA5MIRh9ll82kA2YUxTxi2d577+0mQ8gFxxKadJhCzN7L9kOtueaa7prRBtEPMJSY7CA075gMgxlxN9lkk4zWX3/9TBoukX5EK+Yjn0lHjbl7773XbrnlFpfmG4rZiNu0aZOJQkRE8TE5RbQtwrB99dVXs85wHFIZk45joX/wGXUX99prL1cvj9TxXXbZxc3oyjImpJBJJ0mFSyadJNVeyaQTQgixIIJ5NWLECBegQpmvyvDNN9/Y0Ucf7WrIM1Zk3M6EiMUAb4FxMAFcZM9RGozP8pluZMWdfPLJds4559idd97pMu6qMtHmgkKVTDrMn3PPPTdjmmBMcVPiwMAh/dEbDERZYXREo8UqC4bhbrvtlhnQM+EB0XCVpWvXrhXq59W0jjvuuIJNOowhZvb0yzHZgIg6b9RggoVGTS6TbuTIkbbRRhu5ZdxbnyKbDW/S+f1jLPEy4IXCCwDx7yFDhjhTybdr166dM2sxrcLjv++++2zMmDFuZl2i2fhJRB/pnCynThyf5yOfSUeEIyYZ1yab/LqI332kX5w233xzd6z5yGfSXXvttc7UZTnRlYBJ52cXZqKSsA4d/X333Xd3y2TSSVLlJJOuNJo5sL/9M2iAzRo80Ganxb9npT5jWdw6khSVTDohhBBVBXNpwIABLuClJkRGGWPybDBOpiY6ARpMwokZxtivUDgnP+5HzZs3L9qEiIw7OTbGwksttZQLtCHgJFdpM86rQ4cObmzL2BqfiPEq16SuUyWTDoMNI8GbBhgKFLiPi44jlBJTCbOHttwIDL58TjB13pjB8+2333YzgGI4xTmybIfO4DsdteDyRX7lgk584okn2sEHH+zSPpMIg+qoo45y6aTeuOQ8MUn88ug6URENyE9myfXRbp44ky4MUeV+HHDAAZnlTFTBcmZVJSqQzzgWZjv15DLp2H+4P2rGRY8pJGrScd84pqgwE4ns8+0w6fw9pYadjwbjXMJ7yLmcdNJJ7uFnOW57kpDafCYdqcoYf9yzbApTTLmncW28eIEmNQ/jTDqeH67H+eef7/aFSL2G0KTjmQjhZb3vvvu6ZTLpyl9f/zHMRo4fYd9MGGkjJ4xwGv5HeZwPx8Gx+eNKpFT7EeOHu3W//n1Y7HZrg2TS1Zww3zDh5gwZ5H5O//ILm/LF5za572f21+efup/T+vV17WiDcVdKw84fayFyZqOMxhqTTDohhBBVhcASgi4I2KkJMebNNjkmY0LG8uuuu25mTMS4kXG5rz+eFMaaZLn57WDSDRw4ML208jBGp9wXY1a/bcbrZO/F+UIeApLIyvTrII4v38SidYHUfa+8ScdFxyjy0T6YB0Q/hdFdId26dXOdyt+EHXfcMWfnolPiri6//PIuMq5JkyYuUo/Po2Ae+YkO0NZbb12lG8y5sU0MJX7mEyYhTjGTDBx44IEZU4dC/r1793ZtMMQwlaLrxom20fOMM+nYJw8G5hcuPAaRX8614jwwtvzxXHfddRWMrVwmHWD0ce1ZHho/cURNOlJkTzvtNBf2Svou4t9MaoDT7tv5SDrgOu66667uc65dOBFJ//79Xbory5ZbbjkXkZeEfCYd28Fc5noSqRfq8ccfd99WkKLr17/oootcim60LXr00UddmO5ff/2V3np2oiYd/yFwP3nJEeZ7/PHHu2WkvDLhBoQmHdGeIZh0pAyzTCZd+WvoL0Psy7Ff2hej+1q/MV84DflpcGzbmtbgHwfZl9/2sy/Sx5VEX47tZwO/H+DOC6NuxLjhtdKsk0lXM/JRc9O/7GvjP/7IPnnuWXvsumvsmjPPsAuPPc7OPvJIu/jE4+2uSy62d9s9bj/17GFT+/V166G4bVa3MA3Hf9wnsSZ++rFN+vxTd9yYdBh2pTr2uiKZdEIIIaoKY+rQzKpuMfnl+PHj03uvCON2yi9F18F/YUwd1qDHDyDAaeLEibFiHBiOaZkcEgMwrq1XNLMvjnHjxtn+++9f4fjwFbiOuSCoJQyyolQYQSphEFJdpUomHWBAeROHKCJm3MwW1siNos6YvxErrbSSWz8bdDIfGYSIBvv000/TSytC5/DRYuiggw5KZJQUEx6SM844I1NHDOEik7pKFCDHWBWiJh2zuTJ5BSbX9ddf72q2+SgzTB+iAXkY/XVZeuml56sZmM+ko64fDzDL89WA8yadNwT5mU0s9wpNOsCkwpBlGWYrE4DQF9i2Pz/qwiV5aUA+kw4zlP1nE6mr4cQRXCNeHnFtUdIXS2jSYUi+//77dvHFF7v/FHr16uVqzPll/r4xi7A36Uh3xUT2ov9Rn45lMunKW6P+/MaeeOkJ23nPXWyjlhtZyy1bWIstWtgdD99ug38a5AyuuPVqQqMnjbL7nrzPWu3UyjbZfBNruVXLvNpsm81sxz12sMOPO8yuveNae/GdF6zvqM9t+LjaF1Unk676hTn3d/9+NvytN+y+yy61rTbe2JZq2NAaLLaY1Uv9HeEiiFPv+kVTPxdLve8apf5PXWuV5nb5ySdb3xc7uWg7DK+4bVeH5hpr/eyRq6+y7Tbd1LZJHS8/s2nb1P/FrVq2tP123MFOPeRgu/Oi1vZeu8fs2+7dbHrqvEsdEbggSyadEEKIqoJnsc4662TGINUtApeymXSMU33dttBjQIwJ+dxnyb311ltu3E6GWJxIQ41Gu/FZXFuvjVN/8+AX5GLw4MEVrhf7IDCHcXEuyLoj8Mavx5jXB6bUdaps0hHx4w0VhIuaLUca04xUTt+WjkF6aJh+6cHowITwqY+IGmTZ6sxRL40bSzs6BpNUJEmFLAYcK2YWRfzDjh+K82BSh4ceeshds2zRhrkITTquHbPlEnVG/nZofGGWXnjhhS6qz0djoZ133tkZQyH5TDoceW8W8SLgnvCyiCMaSYdpyEuH4pRe/M51CB9IZncN4SUVpsNSZw2jE5OR3zELc5m7UfKZdPnA/PJmGipWnnxo0vHNAf3bR5oyCQUz9PJvXrYff/yxWweTLpw4gmhF6vvR98KJI1q1aiWTrkyFaTX6z2/sgCPmpaZ77bznztZzQA8b89fo2HVrQt9OHmOXXHeJLR75QyCJeC/RP1dYcQU75OiD7c0+b7hU2Npk1Mmkq15hUE378gt76qYbbbMN/uNMuLi+FCcMvDVXaW73t7nc/vzsE5szpGaMOtJVMRUvOfGE2OPKJcxGzrFp6t2+XYtNrf2N19uk1LHPHjxIRl01SCadEEKIqkJNdMatjMuyCd+BsakPnvBiTBfXPpcILsqXAUiwD9ldtA/3x/4p0cV4lRrm4bJiiGCfXCYdvkCnTp0yJc0QngLBJ7nAp7n00kszATiIsSpeA2NAvBXM0mxiYop8JmBtpsomHamZ4YQNpKZGjaAQbhg3wLfHUMLY+eyzz5xZR1glbjGTDoSFDenw5F7HGW/cIOqT+c7BzKHZJrAoNqTrPvvss5kJFhAPC4YL9eyIHOQc/TIGsBtssIHdc889Li+c65eUqEmH4Xfeeee5XHa2y7XH1Ljsssvcg0rU4RprrJE5phdeeGG+KK98Jh1Q9NGnNBPpRdRWHNyH0KQj+ovzI4UVce+IsmT90IQjpRYDl2PxBiAPJ9FrPvLOP8CcJy+oQq5bVU266Pr5JtBIStT88yIy9ZhjjnGRpvxOf+F6ANc/fJllE8fLcwQy6cpL1G57rddrtvb6839DV79BfXv8hcecUTbs9/j1q1vs++JrL7bFG84z6XgGXXRTjOiPCy1U8TwQn++x/x7W/fN3XORg3L7KUTLpqk+zhwxyKaM3n3+eNU1/qRZqidT/Mysvt5ytu/pqtvaqq9qKTZu4KLqF/q9i9PXiqf/Prj3rDJv02cc1ElGXy6Tz/0dFFW3ntXjq/7Czjjjcvnu3u6tZJ6OuuJJJJ4QQoqowXsaT+O2337IKU40JEcMxLaL0EMsx1aLrZBP7SpKJNXnyZOchhEFMCOOOzDT8k/DzYohgkVwmHdluYaYf+v/2zgNcqur6219MTGJBLLFhYmwYlKjYYxSlKSIoCApYAemgIhcsqIgoBlEERLoUkSZNRKogiEgvUpUqKrbEJLZE0/5hffNu7pq753Cm3rncGbJ+z/N7Lsycs88+Zcp5ZxUCbDQykOfDsiyBbH75K8y9A1wD+JnM8Au9Pz4QVWxIB5jp06dPFOIAymbMmFH47L4iMgugBkjTEwLE4kADFoj2uvDCC2MoMV94aRccrx0vwIaGC7o8Y5EiWZICOhGiSTdSwkR120AkUjG58IBRzOOpp55yIaA+rAOaAfCIeKOLaiok2Id0mBpqUGaIM7XbiLbizYIXAlFt1KLjJpplibQKq//H+UgG6fzGE4S8xoOw7EPjxo2j86MLjYo3HubE3Hix8ouBLkcuOseRNxcfvhHuSkFLXQ7zxpcIAoepuJCO686HafFSrtMVbyxEG+q4mNdRr169XP0+hc4UE9Vrn5oEXEu8YRJRGGaOGRGrRFIig3S5YyLKtn+1Te5+oL38/JC975lBN23b1NWpo6FE2BglbY2kO/Twovfoi353kbS6r5XcfX97adepbdRtOraRpm2ayI233Ci/qfgb9/7n7wsftq0j61GvDjgZtr1cs0G6krGrQbdxvfQq6ChlvM9/TKRZjd9dKsO6PSaLXxol706eKKsnTpBFkWM/uW8faXD11XJI4XcM9ZGHl5EXHu7iINe/SxjUKaS7v1nTmDlccNZZLp21VeQLesvIZ7PzTQ2k2Y31InOuIeedeaaUPfzwmM9+zOdys7o3uPRX2bwxdJvmzGyQzmQymUz7S2QP+llrmHuwkhT3ys8//3wMf6CmHdFlMJhKlSpJxYoV3T170DTW9IM9+H5CmaWwZTGsAoYAL4gnOIGWPsP8+8UXX3TPkdVFlF/nzp1dGS7mDhOAaXBP688lXbP/a9ascds5EFVsSIeAQwpxONmk5MWrS4cgz3R2Jc85eMCDBlqQxkeuczwBI3wIw4UKlc62uKCITgKIAaOguLpNQCI0mBRUIJQvLmzqmhEBRudXH1DyZR1IBnADJmkkWZjCIB3gK2wd4KACLo4h3UHDlmPMZJAuWNTRh1zASrYFuOJxIKsux3VAlBz18jjf/NJAjTm2Q2SkLqcGWDIe4lhQ3xCa7i/DXEmPTadzbzxIx3khuk8j/cLM89u3b3fz1vWJBk22HubYJjqfpLT6+8evIhwvrmegpT4OtNPXE+NyffGLC3+Dpk4f9qMd6U7EOAbpSt80VFi5c6XUuG5vcxTnQBTa6WeeLhPnTiy1lNcwSNe6QytZtXOFbP5ik6z/ZF2M1+1+V979eK2s+mClPNGne2T+p8mPDiqKJDrp1yfJy6+Nll3ffhC6vVyzQbqSMTBqar8+cvqviho84V8df4L0vf9++eOit/YCt4iBYtoggsdovjDumV5yTqA+zMWR94dlY18WKeHzEwbp+Mzv2rqVfLt8qfxt5XL5Zvkyz0td0wiaR6x+ZYI8cFczOS3yeexH2JEG+2irlq6pBPAybLvm9G2QzmQymUz7SwTAUHrI/25AYFFJi/vAgoICxxRIyyVIh3tO7m3JTuM+UO9HAWNq7tf9xhGwAoJq/GWwrss48cqYIe49gXA6Huaem4g/xD07dfTgQ6QHkynGXLnH87MQMzH3zTSVPFAVOZ/Fh3Sk7fmF9YFkyVoCc1JpekDUHBcY0AaaCrQiyozHILv9+vVzeeGJYMeKFSvk5JNPdtvmxfHEE08khITpCAjGxb569Wp57LHHYuqGqZkr7YNJg+SCjiegDbCOtFMuYB9UcQFT7J/n9MIOKgzSxYvAA/S0atXKzQ2izjEMEwBKYV48SMcLFGhElAzdVf1l2A7HhBcetQk1cg/zb16U/PVvToJmXCAv4btcF0AwUqj9qBz/35BzosuoSxeW/hxUENJphB8hwUQbUu+O7jhh5o2HtGW/7iLNGVgvbHk1Y3bv3j0hLCYPX48X1/qYMWPc+WR++gbKvnJ9ZyrOr3bENUhX+t7x1XYZN2ucA3G6XxV+W0F++evIDXwh2HLRlIN6uaYLQL2wcVI1kXvqsOfDHAbp2nVu6xpa7Px6h2tqETRRckQIvv/lezJk/GA59YxTousSEfrM4Gdcbbri7s/+sEG67Ju0zs/fWiANa14TvS7wWZH3uYm9n3UAbM+mDQ6GAeV8A+p4jjFe/sNT8utye8sAYD5XurRo7rbBusHtxrOOHfZcmONBuifvuVv+u2GdSGR+pN36Zr7MmxRfGl0sHDVCql16SXR9fMbJv5LZgweKbNsSul1z+jZIZzKZTKb9JRiIH8jBvX379u0Lny1ZcY+p9duC0mi1oGkAqcE5GAZArfWwZXGyTD8gmZbWwjASWAbi2FA/XZ/DZ555pgvuIlAF3uM/BwshCi+eg00zDNKlIKgtEWQKnQBmibqAqriAiKqbO3euizIjkoroq4EDB7puqMAVIFkiMQbb1nRbLrawizVdAZ+AQIRiQqiJmgumrBAJyAsT2JNqp1EEcARikgYLQPFDPbkAidIjdJQXhy/+HxZJFya2wZxGjRolU6dOjcIsgA+hsKTqzps3z6XmalolECesKQJjDR8+3AFT0nj9kFfGpcEBNywAJ2Aa+8CLlOYQnA8AFLCFKEIaRwC5tGMs7tatm0vbBc4BuLQBCGYsOvz27dvXwV//HHD8SQvlPEH94ykepKMTb3HCbJOZN6JEadfMg2PHcSG6T99QCZNWqEljlVSjBrkWeLPivHJMOJ4KahmLY56tphf7QwcapAOU0Tm11X0t5ac/K/pgeujJh6RRk0byk4OLru0mbZrIyh3FS3lle1GQ9pctKYO6MEjXtqCNi5ZLlrLKfJdvWybValaNrsv7QrdnHnPbBzyGrZdLNkiXfcvW92Vcr55S7rjjotfFIT//mTzbucDBMoBW2Hq+6Qj7f+9tki7N74r50eei31aU5ePGpBxNB/RTkOagYMgyQceDdN3bt3PrJwKE7B/bksjcX32+n5wZqL/SvP6NrgkGy4Stb07PBulMJpPJtL9EEIyfbcY9NTX0S1NE2QEKuW/GZLlhMhPJrtL7fgwoI2BKl1GzHvfsbdu2jVtuDB7w7LPPRu+l+V5EWSoCbrgnpbyZBqNg/t2yZUvHICjPpI9j0nMBjgSTcA8bNGCP4C4/aAdIRwrtgaqsQDpESiRQgoPGCQdAJQNsvjjRRL+lQm19AdPIl2a77mawW7d94Fa6ApYMGTLEAaYgmGMbwCfaHc+ePdtRYpbPROzvunXr3AvJB1OYY7lly5bCJfeK/fJruQEzU4GYOj+WJcKLFyfwiygt/2YHIBIPcHJ+wrYFwONYETUGxKOrDLXkeAESWUgEIg0yiOiiMy9QljcPfz9GjhwpkyZNcg0S9DFM4wRe/DQUYdu8ERYUFMREtWEofaIXKZDO/5VDo8natWvnrlXOaTIDoNVhz4cZAJsI0hE+zDXkn+eFCxdGo0IBz7whpXp9EfEI4OXcatFN//wSVgwMzRcdaJAOWPb2hkVS6aJK0X06+dST5bVF02TgywPk2OOLOh6f/pvTZeqCqfLh33aFjpXMALE1u1bLnOVzZPqi6TJjyQxZ8+GalCLZigPpGJ/0V79zLa8Fg3T/uwZgkQ56h5fCj+tcdaVsnzXDwauw9cIM7Fs65mW5sPCzgvc3GlBMeKZXStFoALrdb85zNe/WTnpFPpg723WaTQbqigPp1A4yblwvj7Vr61JddRy61c4YNKDEU3b/V2yQzmQymUz7S9SVBzDpZzr3X/379y98tnTE/XYQgmVq6pqTBRgU9+UEhfiNH+AKpLfChABuymfU1FTnvpfgG/9x7lu530/GNOAAPmAE0sFRDlRlDdIBEmggoQePE6PdJUtKwDy2qVSVk5+tk8XclYwDSyi0WLlyZXnooYccEEqU1pquGGvKlCly5ZVXRo8fEWKQaF9AOr9BRqJIunh69NFHo9vgJoMbaPYPIMkLJJP9Yg4K8VIFSn4XWKL0ON40Z2A+wDkiyIg0C+4fYJPIy3r16jmwCb1v0aJFwmgzIB1js78sr5F0M2fOdPXy+MWDVOZsm6KeAMZEAnL6ItUZaMsbFhGcO3bsKHwmuRgL8AhIZF/980sUHUU8iwuw96cOKEj3p72prt17d5ejji4C8rc0u8VFzK3+YJVc+LsLo487AND7cQf2MkkRJS110NhBckaFM+TwModLmSPKyIjJw2X3Dx+HLu+7WJF0X22TZVuWylXXXBVd99DDDpHeQ5916a6kw4atl0s2SJddA+GWjBktlSoUfVkDUvV76EHZs21L2mmnRJ09H1n3xhrV5aZrrpam9erKwpHDkzZgYDvy/ibpeMftcsThhzvfcl0t2fXGnKTrZgPSYUDcygnj5dJzzo2Oc/DBP5FnOhW4aELq8YWtZ07dBulMJpPJlKm4j+Vek0yxVEyGmp8+ql1Ww5ZN1cF7NR6jQQL15JYvXx5q7pk00437XgKKdE7FMSWzgG5BMRd/vzGBTfAS7s+5j/Wf47iQ+cg9tx8Nh4naI4AnmbgnDkK6RMEw+a6sQToEadWIJeAAKawlCQUgxZrGCHwBuGQTnpEu2LFjRxfpxYuD3O9s1boLCsBCB5QXXnjBFaDkRR8Ubxy88IlCo0bcrFmz0oZ0GzdudLXfevTo4c4PHjp0qAsjTVQYMpviTYTt16hRw4XUsh/sPymfREJy3IOAMiigHA08qOsWL/pPRQtooBmAkwhIfbMB8jIXrtGSMGOzX+mKlt00i9AU2HTEdcP55Y2Qc0u6Ntcvb+DZfG3sDx1IkA7QRk03P8KMD6meL/R0zxEx16pDy5j6DFWvqSrz18yXD77ZETpmIgPp+o3oGxOdN2TcYPnkH7tDl/cdBunad24XtyYd4A6TUku66wuj+suvfl3UlfmXJ/9SRr/2kjWO+B810W+Duj4iRx5R1CTnwrPPkqU0fIg8F7ZOIgPFqPFGYwb89bKlrvlC2LK+FdK1bFA/Oo/aV10pO2bP3G+QjpTWr5YucV1gdRzcqcmdbp+Itgtbz5y6DdKZTCaTKVPRIfWee+5xNcmpP57I3FMSFaZlhTDf46kxz3M4bL1kJsjDv39kTgAxglgIqvFNqSoCMWhWoffOpKeed955DpYFTaQfzETny795LGxZzL06fCIoypL5zQ+TGRBHph374D/O/OEAqYiGE0FIl6ixaL4rcg1kD9JxQRHeqF1biUSjhllJiY6lhFayLZoXkHqaTbE/QLl0QUlxBDgClvkvTl+AH9IasRLzdMS4GvmmTie9OFviVwH2E/v7AdxKR6lAU/aZ7Wm3mv15PjNVJucWhZ3ffNjfMB1IkA6INXPpTPnt+UX7c+oZp8qE2RNcF9cdX293IOsUr+HC0b84Wl6cOEx2Rp5LtZ6cGpjWf9TzcuIviz4Mh04YkjGkAyCu2LFcNn2+0aWz+n73o7WyetcqWbRhkYOOp5U/zQEM1jso8uHf/v72sjayTLIovFyxQbrsGTC2Z+N6ebxdGzn4J0V1SRrXqiW7589LCsfiGShG5BkGfKUSgaaQrk3Domj0utWqys45kS+H+wnSacfaxyLHg9eGjnXH9XXkT2+/lVJtPnNiG6QzmUwmU6aaNm2aa1LAZ3Qq1u+7vnksbNlUfcMNN8RwAEpHBbcRNEEvlJRScX9N48ug/eaEGMBHzbewZXG8mu+UstIyZ8lMmSoyBgmaoe66Pk6wQqdOndy9fzzu4Yv7Qh/SES3IPA5URY5J9iAdAh516NDBHTzCHjNJyUxFXIgaRQfpnTx5cuEzJpPpQNCBBOmIInuk5yNyxJF7f1TAt7W4TVZsWy6kiFKrbemWJXJljSujz+MuPR6STZ9tdBFrYePGc7Yh3TkXnCO33nWLNGl9p9zR8vaob4/sw42N6rn01nMvODcmlffgnx4sN9x0g7y5dr6bT9i2ctEG6bJnB6XWrZWHmjeTg7wvsh3vvF2+pVnCfoRSuQDp3Bwi1xLpuocWNrvCN1avLh++Mdd1iQ1bz5y6DdKZTCaTKVPBE8gG1M/n0nCtWrVioBXZfGHL+b766qsdG4G5JAp4oWQXDR11PWrXrVq1qvDZfcU8CPgIBvTQAPPaa691rIeySgRNAc2Afj645HmaTxAsg9gXavixDNF/gDtMTXutGR9PRBSyLR2b7fHYgaqsQzpEcXqi6LjI6RiS7Qg3IoNI4SPMkpNPfTNSBE0m04GjAwXSaarrFdWuiO4L740DxwxwQIwoOW2q0LRtU/eepstVu66aLHj3TRdtFzZ2PGcb0iX6VdD/MPZ9aeVLZeLcCS5KMF3IWJo2SJc9A+l+WLNKOtx+W8y18Wirli5FdX+md+YCpMOyfasMe/wxKeOlx1x7+eXy/uuvRb48ZRZZaC6yQTqTyWQyZapXX301yhf8poFh9r+vq/luwON8P/Yf5/9hY/hmPUzddR/SkeZJXfzLLrvMpdJiQJe/fcAevIUsw86dO4f6gQcekDvvvNM1FtT1iBq87bbbXPmosHWIdGM9Gjz6oI5MtgkTJrj1Ro0a5XoCYDrI6tiY+zhKbalgOFOnTpW6deu6Ek2AOVKGiZBjnxI1gmScIKQLNtk8kFQikA6KS7goJ45GC2FdQYojxietlguH8Q/kE2Qy/a/qQIF0NIwAyJ14UhEwq1ytssxfMy+mThsRdYPGDJRyHlj78U9+LEPHD3E16/wx1Qr4gv7gm53ywkv9YyDdsFeGyqf//CR0eaxjhkG6THzkUWWlVr1rZfL8Sa5enb+NXLZBuuwZeEWttfa3NI65Np68u72DXiUF6QByQQMMZcvmfSAdHV5pbhG2jo6XbUj30lM95CjvS3KN3/1ONk2bmlanW3O4DdKZTCaTKVMRmUUd8y5dusjDDz8c19RQb9OmTfRzXH3OOee4evYXXHBBzONnn322G/ORRx4JHQ/zPCaqzId0RLLRiBATwUaNfDgIzRh0/Nq1a7vup9TBU9gX5rAoQR4LW9Z3/fr196ltDrQD1jFX2Ezv3r1jIBoAkPp6wYxK1qNhJEDUT73F7EdYDTwEBPTHP+6442T79u2Fzx54KhFIhyClnDhcEjXPCOVk7HRrmJlMpvzQgQDpFIDdetetclDhB+NBB/3IpbEyd2AazRYw0W8bP1vvUl796LS72jdz3V9ZJji238DBN1BvwOgXYiAd9e0+/8/nocv7EC0M0p140glS6eJKcuGlF8gFl5wf4/Mjj1Nrr/xZ5eWYY48RwKKuxy+HPP7StFEOQuYDqDNIlz3vjaRb7Tqq6jWBn7yn+JAOOKb2H2eb1KkLmnpvsu19aduoqB5KverV5MN5c10Katg6Ct+yDemGPd4tJpKuXrVqsmtu8i6z5uQ2SGcymUymTAW/gC2k4nnz5kU/xzHRYE888YTL7mvdunX0cb4vNG7cONq5NZmDUCtMCxYsiPYAwArpSCHVx7JpIt+YWzwREecDN/b5lltuSdi0kPmScelvh8Yb9913n3zzzTeFSxWJVNkgpCvJ3gelrRKDdCaTyVQcHQiQDgC2aMNbcunll0b3o2zZI+TpAT1lyZZ3ZNHGt+StDQujXr59mTRt2ySmPXn5CuVl8rxJDp7puMCutR+tkTkr5sj0t6fL9MWx5vEHut/voJmO07VnV1m4buE+y+LZy2bJ2g/XuPmGQTpq0c1fPU+Wvv+OvL1xUYzZP+rOzVo6U8a9PlbuatdMjj7mqOi6uMGtDeSdzW+7qEL/+OSiDdJlz9GadC3ucnBar4fiprsyLuuqtXHEvyP//nTBfFk3ZdI+3jB1smyePk1urnlNdB5XXXyRzBo8UN6b/to+y787eaJ8OHeOfL9mldtGNiAd0XkAwf4Pd4mpSecaRyxeZI0jsmCDdCaTyWQqaQGfyObTz3F8wgknyMqVK12zhXbt2kUf5/sCKaXZFIAwCOl27dolrVq1ct1m4xnIxXz8uQEXg8sBy3QZfnAH/sWDh5999plcc03RdyvGpOwZkW8IuEfdOWrfLV++PBq8RQTe3Llz5de//nV0XUwE3lNPPeUiCH1xbIOQLtvZmrkkg3QmkykndSBAOqLj+g7vIyeUOyG6H3zYHXb4YVL2yLJyRNkjYsxjfFj6H6D8/9nBz8qWP29x9e0YF9g1csoIqfDbCnL4EYdLmSPK7OOfHxL7Qcw4Zcruuxw+9rhjXXfZj7//KBTSte/cTjZ8tt5F/hF1t48LI/KY38bPNsijPR+JAYSEyj8/sp989PfwtN1cskG67BkoRXfXbm1by0+8FIt7b7tVvl62JGMoRSfUbTNn7PWsGQ5w/RMAtmObA2llI1/w4vmnBx8cc12WOexQKVtm3+WOiLhp3bry6cI3XRpqNiAdMJHj8Yf77pWDI9vWsdo0auiOB9F7YeuZU7dBOpPJZDKVtHbs2CGVKlWKfo7j8847z4EsOqv6qbB8XwByEaWXLQUhXc2aNV0aLHXbZs+evY/nzJnjgBgpqXRb1fV+8YtfSL9+/dxzusxrr70mTZo0id5DUC/v3nvvDZ3/559/Lu3bt3f3NjomNe+efPJJV1+OlNaCggJ3bGguQdosx0dFViRzAszp+pjmFnSi9bVs2bIYSHf88cfLJ598UvjsgSeDdCaTKSeV75COaDdSVOs0qBMDyzJxs3bNZNXOldGUVyDdkLGD5dgTjg1dPhOTDktjiTBI17agjbz78VrZ9pet++ynmv3F2/4aWeZPm+WGm6+P2e+CRzu65YB5wXVzyQbpsmeNHHu2c4Ec8rOiL1b1aNgwe2ba6Z1E0AHLnru/s1xw1llyXoXfyEUVz5bh3bvt3daundLq5pui2ymu61atKrvfnJc1SEdEHjX67g2kozzQvLl8v3pvxF7YeubUbZDOZDKZTCUtINlRRxVljSjIQt99991+h3Ta3TWZAGenn356dD26u65evbrw2b0i8o26fPod/tBDD5WePXu6yDcV+0I9OGAez+t4mKAA0ljLly/v4Bs/iOpzNWrUcMfH19dffy0dOnSIAX2Y7rH+PpFS62caEblInb4DVQbpTCZTTirfIR2wauIbE+W08kU1GqjXRoTbIYcektDBKLgzzyovUxdMkQ+/2xuJBqQbMXm4nFmhvPswDBuDUHV/jJ/+7Kehy7H+kUcfKaNeHSW7v/84Y0jn+6O/fyiPPfOYiwzUMRo1aSjLti51tenC1skVG6TLroF0Mwa+IGecfHL0Wjj1pHIye9AAV58tbJ14JvLuj4vekpu9tAoi9Po80Fn2bNog8sF2KWhyp0sl3ceR19RhkWv9J17NRIolHxL5wndo5PGwde64/vqsRtIxzvZZM+Sa3/8+Os7hkdfgwK6PyJ7Ic36zCnNmNkhnMplMppIU6aw0gPC/Y5crV85FoqFvv/02ZyHd+vXrXZSarhcG6QBfN954Y3QZIuBefvnlwmf3ijTTKlWquO9Rulwqvj7yvSoI6RBNQC+9tKg0EAbIde3aNVrXbuHChftAOtJoD1SVCKSDtGrHj1SKH+4PMZ9gbnNpyj9GJdFYw1Q88UZanPPC+mrOtSl95TOk04gy4NbPfl70gXJt3Wtd2uewicNk8PjBoR46Yaj0HdFXzqhQ9CHqgEDvx6Mppe9/+Z4s3bJERk0ZKS+89IIMfHlgjIdFxmh1b0s5yqsN165TOxk5deQ+yw4YPUCGjB8iS99f4iBcNiAdjSue7PuEHHV00fZr16/t6teRAhy2Tq7YIF12DVj7eP4bUvPyy6PXAtdzlxbNXYpqOimeAL/5Lw6TimcU/Qp8VOTL47ine4psfT+yrQ3y7uRJMvG53vJqv76xfr6fzBg0QK69omgel557jmvi8PrAAfssPykyxorxY+W7lcvdHIsL6Vyk37YtMrRbVznisKLX1oVnny1Lx4yOvOFtDl3PnJ4N0plMJpOpJAWMO/bY2EyWatWquc6riKYHuRxJ50M66sHNmDHDQbjp06e7rrF0iPXTT0mPpR6cr08//VQuvvji6DKJDFgjBfbKK6+UESNGhDag4F6ZbRM44K9Lt9ytW7e6Zd54440YSHfiiSeGAr8DRZFjkl1Ix0HesGGDvPDCCy7s87nnnnPdTEpL5D1DiAcMGOBCNXOBuHJxErJJW2KO0aRJkxysy7Yg+du2bUvYWSVXxBsbba95g8nmm1immj9/vjs/ixYtcnNKB7RxvGfNmiXDhg1z3r17d+EzpnSUz5AOkLZi+3KpWrNKdP6Ee/fo96QDeNSXey/yN8zvR9bd9e0H0vDOhu6DXdevcV1116Bh5zfJIRcgrP+o52O6uw6dMMSls4Yt77u4kI59/+C7ndL87uYxv7A1a9dU1uxavTcdNmS9XLFBuuza1aWLHL/OTZvEpDKcdeqpMnfIYJEtm6ONHxL5/zaul3+sXePSWf1xalW+QrbMmO6i1MLWUztI9v4madPw5ui6dUm7nTMradotEK44kM5tOzK/916fJlf//rLoGLhd40bFaqJhjrVBOpPJZDKVlABGV1xxRcznOHXSaHSgShfSwQWIJCN9FOiUyj0n96nZgHSnRr6Lcb9LbToaRpC6GoyOO/vss11Kqi/udbt06RKzHCbtF9BGU4dzzz3XdYXt37+/q5XHviUK3oLZUN9OxyJd9umnn5a///3v7nlgot/QguhFfe5AVNYhHRo/frw72dyUEooItCst0aIYCgt5hXpTDLG0RURf27Zt3YuBY/T73/9ePvroo8Jns6OvvvpKOnbs6Pb9mWeeCW1lHJRGfmXqdECWL45HQUGB/OY3v3HhtYSzlmZ0IW8SDRs2dNcM1y9wN503AVpvX3fdde5NG1OEszgCcgP6aFVN556SMKHNuRbRmc+QjnTU0a+NllNOPyU6/xNPOlHGvj7GQTCNhotnGjQMeHmAlPtluaL9P+4XMnzSi7Lj6+0O9LEdB/wiY22JrOMbyPfCS/1jIN2wV4bKZ//6dJ9ldS4691BI16mNrNv9rquJxzb3MeP8+X0H8dj3aQtflYrnVYyujx97pqt7ju3ptnLRBumyb6LEiBajjpxeDz+K+K7I+/0nC+Y7gEW9ubB1gWD/t3GdA2nDuz8ux/+iqODxjw86SHrf30n2RMbXVFH+aldZ34A02bpZ2jZqGF2f2ni75s7eu/3A8oyhY8aDdE/c3d4tS6QdywbNGDxHKu4XixY6IMecdYxflztRpvXv5yLs/H02Z26DdCaTyWQqCXF/B0QKQqwzzzxTPv7448Kl0od0jNu4cWN3z87fqVOnJo0Qe/PNN2MgHd1VufdPpiCk49+vv/66i3LTx3wTUResR6d66623XCpsmTJl5Je//KXUqVNHHn74YReVRzASzTUIGEpHa9eudQ05aITxzjvvRKPu2P7kyZNjIN0pp5ziUo8PVCWFdAAUAEU6puUuF5oexM6dO7sItrBl4zksFDITccH6bYGrV6+e9SKDXDiAFC6UVMz+8eIiTJM5cXG/8sor7vGw5eMZih0GVnise/fu0ZBRXkAUgKRFcjzREYY5EIb60ksvpe1Ro0bJhAkTXJeXdEU7Zmg5c+WNjBc4xwKxn7xglyxZ4rq6ZOKlS5fKihUrUo4oJF//LO9mcty4cWkByC+//FKqVq0aXZ+ouuKIfQdWHXnkkc6EDHNO+RtmXU6XTWRdjq47Gk6cK8pXSAe0ItqNyDG/WOrNd9zsUkoBVWHr+SatldTQS6+Irc/QpcdDrntqsuYL2Y6ka9epraz/ZF0UsgXNesxr/cfrZNLciVK5euWYaKfTyp8qE+e+4mrVBbeXazZIl30Dq35Ys0o6NrnDwTm9Luhw2q5RIwfKgF2kxhIxB9jC/B9/v3qlzBkySC723g9w7cqVZcvr0x0EDNuub6BZtiPpgHQ8R8dW/qoV8P0jsu43y5fKhqlTpHVkuz/7aVFnWdwpcjy+XbFM/hNZP2y75vRtkM5kMplM2Rb30DQ3IFLM/xwnFZSsKV/pQjrunbVTLMsCvGbOnFn47L6COQwfPtzxA90G953AvmQKi6TjPnngwIFuPAJUCDAhkIgGE3fffbe7rw0T9+rTpk1z9+lwHu7Zw0qLsd9E+ZExxz1/osAh+A/34cHMR8YYM2ZMzPHn3jUfsgUzVUJIx4EeMmSI1K5d2xFNumwkc61atVzIJWGOehC5gOnmwXNh6/hmOyxHaGS2UkCJzIK2MhdOLvuUzagh8rLvu+8+F9JZr149Fw2WyLQfZjm/BXKFChXkhhtucM+FrRM027rtttvcCyNMpGlecMEF0fF50TVo0MCF0oYJaEjYKMcnUwN9yGdPR0BU9ps3JeZJaCyRlwrFoOi8cRGZyfwyMS2aybkn9TcV/eEPf4jm4l9++eWuOGY64o2I14Ae++JG0nH9KtAtKXPugOu5pHyFdAC0BesWyG8rFc0dYEUtug++3ekgXth6vllm8xebpOGdN8v/K3xt4GtqXy0L3n0zacprtiFdg1vqy8vTR8vk+ZPklTkTYjxh9ngZMm6wPPTEg1K34Q1y8qknR1/PmH/f93AHF4m39S+53dkVG6QrGRNNtm7KJKly8UXRawMD6q686CJ5uedTLqoOaKX+buUy12ihW9u2cspJJ8VcV8cdfbSMfqqHGxcgFrZN39mGdLh5g/qy5OWXZNm4MbJkzOioF49+Sd4YNlRG9nhSWtzUQMqffPI+v7z/vtJ5smzsy0nTdM3p2SCdyWQymbIpst1atWrl4JX/OY5vvvnmfVJB04V0jO/XuIMPLF68uPDZWJHt1bt3b3df638nAuxRPitZUAnc4LTTihrasR5lwQhgIiilT58+MnjwYAffgGVsLxMB2zguBJo8/vjjrmYfcBA2EY9dJBJpsvAbP/iBe/TSLKlW0koI6SCkADo9GPvTLVq0cEQ2G+LEtm7dOhrZcdlllyWMKktXXGyQ6OA+lLSJpooXpcUbAS8u0i715oAXc6NGjUJBHQUoAUFc/JkasPXqq68Wjphc0G+iLPVNj8i/kSNHxgBU8s/9FteZmn1/7733CkeNL95Yzz///Oh65OkHfxWA7pMiSvpp0AC9VatWuRRmHYPoRNJV463Dm3OiXwIAricXdkYEVlILAQhIVKhvQDidcTSCEjBLC+x4yzIOcI5l+UDgeskl5SOkA64Rbdb16Uel7JFHROd+yeWXyJzlsx0AC1svzIC4p/r1kKOPKQpnP+zww2TYK8OSjpNtSEd4Ods+vMzhcliZw2IdeZwaFsFuspj33Co1rpLXF093abph28s1G6QrGQPJ9ry3URaMHC6XnXtuzHWCD4l8DlSIfI42rnWttLulsUsNvaFqFfnV8cfLTw+O/eWaLq1Pd+wg369Z5SLuwrYXdElAup9Frvkyhx3mGkHw1/fhkdcEnWP9iFL17ytVcg0w/rs5NcBoTt0G6Uwmk8mUDQGaaFZAKmjwhzZ8ySWXhN47hUE67r/jATSiy/zvCoCzsAAR5gOo8oN81GyD9aZMmZKQnxAIQ2AQ+4MJYlqzZk3hs3v5QTLQp2JZ7pFJzeU+l7pzBJaMHj3a1dyvWLGii87zU1RPOumkfZpQpCL2/Yknnog5DzCqkqjpnytKCun8VFEuAK2z5ZsbNAANBhDwGH95HOtjav5PGCXL89d/DrMOJzd4kRGhBFxLx4SQkso5e/Zsl9bHfgC3qJvH85Dj4DrxzFhhxBYCrRCFi4f90hztMANG2G+WAUAxr0TLq3UZgBjbYjuJwmERYKhly5YO2LAObwKAO4CV/yIkGpCuKqSukkuernlBQuD9nPxE4oXNOn6EGL9GMA9fRNIBmUifhr5nYiLxaPkcHDtM7IteJ/xKEfZGcs8997iIP8YF6AXNXDlPul+ECwPLwpZlDIBZojcsIB0tshmLSFPgFb9s8AuFb94kOV4KjKmnB8RlWT4wgstu2rQp2pmHugYG6YpvUj/XfrRGrq1XMzpvfO9D97pIslS7o2Ii8hZvfFvOuyAWaDRp3URW7VyZsAEDkI7IvWNPKPplbsj4wSlDuoKuBfJTryttJv555H3+5jtvljkrZrkIulQiCHPBBulKzv/ZsDcVdMHwF+WKC86PfJbt+6WX7xn65THsuXLHHit9HrzfRdmRChu2nTArpGt5U4PoeHWuujItSFfQ5M6Y+aTjH/3o/8mhke83gMGVke8fHAvGDdueOXMbpDOZTCZTccQ9Kvez3bp1c/eCYZ/p3L9Rdy1MQUiHiSSDI3Dv7Zt7smADBkouBeETyxIIw72dv2zQ3FcTAKNRcIxDsJLCN+6FH3zwQQcNue+mxt7OnTsLt7KvWI/gGWCcH7TCPgIEO3Xq5DIgAZbU5gMgwnmUVQSdKaSDAfmBY/AMohOBdweqIucrMaQjBVUPSJUqVRzcIgSSE4Mp4kcudr9+/VyKKs/rc/EMzOnbt688++yzrgssY1Akkef4NxchEUZcGCousjvvvDMKtZKZ5dT6GF/wdV8Agf7yqZgUXubnzwtBoBXSAZQgyUA9IqSC/uSTT9zy0GAaOnAsiWzjzSBsed+sC3QjzVX3IZV6Z3RObd68eRTUYSIVeYGpeOGyX8U14yQTL/KxY8e6F6rO56KLLnJQJijeWABKzJXik5maa5n5JRJQmJRgvU7atWvn3jyD+t3vfheddzbMtUWXnnjyIR2pwYkKg5LSy5sky/KLSqI3QmoXECrMsgbpsmNg1NxVc+Siyy6Snx/ycznk0EPk+BOPl0FjB8m2wqYLYeuF+k97gVnTtk3cOOpzLzxXXl0YeY/8dmf4ehED6QaNGehqwel6IyYNl90/fBS6vG+2+fBTXVyjCn+7iXzoYYdK2aPKynEnHCflK5SXKjWrSL8RfWXNh6vzCtBhg3Qla220sHXG667j62mRzwGi6PxfkYMmYo301hurV5c3hg2RfxaOETZ+PO+FdJvl3sjnJ7AMN4p8v9n1xpyUId0jrVq6KL5D+aExBR9TtqycUq6cnHXaaVKvejWZ/Fxv+cvSd9x4wMqwbZmLZ4N0JpPJZMpE3CcSEUa9N+5LKeUU9p2EAJBEjSi553zooYdi1iHQplmzZq6uGkExpKZSyx2gRpaULsc9KM0jgvfTZO0RmeaPSdAP3IHabP7jADLG5Dnq6NH44cUXX3TbhsFocA1/+T8MBvaClcUwR57jWMB3qHVPKqwGK3GPRrBJPBgXZjgExy5eQ1HGpj460BAuAksh0Ipzwnx9QMm5oUFmom6x+a6UIR0nAaIcJLsQTGp4QVAJB6VQfzIRwQN1JRqpadOmMR1M4kEetksdNz05pWWAZLCenQ/pqBeXrIjhc88950g3cIYoqmBxxGSCevMiThXSIS5yUn65qDmXvNhKo9giLybeFPz0YEJti1u3LRviFxGtXcgvAYQfqxQWcr0TXcqbbTz70Y6Y8xS2nJqutoleNz6kY9u8MfpRcb6JpNNaA1xjXB9hy2GLpMu+gVErd6yQ0dNHy6Axg2TwuEEyaspIWbZ1abTBQjommm7+6nny4sQX3Vh4xNQRe8f7c/zx2NY7mxfLqFdHuXkMGT/ENa3Y9tfkNeFYd/7qN1wnWbfN8YOTesiEITJyyggZP3OczFo6U5ZvX+7GyjdAhw3Slby16+nXy5bI2kmvyPDI51Gzeje67q/HHXO0HBl5Dz0h8h782zPOkPo1qkuf+zvLopdGyqcL33Tr/idNQKcGjq2bMlmm9u0jr/brKyvHj3O17wCHYcur6TDL343Tpsr0F/rLa5EvrPxN5nlDh8iysWNkU2S9Py5a6EAhjTEsxbXkbJDOZDKZTJmIBglEZ3HfpvcevonwJ2CJAIhEgR/cMw4aNCh0fT/TEAdBIJl2QDFfBGdQE89fjnXhMgSxAPC4P/SDkdTcj5JuynY1k5F7TwCfWjMbsT83zDpkOTIG3AY2hAga4v/B7fnW/eWemlr6NKfg2MXjD9RGB+IxLlyJ0lGUZgKY+r0OMHOlRFYqwUH5qrQgHSQ2TEQcsQyElNpmycRJUOjACUgFFhF91bVrV5c2CDEOpg36BgDpr/KAMJbnpIctm6q5YLhIiHwLQjpgx1VXXeVCYgFhABCW0egyNfsArdYLjYuemmeQ4+CyYWZMXviPPvqo64bKnGh/nKqIxGvSpIlrcgGd3t8iVJUISv+FxnUAqddjCgQrjdBVIDBvzPoGV1BQEFMskzRgahnyiwd18ohYC6sxx2PUpNMINcyvF/wiELY85heCRPvs16TjzZziovyaEGYiR/Xa5y//D1sOM45+OFhNupKzg1R/Cn8uFbN+xqCrcL1M1n9f5+zmn9g6xy1fvufAImm9mUDJXLBBuv1jQBWwDXD2w5rVrgvql++8LZ+/tUA+XTBfvoj8/XLxIvlq2RLX3fXf6/dGzyUDaiVtBXb8TerIXBUqurlH/h0cz5xdG6QzmUwmUyaCRxB4pPcdvrl3hXekWtaJwA8/YyxVkw1FB1ZfRJ4FIRV8xr+Xp3Mq2VZAN3+5bJrAKr1fJ/jHv9flfhIgx73l2Wef7QK3SPnlHp97XZhSkJ8Exf0wDR/9bcYzxynX7luzrbQg3SOPPOJACxFFaqLAOGksA2UlTNJ/PsyAJa1FRiQP8Mh/XnOog2LbnGjCIMMMBOEv9Br6y/iQW9JPeVEFl8/EzC8oLtQnn3zSAboHHnjApfAyB4ixmk4pQE4uXOaFefES0UYRSH/ZZOY8cOEDjLZs2VI4i9TErwRh+1DS4hzfddddjt7r/gM1uV70RQuApGMN+8c525+wjrBj7axDmqjfVYe0UGrB8Ry/Cjz11FMJ58YvHoQY635SdLQ48iFdSdkgXXbtoNWXhQZkhSyTqhWAZTKev17Y8/G8zzZTsa4TcdiY+WKDdPvXCrKAWHRqDZq6c4C8bEWfue0VOt0x/XVTMcurw8YzZ98G6Uwmk8mUqbivpgmf3nsQUEPDvTlz5qR1/wzL4J6We0v4SKKSHjxHoBNshGCWIAPRsbhXY/njjz8+tEwSNe9IUyVbEVhHtJlGwcFxuIdlW5igFN/BOQXN/fuoUUWfp5SSonQWwTbUfSeQilJW3LNy/wZvAHqmE+nG8b3jjjtCt++bACxKph3InV1RypAOE31D+CE1ubiA+Ut0GeSU5znppO7xXCJTEFHTAYFpRMfpmEA7ouuAUZlCGoALFybjA85K+iTSgYW5ayopLwLfPK4vEj2W6uCymDF4sbKOrhd8njGDMCkTESYL+CQyjNp42TJj+gUmyYn39x8CTj6//+IlXJemC+wbAHN/pcAS+VinTh03L96oyHH3o+j4FUABHmAxWetooB5pzLqvvLEXRz6kIy2V1wiRm4QA+65cubKL+uSaYVmON8eTXzPCluV1p68Tg3Rm814bpDOb89cG6Uwmk8mUqbgvJWuO+z3ulYYOHeru6zIRHIPsKoI7qKtP4BClu9T8n1ropLJS25+IOf/e2RdMBlBHtiDNGsiwCxPz5x4WNsF9NDXlevToIffff78rl0UzSYKrqG9P84iGDRu6BhL+vILmHpl6en5gENsneIpgLebGvvr39JmIoB0gI5mCNF1kX4GAMAHOB/yItF7KZoUFcx1oihzP1CHd/jQRaZmeAFITFRwWFBTsF0gHWGSbWOEa/waCAJ38feM58r+xvzwGWvLXXx4D7XRZ3Q4X8NKlSwtnkZlItwW8AnNIC86GGYsx/ZBg8sY5FkBGXmDUTvNfzETRkYqrNJ8XI+G+XAOQeM5hNsybX/BNhGg+jewEcpG+zBsF2yaUWMN5mRv1BJPB45KIpNP0cOAf6eKARSI4ffOrxYIFC6J19dgnPmh4A6V5SHBZuhKTBs6yVpPObN5rg3Rmc/7aIJ3JZDKZiiPuFwnIoBNqshTNVMS9J/eycJWgaVrI9rgPTiaWp1462WmpCpjG9rmnZTvMA7Nd38F5BZ1uVFymAjACA7knpeY/Neyo2w7s5L6Qe9hsnJN8UFqQTovck7IJzeRvhQoVXN0rngdiEPHDc4kMRNBIOv4SVUXHEp5jfCDPgAEDMoqk42IkCg+oxfiPPfZYidNWLnoupiVLlsR4xYoV8uabb8ott9ziQB3Hh32n+QTP8ULjwgO0YR5jPTq/aqcXoBahn4yjz6uBWLywguJFxD7znL4Y/Rcl8+U4sZzWEywJE52nAtgRLcmvBbzp+WIeI0aMcKCI9bgmSBnmRUqbaOAd3WmLY1Jt+RWAUF2ua90uxx9QpXCwbdu2Dtqx/XvuucfBV71WiTwj5x8R5gv4Chr49d5777noNT0OdO/h1waeC1s+2RuzD+lS6e5KvUKWTdbdlW1bd1ezOdYG6czm/LVBOpPJZDKZTPmuPRGlBOlIZQWwEIoJCOAGmr/8n1BJliG9jvpqPEcLXf76Brrw+CuvvOLyqVkH0Ad8ot6bLscyRAplIuBTr169oqmVhIbyWGkIyEiHFvYVCEQkGTnU7FvYnIA1tD/WbimsQ3gshRTTEYSdUNibbrrJnRvCWdWEtN59992ufh8CgpHKqR1e1OR78xdIyFwwUX76eDKzz5xTFUAMCBTWyRbg6NfqAxyRLsuvGOkW3dRc+7DnMMBOIRew8vbbb495XiMZgar+vvNvQobZD0RhUU05Bcj5BkZynHRdQBPLBpdjXeoG6LmIJx/SEYUIBGQfuI6Ctu6uZnPxbJDObM5fG6QzmUwmk8mU70oZ0hFNRHOEYIghYIkmBixD9FpYIcOg/O6udMzMZiMD5lNQUBAtivjMM8+4iCFqrxHNlI4JuVQok4lokEFkoEIGTHQTsIx5AVCIhgPCAbTIWde0SyAjhRj9aLRURUhoPLjFMSHHm1RHxDkm1z5o9p9IP4VngKvp06e7x/1lgD2AN39ddSrhqMA4AJbOj3lzDXHcmSMpvWw7FWvEG+b8+3X91Pfee6+7FhDb8CMJWYcxOPZaq00N7CTyTZVKYctUTNoyTTISyYd0zA8ISvRq0IDBMmXKRCElf/k/j4ctT2SsgkiDdGbzXhukM5vz1wbpTCaTyWQy5bvShnTBgoZEi9GcgWWAIlOnTnXrAbj465vHMNBBIRKQTqFJNkSaJ0UO9cYeSFa1alVXy6tatWppmdRHcp8zFRGCNEwgTRIIQg06jdDiWAFJAGY036CWG8CGOWsEHQ0YMhE53GeccYaDUlq/jn/rMSElWSFdIlGYEZjDOqRZAuWCKg7EJAWWyD72l21wPCjQqemfRIvNmzfPNZgAEMbz66+/LjNmzHDXoXb1BXASsQkI9ZclCs1PL505c6arQ8d1SKQo8JRrmAKbwDDGomFKsK4c2+J8sr0wA/m07iD/DlsGcy78Qpxh8iFdSdkgndm81wbpzOb8tUE6k8lkMplM+a6EkI66W6TXcYMMXCJ11AccCCgG3FDQQl056nglMjXnNIKH1ECisbIlaq75N/bFMWmnO3bsKBw5MxFNBpgEOIwePdrVVwPMhW1PDRCtX7++6yoKcKOGW1jtuXjieFLDDngFhKK7KP8mKo3xqYuXDNIxZ+CmzodmHH6KLoCNWmvAKkBauinFNNsgotBPKb311ltjotXSFbUIAX2Mdd9997nrN5k4PyxHNCfpr/yfKEAgn17TgNbgNQpYW7hwoWvUwN9MzLpElSarmQg8A2byWiHqMJ6rVKnigLDCXiICuYZ5PGx5Nd2L2F8/PTkXZJDOXBo2SGc2568N0plMJpPJZMp3JYR0RE4RUcYNMpFfL7744j4pjEFIl66JYMompPv888/luOOOc2MzJ4AFkUypWmvZYaLbUgEXHBMgGtaoQaAP+8V8qNtHdFa3bt3kuuuui3bfVAPB2DaRVaQo8hh/iX4jPfbSSy91tdQY44svvkgKdcLEHBmHsemcmgzSEYWmUXQ09gimZI4fP97VnWOedDJNp24e4JNoRx/QYSBb8PpKR4MGDYpCuo4dOzrQmIloGkFkGeNwzIBFpSmOCVGFwENSi+OZ642oO4XARAACZzXVO2wdNeMX59iXhAzSmUvDBunM5vy1QTqTyWQymUz5roSQjlpuRNpwgwwwAtxEli98dq9IfyVFkGgcouQo+h+MnAszy+GCgoK0osSSiRRTLdpPiiARYDQmoKD+4sWL41qfp7MqsIz16fqZrKg/IqqqZcuWUqdOHQfhAJsAPiAW0AgAB+T0ARz/B4JVqlTJ1UUjGm3y5MnSokULB4bKlSvnohdZXg1wJI21ffv2rsEE6bDByMZ44rwRicU4ySAdgJH0Vt0u5ygIvEgDJk2U56l7xtyD10ZQzJVjzDUVBnX9VNdMlEkkXVB02VXIRbrrxIkTC58JF2CLOfM3XZdEQxOaQXCNMH9SytmffJVBOnNp2CCd2Zy/NkhnMplMJpMp35UQ0hEFBlDjBhlwRdpkmIA6pCkCbvibilkWZxrtFCagR79+/aLpfkTpsQ/piH3UWmSkDpKWmUzsB9FkChPCTLQc8zrmmGOkdu3arssrkYlEbZE2SkojwPOHH35w3VmBjXQTbdCggYN5rO+PBxh7+OGHUz5+QKFUI+kAlkTwsSxRiTS3CBPz12MFnOS8xhO1C1neb6RBJJ2/X3QGLk1IR5SiDyeBp36UJxCSlFj2BW3evFn69Okj3bt3d/Ua0zEwePDgwQ6EB8U2OD+AW0wjjWQmvZn0WYC5RpJyrT333HMutZbnw9YLWre5bNmyrMLzTGSQzlwaNkhnNuevDdKZTCaTyWTKdyWEdB999JFcfPHF7gaZaDCNyvnss89cAX4gBX+JJKMLaSbeunWrGwMDuwAhmYq0PmCR3tQT3ZYuaKDRgIIn9p3aa6mITq7Vq1d3TSCuvPJKF01H043GjRvLY489JmPHjnXgA2gIiAMo0piBiDm2R5MK0mR9cSxYlmMEDAIEnnbaaS6qkQi8ZF1BfaUK6QCFpC9rKmqnTp3iHkNgokJcogPZn3jRYdTG8zvOApDYZ46VRhiWJqTjOAM9gdFE+RHlyfUJkCMdlGNNJCnX1LBhw9zy06ZNc/tEirQ2BEnFLMs6FSpUCAWgvL4415qCnYq1SQXXhkYparq338AiVXNei1uPsbgySGcuDRukM5vz1wbpTCaTyWQy5bsSQjrgm94kc5MPtACiEGFERBS1ymgUcfbZZzsDHXg8FbOsvx7b6dWrV0b11lTMl/kwX2AIjRfSTSmkk6iCHtJDASapCKBGgwfAFRFl1PgiwhDABegJg49EymnX1TvuuCNhl1uOOzXJgDrAIiBbOvuWKqQjkpBaZiwHgCKqLpGICATqsPwVV1whH3zwQeEzsVq7dm00wotxiapjf4CYPIZLC9JxzT399NPRNGnmyVjUc6PLK8CVphukKPM8EJOxSTkGNur8MWAskf1lqU1IY5CguI6IAvWX3d+muQuv99KUQTpzadggndmcvzZIZzKZTCaTKd+VENKtXLlSTj75ZHeDfOKJJ0aLy/spgb7DQESYWQaIFnwcIEKqX6aaNGlSFNIwX2q2pStSTwGSjEE0FdF9iQSseeONNxzQmT17toNc6rlz57q/PE6EHtFkM2bMiP695557opCOKDzgG8vyXNA6NuNo11Ye5y+wK5lSgXQ0F/AjEencGg90MR7nijRdjZAjBXf69OmFS8SKCD32kTp2HC/WBzI2bNgwur3SgHSkC/fs2TMKEDHXJtGNGlWnjxPxR+oxkZFEPQLpdD1eJ9QK7Nq1q3Tp0iXUROoRPahNKQB/wMuggLUPPvigg4Mcsxo1aoSaaDuiNTmmChCZo87Znzv/JvqyZs2abr2w8dRsl3kCC0tTBunMpWGDdGZz/tognclkMplMpnxXQkhHbSqFHty8azomEWpEE3GzrzXFgAPUcGvRooWDO6QFhpn1eP7666+PaYzAduheGhZxloqIhrr99tuj43Xo0MGlJKYjtk2jCY0MIxWTVMdEonMr9duAJKkY8KMphfxf56sdXjUtEXgXXBfzOCmM+jzjAe6SKRmkY9+BZAqQiJJct26de1xr5REZCLh5++23ZcCAAdK0aVPXBEJBI27Tpk1cOAbQo1uunmMiDG+++ebouqUB6ZhP+fLlo3MImvMCsAOWUe+N+m7UrmMfgMLHHnusW45rGqDLPiUy4Fi3Fw/SAS95rVEPL54BeSxD1OZdd90Vhd5AOwWHzI20VeAp/7/11ltdtCnnkvXDxlUDL7lmSlMG6cylYYN0ZnP+2iCdyWQymUymfNeeiEIhHRBizJgxDgRxg3z33XdHo9wAKfybzqc33XRTNGKHtFWipHgOIMFf3/oYEXoAPr35BiZQRL84qa5EmhHl5G7mf/ELB1PSFfvMPABfjFOrVi0XPZhI1OWjrhyQBKCTyNQh031OZq1zFjaOmm2yHBFdyZQI0nHcic7za8YBVHmMa4DGCLfddpurt8exBSIGO8+qSf+M12giKK6H0oZ0bK9KlSpuf4CfXIukY3OsAMnUAqRjKtAqODc6vyqku/fee1Nq4rF79243PuvEg3SpCtjWrVu36HUPVKb2oaZ8092YyEbgHP8HptKwgojJfJBBOnNp2CCd2Zy/NkhnMplMJpMp3xUX0hE99cgjjzgABxB6/vnnQwEKNciAGXojTeodEXjxtHjxYpdGypgsT+QYUVnF6SRJMwaAms6BdL1kaaphIoKJaCkFk9SJI3oskYhmmjJliowcOVJGjRoVahoqAE/o5EoNPp0nYEgBpx4PDAgjNRJAxnpE94WNyzZ5LpUOtIgae4wPpPNroS1fvlwqVqwY3T4m+gpY6c8xaOYMsKOGnV+bjZTPVM5nLkA6NHnyZAe7OJaLFi1yUI6IQdZPNB8f0gGxiUBLJs4VUYqsUxxIxzVPSqqmZnP+iHBk7jo+0JVzS205Ih55DFBHHUAateS6DNKZS8MG6czm/LVBOpPJZDKZTPmuuJAOOEVkDjfHgADqn8UTYIBoJIU5pH8SgUTUkIouqTwGINKbburG9e/fv1gRdIAev3kBkGb8+PFpN4xARJsBxxSYUSMvlZRZIvDYXtAqxgVmUpdMoQrRVKQpKlSiVhgpxRptB2gkGtCHXfG2w+PJxDEmEo6xqZ/mwyHSUP3z4ptjQYQZKZSkaTIG57pJkybSr18/B7UAon4TBYARgCWZcgXScX6YC8cymYDXgFmWLQ1Ix/EBsF5zzTXRrrh0/NXXJ6/FM844wz0OpAOKIxqAAMd5HHMO33zzTbffuSqDdObSsEE6szl/bZDOZDKZTCZTvisupOMGWdPogAnUJ0skInOoCadRaIAdUlpJQyXlDuikz2GK2AN2SH8tjmi2QLqpjkvn2VThTFAAGOCTjgX8Ky7EYP+AhgBPTRElLZjjQndXrRfWvHlzB2yAVlpf7NRTT3UNBD766KPC0TITwLVv377RenN0MaVBhsK9L7/8UmrXru0eZ25EJTIfGiTQhZXmFEuWLJGNGze6uVCnD3joAzUgoEIgzn28BhK+cgXSJRNzIpWV8/Pkk086uLp161ZXQ1Hrv+0PSEeaau/evWOiHoGrRHLquQS4+pCO6DoV2wLO6brAWqIegempgN79LYN05tKwQTqzOX9tkM5kMplMJlO+KxTSESUEQNKoriuuuMIVy08m6reRNuhDM22EoP8HSlEjC8hRXAEg/Jv4c889N+V6aGECshDNxlhEKfnwIx0RmcXxoj4f3Ut1/4k0vOyyy1wKIuOSrqqRdYAfwBdz6NixYzQqjXkAZQYNGuSK/mvzjlRFY4FOnTpFYaCaemXTpk1zc0VEw7EsDQUAUkQQphpdpqKeH40KgHxEbiU7drkI6ZgzYJVrmejHt956S3r16uX2i7GJLCRSdNWqVTHdXalJl8q5+eSTT9KuScdc6OxLUwgfdF988cUutdw/R4kgHaLRCR18NQqP/SENGmibrEnK/pZBOnNp2CCd2Zy/NkhnMplMJpMp37Unon0gHZFXDRo0cDfGgKV77rknpbRPItEASXfeeWc0Gsw3YKB+/fouKq84MAbRfOKCCy6Ijg3sIv0wHagUFABDAQowBOCRjogm++yzz1yNvapVq7racjo/6rsR5efDSUCoQjo6pWr9OyAZ+6INADDAlHp2dBEFvCSrl4YAbnRb1e6rnEuAoZ8mSafe4tQD9MU4wMlUGiigbEM6IGG6kA5ICZTjWBENStQjwI0oUKI9OYfBa5m0X+CaD+k4L5x7jkEiA54UoiWCdMBCrgeiGOvWrRtT8w+w1qhRo1AgnQzSISLnOnfuHI2sxIxPyjXNQlI9fyUtg3Tm0rBBOrM5f22QzmQymUwmU74rFNKR1qgpeaQuhtWjAyIAWYAbgKfXXnvNASFSNBUKYYCCRuRh4BdwqEOHDg5AbN++3cEUAF+qAtBpp1JMlBjRTsVJnSVaiRp0OldSN1OJLAJo7Ny506WvEgHHvvnRThw/Un1J/wTS+ApCOo6liuPLsQGQnnLKKdHxMPtLIwCaXABhgC4aEacCdlEzrmzZsm4dQBOwZ+7cudKsWTM3Lx7nLw0IqE9G5Bj7zD5xLIGOmPOs5jyp9TF/OX2OfWUM9iOeWD6bkK5nz57RzrxcX8kgHXMjmpDjARDlWHHtBhtlADWBdeedd56LAiXFmqg5Gk4opCN6lDpxHGMaqYT5hhtukOrVq0cjK+NBOuo3AguJSFToqOZaIA2ZxhZhSgXSIc4XDU2IPvX3l7mxDwBImlMUB3oXVwbpzKVhg3Rmc/7aIJ3JZDKZTKZ8156IYiCdwh0FbRdeeKGrWQYEIpoO8EG0HKCCaBxS8EjHDKZTArsACg899JD06NHDRaj58AoDIM455xwHMKiNBTBRaAfgCQIb5gBMYk46BnXeiJpijsnEeABFIvkAAEApaoSR0kj0nwIRgBbHANiUSMyHGmFEXFHPTSPUdF7AEsBTPKCSCNKpgF1ASaLwiHbygQoAFEgEZPProQFWgILUHNNlb7nlFtm1a5d7ntRW4J8CLQyEYj+IACQdkvlQZw3wCLyk6QXdfh999FF3rvhLkw1q5hUUFLjxWrVq5YAX4I0x6GYbBJO+MoF0RJdxjezYscNBJOq04dWrV7umFnp8mJNGJiYS89Xt++b65ZoGBnfv3j0KMRlTwRXRjgrpMnE8SPfEE0/ERLlhXo9EtwLdOG7xlCqkQ1y/vBaoP6gwV81rgXNfmimwBunMpWGDdGZz/tognclkMplMpnzXPpCOKCpq0HFTDBh4/vnn3c08YKRFixYu4ogbeCKwfCiFAVOAAZokAK8AYBpdRS0uursSVQY80iYKasZiTGAB0T3AE+AZ21ZR54yUT11Ho8CANKkIkEd0EvCFfWBb2K+ZhytXrizbtm0rXCuxiEw74YQTousC0ojCI8qN/ffnHxSQTrdNw4owSKcCWpKOW1BQIOeff34UKOIRI0bEbIeUUyLt9HmOJx1BfREJRv1AUjfDUpODBn7Fc9jymIivbEM6IsxolsB5A4zS3AQHIfFzzz2XEGapgI8cS8bg2uLcA61omAHwAn7Gg7WAau3uCjA9/vjj3fVPVF08A/X0dUPUZRik4zrnOZZhv6hjyDkm2jOZmDPwj3XZXiJIp+IccVy5ZhTcAglnzZplkXTm/zkbpDOb89cG6Uwmk8lkMuW79oF0gA2io4h642af1FdEV09NgfXNcoCKevXquZpgNEWgNlcY2OAxorgouk8jhBtvvNGBDT89Vk2EGY0XfPk1wNguEXREU6UqUvxIyQ1uS82YpCMuXbo0YZqmL8Yksox50d0WsEHkXLIoPAQIUiiSDNKp2B4RcTS1YJ3bbrttn2PA8QeGMi7wiLpzYbAF8EckFZGOLA+Y4bgzJ84J0WQYoMo4qZhlMeuRApzoOHKtae1DzPWTDNIBsPz6bGEG4gF4UxHX4pgxY1ykHFCI5hlEjKYCp4ik07qDderUcdcrEX28BsJMRCQdYWk8wTqkhodBOo4B0YtENQLnANypwjLOpwI+4PGiRYsKn0kszhNp00Q/AsaA86lAzpKUQTpzadggndmcvzZIZzKZTCaTKd+1D6RDf/7zn10qI+mOWtcL6ER0GOCO9FYAAlFs1LUiyo7IrERRY0GxLOsABgBOpEsCyKj7RZoswMtP4USkGj799NMuRZYUxFTSGYMC8gAUiRrCRE5hGloAJgAi6Yp5kgqZbsF9gM0ll1ziohNJcUylO6gKqAJMCotUA+jQBIEaaNRmSwb/OLfMnQi8TZs2uWNEHcKxY8fKqFGjXMQfUW50TwXi8JfmGByvMJMqzPPJIr8Ajpx30jO5rugwmgzSsS+cP6LeaBzim2NJ6jT1EVMFTBzHTKPFFi5c6OAmqdzUw0vl/BPNCZwGeAP2AFFh4rz6qbWpilR0auMBKrm+gZDpiNclr3/OTWnLIJ25NGyQzmzOXxukM5lMJpPJlO8KhXQISEA9KiCGCuhC2iSpoDxHJFamgCMoxmJ8YBfRRcC7MAGmNm/enLQpQDwxX+AHKbLACCKnMI+lAxmzIeAexxKwwvHM1rFUac22TKUAC3NswgxUCzPPJRPjkhJMiiYOXm/xRKQizTqIKPQNYOWYpjJGNsS1yPw5h8C3VLfLPKmNyLpc99kU4zEfUqPZRjrgN9dkkM5cGjZIZzbnrw3SmUwmk8lkynftiSgU0plMJlNpyiCduTRskM5szl8bpDOZTCaTyZTvMkhnMplyUgbpzKVhg3Rmc/7aIJ3JZDKZTKZ8l0E6k8mUkzJIZy4NG6Qzm/PXBulMJpPJZDLluwzSmUymnJRBOnNp2CCd2Zy/NkhnMplMJpMp32WQzmQy5aQM0plLwwbpzOb8tUE6k8lkMplM+S6DdCaTKSdlkM5cGjZIZzbnrw3SmUwmk8lkyncZpDOZTDkpg3Tm0rBBOrM5f22QzmQymUwmU77LIJ3JZMpJGaQzl4YN0pnN+WuDdCaTyWQymfJdBulMJlNOyiCduTRskM5szl8bpDOZTCaTyZTvMkhnMplyUokg3fQNYxxQ2frlVtnyp/fN5qx527cfyMpxQ6OQbvfLo2XP9q3yr/Xvms3mHPd/t22RzyZOMEhnMplMJpMpb2WQzmQy5aSAdBUrVoxCumPKHRGFdK+uGyXrP1srG7/YIBs+X2c2Z82bvnpflo0ZWAjprpYPRw6Xf29YJ9+vXG42m3PcgLrdY0YbpDOZTCaTyZS3MkhnMplyUvEgXc/57aTv/Adl6OIeET9lNmfVg1c8LRP63i1zGtWXufWulyXtWsuaLg/Iqgc6m83mHPfqyGt1afs28kbD+vL61VUN0plMJpPJZMo7GaQzmUw5qd27d0vr1q3lqquukmuuvkbqNrpO7h91h3Sf3UK6Tb/LbC4RPzK7uQzu0VhmNrhe5txQR2bXrW02m/PN9WrLa1Ury5ZRIwo/UUwmk8lkMpnyQwbpTCZTTuq///2vfP/99/Ldd9/JDz/8IF98/YmMXv6sPDO/g/Rd0NlsLhH3fvt+GTegvSxq3UzeuaupvN0i4uZNIuav2WzObUdeq5HX7OKI32zUQD6cMqnwE8VkMplMJpMpP2SQzmQy5bwi71Pyj3/+Q/76zV/kz1/9Sf78tdlccv7rX/4kX//xj2azOZ/9xRfy7V//Kn//+9/NZrPZnGX/7W9/cz+i86O6yWTKrgzSmUymnNewYcOkTp06UqtmLalz3fUR1zGbS8y161wv111vNpvz3bVq15Zrr73WbDabzVl2tWrVpFmzZrJr167Cb+smkylbMkhnMplyXgUFBfLjH/842kTCbDabzWaz2Ww2l55PPfVUWb9+feG3dZPJlC0ZpDOZTDmvjh07ykEHHRT6BcFsNpvNZrPZbDbvXxukM5lKRgbpTCZTzssgndlsNpvNZrPZnDs2SGcylYwM0plMppyXpbuazWaz2Ww2m825Y4N0JlPJyCCdyWTKeQ0dOlSuu+46ufrqq6VmzZpms9lsNpvNZrO5lFy1alVp2rSpfPDBB4Xf1k0mU7ZkkM5kMuW8/vOf/8g///lPs9lsNpvNZrPZnAP+17/+BUwo/LZuMpmypT179uz5/2ficsDQrsFBAAAAAElFTkSuQmCC;" vertex="1" parent="ElX6lnOLOb3OckqddCdb-10">
          <mxGeometry x="100" width="1257" height="712" as="geometry" />
        </mxCell>
        <mxCell id="ElX6lnOLOb3OckqddCdb-2" value="&lt;font style=&quot;font-size: 43px;&quot;&gt;&lt;b&gt;No SLA&lt;br&gt;Violation&lt;/b&gt;&lt;/font&gt;" style="text;strokeColor=none;align=center;fillColor=default;html=1;verticalAlign=middle;whiteSpace=wrap;rounded=0;" vertex="1" parent="ElX6lnOLOb3OckqddCdb-10">
          <mxGeometry x="1150" y="160" width="190" height="120" as="geometry" />
        </mxCell>
        <mxCell id="ElX6lnOLOb3OckqddCdb-3" value="&lt;font style=&quot;font-size: 43px;&quot;&gt;&lt;b&gt;No SLA&lt;br&gt;Violation&lt;/b&gt;&lt;/font&gt;" style="text;strokeColor=none;align=center;fillColor=default;html=1;verticalAlign=middle;whiteSpace=wrap;rounded=0;" vertex="1" parent="ElX6lnOLOb3OckqddCdb-10">
          <mxGeometry x="1150" y="580" width="190" height="120" as="geometry" />
        </mxCell>
        <mxCell id="ElX6lnOLOb3OckqddCdb-4" value="&lt;b style=&quot;&quot;&gt;&lt;font style=&quot;font-size: 43px;&quot;&gt;75% SLA Violation&amp;nbsp;&lt;/font&gt;&lt;/b&gt;" style="text;strokeColor=none;align=center;fillColor=default;html=1;verticalAlign=middle;whiteSpace=wrap;rounded=0;" vertex="1" parent="ElX6lnOLOb3OckqddCdb-10">
          <mxGeometry x="1150" y="380" width="190" height="120" as="geometry" />
        </mxCell>
        <mxCell id="ElX6lnOLOb3OckqddCdb-5" value="&lt;b style=&quot;&quot;&gt;&lt;font style=&quot;font-size: 35px;&quot;&gt;Deadline of Requests:&lt;/font&gt;&lt;/b&gt;" style="text;strokeColor=none;align=center;fillColor=default;html=1;verticalAlign=middle;whiteSpace=wrap;rounded=0;" vertex="1" parent="ElX6lnOLOb3OckqddCdb-10">
          <mxGeometry x="450" width="630" height="70" as="geometry" />
        </mxCell>
        <mxCell id="ElX6lnOLOb3OckqddCdb-6" value="&lt;b style=&quot;&quot;&gt;&lt;font style=&quot;font-size: 35px;&quot;&gt;A: 3&amp;nbsp; &amp;nbsp;B: 3&amp;nbsp; &amp;nbsp;C: 7&amp;nbsp; &amp;nbsp;D: 7&lt;/font&gt;&lt;/b&gt;" style="text;strokeColor=none;align=center;fillColor=default;html=1;verticalAlign=middle;whiteSpace=wrap;rounded=0;" vertex="1" parent="ElX6lnOLOb3OckqddCdb-10">
          <mxGeometry x="450" y="60" width="630" height="40" as="geometry" />
        </mxCell>
        <mxCell id="ElX6lnOLOb3OckqddCdb-7" value="&lt;span style=&quot;font-size: 35px;&quot;&gt;&lt;b&gt;Scheduling Based on&lt;br&gt;Inaccurate Prediction&lt;br&gt;&lt;/b&gt;&lt;/span&gt;" style="text;strokeColor=none;align=center;fillColor=default;html=1;verticalAlign=middle;whiteSpace=wrap;rounded=0;" vertex="1" parent="ElX6lnOLOb3OckqddCdb-10">
          <mxGeometry y="160" width="380" height="120" as="geometry" />
        </mxCell>
        <mxCell id="ElX6lnOLOb3OckqddCdb-8" value="&lt;span style=&quot;font-size: 35px;&quot;&gt;&lt;b&gt;Actual Scheduling&lt;br&gt;Result&lt;br&gt;&lt;/b&gt;&lt;/span&gt;" style="text;strokeColor=none;align=center;fillColor=default;html=1;verticalAlign=middle;whiteSpace=wrap;rounded=0;" vertex="1" parent="ElX6lnOLOb3OckqddCdb-10">
          <mxGeometry x="10" y="380" width="380" height="120" as="geometry" />
        </mxCell>
        <mxCell id="ElX6lnOLOb3OckqddCdb-9" value="&lt;span style=&quot;font-size: 35px;&quot;&gt;&lt;b&gt;Actual Optimal&lt;br&gt;Scheduling&lt;br&gt;&lt;/b&gt;&lt;/span&gt;" style="text;strokeColor=none;align=center;fillColor=default;html=1;verticalAlign=middle;whiteSpace=wrap;rounded=0;" vertex="1" parent="ElX6lnOLOb3OckqddCdb-10">
          <mxGeometry y="592" width="380" height="120" as="geometry" />
        </mxCell>
      </root>
    </mxGraphModel>
  </diagram>
</mxfile>
